<?xml version="1.0" standalone="no"?>
<!DOCTYPE svg PUBLIC "-//W3C//DTD SVG 20010904//EN"
 "http://www.w3.org/TR/2001/REC-SVG-20010904/DTD/svg10.dtd">
<svg version="1.0" xmlns="http://www.w3.org/2000/svg"
 width="1266.000000pt" height="1536.000000pt" viewBox="0 0 1266.000000 1536.000000"
 preserveAspectRatio="xMidYMid meet">
<metadata>
Created by potrace 1.16, written by Peter Selinger 2001-2019
</metadata>
<g transform="translate(0.000000,1536.000000) scale(0.100000,-0.100000)"
fill="#000000" stroke="none">
<path d="M6119 15296 c-29 -60 -52 -91 -200 -261 -82 -94 -119 -163 -196 -367
-86 -229 -146 -442 -173 -613 -33 -211 -48 -250 -120 -321 -57 -55 -61 -61
-55 -94 18 -112 16 -137 -14 -286 -17 -83 -31 -167 -31 -187 0 -20 -13 -78
-29 -129 -17 -51 -34 -120 -40 -153 -25 -144 -94 -753 -136 -1195 -48 -511
-82 -727 -123 -804 -49 -90 -145 -152 -272 -176 -36 -7 -49 -5 -70 10 -14 10
-65 34 -115 55 -49 20 -115 52 -145 70 -62 38 -136 61 -225 70 -133 14 -178
26 -212 56 -46 40 -126 79 -162 79 -16 0 -67 -18 -112 -40 -70 -34 -92 -40
-143 -39 -34 0 -74 6 -91 12 -35 14 -154 81 -204 114 -21 14 -49 23 -75 23
-23 1 -59 7 -81 15 -57 21 -67 19 -147 -21 -83 -42 -196 -58 -337 -47 -82 6
-87 8 -129 47 -42 38 -49 41 -101 40 -36 0 -108 -16 -199 -44 -132 -39 -150
-42 -220 -37 -46 4 -123 21 -192 42 -136 43 -207 51 -320 36 -92 -12 -126 -29
-141 -68 l-9 -26 -103 6 c-62 3 -128 14 -167 26 -123 40 -220 47 -220 16 0
-16 -73 -99 -111 -126 -16 -11 -59 -27 -95 -34 -105 -23 -227 -99 -246 -156
-3 -10 -13 -10 -50 0 -58 16 -64 13 -162 -89 -99 -104 -136 -177 -143 -288
-11 -155 32 -253 132 -298 32 -15 111 -34 199 -49 250 -42 533 -118 996 -270
744 -243 1071 -337 1350 -385 257 -45 1286 -48 1635 -4 71 9 168 14 215 12 87
-3 98 -7 299 -107 24 -12 30 -53 51 -365 30 -439 41 -533 155 -1281 63 -419
89 -547 145 -720 27 -83 63 -218 80 -300 66 -322 160 -646 256 -883 109 -270
266 -724 454 -1312 76 -239 169 -518 206 -620 36 -102 89 -250 116 -329 l50
-143 6 -342 5 -342 -56 -152 c-79 -214 -88 -229 -140 -242 -60 -16 -154 -71
-241 -140 -94 -74 -239 -266 -507 -667 -232 -349 -346 -539 -403 -675 -138
-330 -216 -718 -156 -778 21 -21 74 -27 85 -10 4 6 21 16 39 24 18 8 100 76
181 152 249 234 310 282 466 369 144 81 305 150 466 201 360 111 383 124 550
291 72 73 136 133 143 133 31 0 84 -35 156 -101 43 -41 95 -84 114 -96 60 -37
235 -65 506 -83 185 -12 266 -30 433 -96 258 -103 386 -183 560 -349 148 -142
187 -160 245 -114 35 28 34 58 -8 201 -19 64 -37 138 -41 165 -12 90 -44 182
-69 198 -15 10 -26 29 -30 53 -18 116 -236 461 -385 610 -156 158 -387 352
-501 422 -248 153 -470 376 -549 552 -71 155 -76 188 -76 468 0 278 7 339 70
657 46 229 118 509 269 1044 69 244 172 615 230 824 57 209 118 429 135 488
93 332 229 1144 281 1677 11 118 29 292 40 385 35 297 42 422 45 775 3 352 7
399 46 518 26 78 69 124 157 165 63 29 66 30 181 24 64 -3 166 -15 226 -27 61
-11 146 -28 190 -36 371 -69 1334 9 1740 141 41 14 140 55 222 93 81 38 180
81 218 95 39 14 167 64 287 111 240 95 579 212 713 246 48 12 101 28 119 35
18 8 64 19 102 25 38 6 83 16 101 21 34 11 93 70 93 94 0 8 14 57 30 108 17
52 30 106 30 122 0 35 -49 127 -103 192 -79 95 -159 150 -277 188 -143 46
-243 96 -313 155 -38 32 -83 62 -99 65 -19 5 -57 -3 -119 -25 -108 -37 -154
-35 -260 11 -140 61 -179 60 -434 -3 -184 -45 -243 -49 -312 -18 -90 41 -128
51 -193 51 -78 0 -142 -20 -233 -74 -63 -37 -72 -39 -122 -34 -29 3 -100 25
-157 48 -84 35 -115 42 -168 43 -72 0 -106 -14 -215 -88 -75 -50 -171 -86
-233 -86 -34 0 -71 11 -132 40 -102 48 -170 54 -214 19 -37 -29 -95 -45 -196
-54 -47 -4 -96 -11 -109 -16 -13 -5 -58 -42 -101 -82 -43 -39 -111 -92 -151
-115 l-73 -44 -65 18 c-79 21 -240 78 -284 100 -38 20 -47 31 -47 62 0 12 -11
44 -24 70 -44 86 -115 260 -131 319 -9 34 -21 162 -30 313 -17 280 -30 376
-74 557 -30 124 -61 301 -106 599 -33 224 -71 376 -144 578 -34 92 -65 193
-70 226 -13 79 -36 125 -81 162 -35 27 -39 36 -49 104 -12 80 -34 144 -50 144
-5 0 -13 9 -16 21 -4 11 -20 42 -36 67 -16 26 -40 82 -54 126 -25 77 -58 152
-208 471 -41 88 -80 180 -87 204 -9 35 -31 63 -110 141 -75 74 -101 107 -109
137 -13 49 -50 90 -88 98 -15 4 -61 18 -100 31 -65 21 -84 23 -175 18 -89 -6
-105 -4 -117 10 -24 29 -41 17 -72 -48z"/>
</g>
</svg>
