<?xml version="1.0" standalone="no"?>
<!DOCTYPE svg PUBLIC "-//W3C//DTD SVG 20010904//EN"
 "http://www.w3.org/TR/2001/REC-SVG-20010904/DTD/svg10.dtd">
<svg version="1.0" xmlns="http://www.w3.org/2000/svg"
 width="1885.000000pt" height="1422.000000pt" viewBox="0 0 1885.000000 1422.000000"
 preserveAspectRatio="xMidYMid meet">
<metadata>
Created by potrace 1.16, written by Peter Selinger 2001-2019
</metadata>
<g transform="translate(0.000000,1422.000000) scale(0.100000,-0.100000)"
fill="#000000" stroke="none">
<path d="M1802 13898 c-7 -7 -12 -31 -12 -54 0 -26 -7 -51 -19 -65 -17 -22
-19 -22 -35 -6 -41 40 -51 16 -65 -148 -6 -77 -14 -212 -17 -300 -3 -88 -10
-187 -15 -220 -5 -33 -9 -63 -9 -67 0 -4 -17 -16 -37 -27 -53 -27 -88 -77
-103 -143 -19 -82 -23 -86 -62 -56 -57 43 -148 85 -248 112 -56 16 -66 36 -73
141 -5 69 -27 177 -56 280 -5 17 -15 54 -22 82 -8 33 -19 55 -30 58 -17 6 -29
51 -29 117 0 22 -8 46 -20 60 -11 12 -28 34 -38 47 -21 28 -51 23 -59 -8 -4
-16 -11 -18 -39 -14 -28 5 -35 2 -45 -19 -8 -19 -8 -31 0 -46 6 -11 11 -51 11
-89 0 -115 23 -209 88 -367 9 -21 16 -62 16 -92 1 -46 -3 -57 -26 -79 -43 -40
-44 -60 -5 -119 37 -55 111 -229 121 -281 3 -16 12 -59 20 -95 26 -110 40
-328 28 -413 -16 -101 -25 -123 -65 -142 -19 -9 -59 -42 -88 -73 -29 -31 -96
-102 -149 -157 -52 -56 -102 -114 -110 -130 -8 -17 -25 -43 -37 -58 -13 -16
-26 -39 -29 -53 -3 -13 -9 -24 -13 -24 -10 0 -72 -92 -109 -161 -86 -160 -126
-427 -86 -574 34 -125 36 -142 36 -226 -1 -78 -5 -94 -38 -163 -30 -63 -50
-87 -109 -139 -157 -135 -233 -316 -205 -489 8 -52 64 -188 93 -226 24 -31
103 -108 134 -130 17 -13 48 -39 70 -58 21 -19 72 -49 114 -66 75 -32 76 -34
108 -98 65 -132 188 -251 321 -312 150 -69 421 -33 678 89 39 19 72 40 72 46
0 6 3 7 6 4 4 -4 8 -24 8 -46 2 -40 35 -91 60 -91 17 0 37 -16 40 -31 1 -8 7
-30 14 -49 6 -19 13 -46 14 -60 2 -14 7 -31 12 -38 5 -8 2 -20 -8 -31 -9 -9
-17 -31 -20 -47 -3 -28 -6 -37 -28 -96 -5 -15 -7 -31 -4 -37 4 -5 3 -12 -2
-15 -4 -2 -6 -20 -4 -39 5 -41 40 -64 72 -47 27 15 27 15 20 -42 -8 -56 -6
-109 5 -157 5 -23 14 -31 38 -37 18 -4 38 -7 46 -5 7 1 10 -2 6 -8 -3 -6 -2
-11 3 -11 8 0 32 -72 36 -105 1 -5 12 -20 26 -32 14 -13 26 -31 27 -40 1 -10
3 -28 5 -40 1 -12 6 -19 10 -17 4 3 8 1 8 -4 0 -14 48 -32 67 -25 40 13 122
77 133 102 6 15 33 50 60 79 27 29 47 52 44 52 -3 0 1 6 8 14 7 8 15 13 18 11
3 -2 21 23 40 56 19 32 40 59 47 59 7 0 20 -15 29 -32 9 -18 20 -38 25 -44 5
-6 11 -62 13 -125 4 -117 45 -340 72 -389 14 -26 57 -138 69 -178 3 -12 10
-20 14 -18 10 6 61 -38 61 -53 0 -6 4 -11 8 -11 4 0 16 -15 27 -32 19 -33 28
-46 53 -73 6 -7 12 -18 12 -24 0 -6 3 -11 8 -11 4 0 23 -24 42 -53 19 -28 40
-55 45 -59 7 -5 7 -8 0 -8 -6 0 -6 -3 1 -8 16 -11 164 -212 164 -223 0 -5 5
-9 10 -9 6 0 16 -12 23 -27 6 -15 19 -35 28 -44 9 -9 28 -54 43 -100 15 -46
30 -91 33 -99 4 -8 7 -17 8 -20 1 -3 7 -18 14 -35 7 -16 19 -48 27 -69 8 -22
36 -78 62 -124 26 -47 58 -105 72 -131 13 -25 33 -52 42 -59 10 -7 16 -18 13
-23 -4 -5 1 -12 9 -15 8 -3 18 -16 22 -27 9 -31 61 -103 112 -155 23 -24 42
-46 42 -49 0 -2 14 -16 31 -30 28 -24 52 -62 54 -88 0 -5 3 -14 6 -20 11 -18
43 -120 41 -128 -1 -5 2 -6 7 -3 10 6 76 -124 86 -169 9 -44 42 -152 92 -305
25 -74 46 -144 49 -155 4 -19 16 -56 34 -100 37 -92 60 -161 75 -225 10 -41
37 -115 60 -165 24 -49 55 -121 70 -160 15 -38 33 -83 40 -100 7 -16 18 -48
25 -69 7 -22 21 -54 31 -71 20 -34 151 -354 151 -370 1 -23 -14 -189 -17 -195
-1 -3 -6 -36 -10 -75 -3 -38 -8 -79 -11 -90 -3 -11 -7 -33 -9 -50 -2 -16 -4
-30 -5 -30 -2 0 -8 -40 -14 -90 -13 -116 -17 -169 -21 -319 -5 -154 -8 -193
-21 -266 -2 -14 -6 -63 -9 -110 -3 -47 -8 -93 -11 -103 -3 -10 -7 -31 -9 -47
-2 -16 -8 -46 -14 -67 -5 -21 -12 -63 -15 -93 -4 -30 -13 -92 -22 -138 -8 -45
-17 -111 -20 -145 -5 -81 -30 -264 -40 -299 -3 -9 -7 -26 -9 -37 -3 -12 -7
-31 -10 -43 -3 -13 -7 -40 -10 -62 -3 -21 -12 -68 -21 -105 -8 -36 -17 -77
-18 -91 -3 -22 -15 -29 -91 -58 -49 -17 -96 -38 -104 -46 -9 -8 -40 -27 -70
-42 -29 -16 -61 -33 -70 -38 -9 -5 -43 -43 -76 -84 -33 -41 -70 -86 -82 -99
-13 -13 -23 -26 -23 -29 0 -3 -18 -32 -40 -66 -34 -50 -68 -114 -75 -138 0 -3
-8 -19 -17 -36 -9 -17 -20 -53 -23 -80 -7 -48 -6 -51 42 -109 84 -104 105
-120 186 -144 70 -20 100 -22 436 -27 326 -5 366 -4 406 12 38 14 59 15 128 8
45 -4 120 -8 167 -8 77 0 93 3 167 37 46 21 106 45 135 54 103 30 159 69 300
205 l136 133 45 140 c61 186 85 328 99 575 9 158 9 253 -1 415 -8 142 -9 254
-3 345 5 74 8 162 6 195 -4 101 -15 235 -25 331 l-10 92 47 143 c60 185 105
311 116 325 5 7 10 20 12 30 3 11 16 54 30 98 14 43 26 86 26 95 0 9 16 61 36
116 19 55 38 109 40 120 3 11 8 27 11 35 3 8 7 21 9 28 1 8 6 21 10 30 4 9 8
26 9 37 1 11 8 58 15 105 6 47 13 99 15 115 2 17 6 39 8 50 3 11 8 49 12 85
12 104 30 244 41 305 2 11 6 38 9 60 3 22 7 51 10 65 3 14 8 47 10 74 3 28 7
52 9 54 2 2 18 4 35 4 17 1 28 5 24 11 -3 6 -2 7 4 4 6 -4 28 2 50 13 22 10
49 19 59 19 10 -1 39 2 64 5 25 4 56 8 70 10 14 2 52 11 85 21 83 24 153 22
288 -11 4 -1 8 -2 10 -3 1 -2 13 -4 27 -7 14 -2 32 -7 40 -10 8 -4 24 -8 35
-9 11 -2 72 -11 135 -20 63 -9 124 -18 135 -19 11 -2 36 -8 55 -14 19 -6 51
-13 70 -16 19 -2 42 -7 50 -10 9 -4 40 -8 70 -10 30 -2 66 -6 80 -9 23 -5 96
-14 175 -23 53 -6 157 -13 280 -19 66 -3 149 -8 185 -11 36 -3 189 -7 340 -9
217 -3 295 -1 370 11 52 9 121 17 152 18 32 0 58 3 58 6 0 3 42 6 93 7 50 1
112 4 137 6 25 3 77 8 115 12 119 12 220 37 355 86 112 41 222 85 268 107 48
23 57 25 100 14 26 -6 63 -14 82 -17 19 -3 54 -13 78 -21 23 -7 51 -14 60 -14
10 0 22 -4 28 -9 5 -5 22 -11 38 -13 29 -3 42 -19 88 -108 7 -14 16 -27 19
-30 4 -3 15 -22 25 -42 11 -21 65 -129 120 -240 56 -112 110 -225 120 -253 10
-27 26 -63 36 -80 10 -16 23 -41 30 -55 7 -14 27 -48 45 -77 26 -41 132 -247
132 -256 0 -8 47 -105 85 -176 25 -46 63 -130 85 -186 22 -56 48 -122 59 -146
51 -112 122 -278 122 -284 0 -3 11 -18 24 -32 28 -30 137 -239 156 -298 12
-37 40 -92 96 -190 13 -22 27 -47 31 -55 3 -8 17 -28 29 -45 12 -16 33 -50 47
-75 13 -25 32 -59 43 -77 19 -32 19 -33 0 -65 -11 -18 -22 -35 -25 -38 -14
-12 -68 -88 -85 -120 -30 -56 -129 -224 -141 -237 -58 -65 -121 -123 -134
-123 -22 -1 -52 -25 -43 -35 4 -5 2 -5 -5 -1 -7 4 -29 -2 -50 -13 -21 -10 -41
-18 -44 -17 -5 1 -81 -67 -133 -120 -12 -11 -37 -26 -56 -34 -19 -8 -51 -23
-70 -35 -42 -26 -130 -66 -130 -59 0 3 -17 -11 -37 -31 -20 -19 -48 -38 -62
-42 -14 -3 -30 -8 -36 -12 -5 -3 -32 -13 -58 -22 -46 -15 -50 -15 -65 1 -9 10
-33 25 -52 35 -19 10 -43 25 -53 33 -13 12 -41 17 -95 18 -203 4 -340 -32
-385 -101 -12 -19 -30 -35 -39 -35 -9 0 -20 -5 -23 -10 -3 -6 -32 -28 -63 -49
-31 -22 -73 -62 -92 -91 -19 -28 -50 -66 -68 -85 -76 -82 -109 -218 -77 -320
10 -31 24 -55 31 -55 8 0 13 -5 11 -11 -5 -23 72 -50 162 -59 50 -5 95 -11
100 -15 13 -7 163 -26 261 -31 159 -10 176 -13 238 -42 53 -25 78 -31 180 -37
64 -3 144 -13 177 -20 33 -7 119 -13 190 -13 72 -1 171 -4 220 -7 51 -4 120
-2 160 5 39 6 97 15 130 20 33 5 78 12 99 16 22 3 46 12 53 20 8 8 23 14 34
14 10 0 19 4 19 8 0 5 27 17 60 27 33 10 65 24 71 32 6 7 17 13 24 13 7 0 32
20 56 45 24 25 47 45 51 45 20 0 178 157 178 176 0 11 69 72 120 107 44 29 73
57 111 107 10 14 32 42 49 64 16 21 30 42 30 47 0 4 14 23 30 41 16 18 30 36
30 41 0 9 52 69 116 131 52 53 154 186 154 202 0 15 110 162 166 220 91 97
124 140 124 164 0 6 11 27 24 48 12 20 25 42 26 47 4 11 6 14 47 65 34 42 70
97 108 165 15 28 35 58 43 68 8 9 12 17 8 17 -8 0 51 110 63 120 4 3 22 37 41
75 33 66 35 76 36 175 0 58 -3 110 -6 115 -4 6 -10 19 -13 30 -20 73 -59 156
-87 186 -17 18 -43 51 -56 72 -13 20 -29 37 -36 37 -6 0 -9 3 -5 6 3 3 -4 23
-16 43 -13 20 -31 53 -42 74 -11 22 -30 50 -42 63 -13 14 -23 29 -23 34 0 4
-13 23 -29 42 -17 18 -38 43 -49 55 -13 16 -22 52 -31 125 -7 57 -34 193 -61
303 -49 199 -55 229 -65 295 -26 166 -57 332 -89 470 -13 58 -27 128 -31 155
-3 28 -27 124 -52 215 -25 91 -46 170 -47 177 -1 7 -5 16 -9 19 -4 4 -7 14 -7
23 0 9 -7 30 -16 46 -23 42 -55 134 -61 173 -3 18 -9 35 -14 38 -5 3 -9 14 -9
24 0 11 -8 34 -18 52 -18 32 -35 81 -37 105 0 6 -4 15 -8 19 -14 14 -7 24 18
22 14 -1 25 -6 25 -9 0 -4 22 -12 49 -18 51 -11 84 -27 191 -96 36 -23 85 -52
110 -66 25 -13 46 -27 48 -31 2 -5 8 -8 13 -8 6 0 37 -18 69 -40 32 -22 64
-40 69 -40 6 0 11 -4 11 -9 0 -15 91 -71 225 -141 66 -34 134 -72 150 -84 17
-13 55 -40 85 -61 30 -21 57 -41 60 -45 3 -4 39 -29 80 -55 68 -43 208 -142
220 -155 3 -3 18 -14 34 -24 29 -18 61 -45 121 -101 18 -16 60 -55 95 -85 34
-30 78 -70 98 -88 21 -19 63 -50 95 -69 31 -20 57 -40 57 -44 0 -5 5 -9 11 -9
15 0 94 -57 139 -100 125 -119 217 -188 324 -242 74 -37 159 -104 270 -213 12
-11 38 -32 58 -45 21 -14 38 -28 38 -32 0 -5 5 -8 10 -8 10 0 62 -33 86 -55 6
-6 41 -30 78 -54 36 -24 66 -47 66 -52 0 -5 9 -9 20 -9 11 0 20 -4 20 -9 0
-19 430 -297 475 -307 23 -5 206 -86 278 -123 42 -22 77 -38 77 -34 0 3 6 1
13 -4 6 -6 30 -16 52 -23 22 -7 45 -17 51 -22 7 -5 22 -11 34 -13 12 -2 33
-11 46 -20 13 -8 28 -15 34 -15 6 0 17 -6 23 -12 24 -25 77 -96 77 -103 0 -3
16 -23 35 -43 19 -20 35 -40 35 -44 0 -12 28 -43 154 -169 83 -83 154 -143
232 -195 104 -69 204 -148 212 -167 4 -8 62 -63 122 -116 19 -17 41 -31 48
-31 6 0 12 -3 13 -7 6 -42 8 -81 9 -151 1 -46 10 -118 20 -160 19 -76 21 -240
5 -372 -6 -46 -8 -71 -20 -195 -5 -49 -17 -91 -41 -142 -28 -57 -36 -86 -38
-142 -3 -76 -25 -118 -55 -105 -9 3 -25 7 -36 8 -11 2 -31 9 -45 16 -27 14
-75 23 -130 22 -52 0 -130 -13 -136 -23 -3 -5 -14 -9 -26 -9 -39 0 -84 -31
-183 -128 -112 -108 -136 -139 -156 -197 -7 -22 -17 -45 -21 -51 -12 -16 -28
-145 -23 -183 2 -18 10 -40 17 -48 10 -12 9 -17 -5 -25 -20 -10 -14 -28 9 -28
9 0 12 5 8 13 -3 6 8 -3 26 -21 17 -18 43 -40 57 -49 25 -16 26 -16 45 7 18
23 21 23 32 8 7 -9 24 -19 39 -22 15 -2 32 -8 39 -12 15 -10 118 -12 118 -3 0
15 268 42 285 28 11 -8 182 -5 223 5 12 3 54 -5 93 -17 65 -21 89 -23 293 -21
128 0 238 5 261 12 22 6 56 14 75 17 19 3 40 11 47 17 7 6 13 8 13 5 0 -4 18
0 40 8 22 8 40 11 40 7 0 -4 4 -2 8 4 4 6 32 23 64 38 34 16 67 41 84 64 15
20 32 40 37 43 5 3 8 9 7 13 0 3 16 41 36 84 20 42 40 84 43 92 9 20 6 242 -4
360 -9 113 -11 159 -20 479 -3 143 -12 271 -20 310 -7 36 -18 102 -24 146 -6
44 -14 98 -17 120 -3 22 -7 96 -9 165 -1 69 -6 163 -10 210 -3 47 -8 155 -10
240 -7 275 -13 394 -23 421 -14 36 -32 131 -38 204 -6 62 -50 226 -64 235 -4
3 -10 19 -11 35 -2 17 -7 32 -10 35 -4 3 -9 28 -12 55 -7 66 -13 82 -56 135
-20 24 -36 47 -36 50 -3 24 -106 150 -123 150 -4 0 -28 11 -55 24 -26 14 -62
28 -80 32 -39 9 -38 9 -57 16 -8 3 -36 13 -62 23 -27 9 -48 20 -48 25 0 5 -17
19 -37 31 -35 22 -117 96 -283 259 -37 36 -82 79 -101 97 -58 54 -116 119
-129 143 -20 37 -102 142 -145 186 -74 75 -141 152 -155 181 -8 15 -22 39 -31
53 -9 14 -35 59 -57 100 -21 41 -53 95 -69 120 -17 25 -34 55 -37 68 -4 12
-12 20 -17 17 -5 -4 -9 -1 -9 5 0 6 -18 40 -40 76 -22 36 -40 70 -40 74 0 5
-6 15 -13 22 -16 15 -25 32 -89 161 -27 53 -48 101 -48 107 0 7 -6 24 -14 38
-8 15 -31 61 -51 102 -21 41 -52 98 -70 125 -17 28 -47 84 -65 125 -17 41 -41
95 -52 120 -10 25 -24 52 -29 60 -5 8 -21 38 -34 65 -14 28 -29 57 -35 65 -5
8 -21 40 -35 70 -14 30 -31 64 -38 75 -80 128 -113 198 -172 370 -27 77 -56
151 -65 165 -15 22 -55 105 -80 165 -4 11 -40 87 -79 168 -64 132 -123 286
-120 311 0 5 -4 12 -9 15 -6 3 -12 17 -13 31 -2 14 -7 27 -10 30 -17 15 -81
172 -115 283 -8 26 -24 69 -35 95 -12 26 -22 54 -24 62 -2 8 -18 48 -34 89
-17 40 -31 75 -31 78 0 3 16 -19 36 -48 21 -30 59 -78 86 -106 27 -29 60 -79
74 -110 14 -32 31 -71 39 -86 8 -16 15 -35 15 -43 0 -8 4 -14 9 -14 9 0 54
-84 51 -96 -1 -4 3 -10 8 -13 5 -3 27 -37 47 -76 21 -38 51 -95 67 -124 17
-30 31 -62 33 -70 2 -9 16 -45 33 -81 53 -116 64 -142 87 -209 70 -206 95
-263 162 -371 11 -19 38 -69 59 -110 54 -106 160 -231 229 -268 36 -20 24 -17
118 -26 72 -8 80 -7 112 15 59 41 90 130 99 283 4 73 1 86 -31 160 -19 45 -52
116 -73 159 -22 42 -37 77 -35 77 3 0 0 12 -6 27 -10 27 -13 52 -24 187 -4 43
-9 88 -11 100 -2 12 -6 44 -8 72 -6 66 -15 119 -32 174 -7 25 -15 59 -17 75
-5 36 -24 110 -37 145 -5 14 -12 37 -14 53 -3 15 -16 53 -30 83 -14 31 -23 60
-20 65 3 5 1 9 -5 9 -9 0 -28 43 -20 46 2 1 -4 11 -14 21 -9 11 -14 23 -11 26
4 4 3 12 -3 19 -5 7 -25 49 -43 93 -19 44 -51 109 -72 144 -21 34 -38 66 -38
69 0 3 -6 13 -14 21 -7 9 -21 38 -31 64 -10 26 -40 80 -67 118 -26 39 -48 74
-48 78 0 4 -16 13 -35 21 -19 8 -35 16 -35 20 0 3 -15 13 -32 23 -18 10 -71
56 -117 102 -47 47 -88 85 -93 85 -16 0 -87 58 -80 65 4 5 1 5 -6 1 -7 -4 -38
5 -69 20 -59 28 -193 112 -205 129 -4 6 -8 7 -8 2 0 -12 -82 43 -122 82 -139
136 -179 172 -199 181 -49 21 -149 81 -173 103 -21 19 -166 99 -186 103 -3 0
-16 4 -30 7 -14 4 -34 9 -45 11 -39 8 -65 18 -65 27 0 5 -5 9 -10 9 -6 0 -35
18 -65 40 -30 22 -61 40 -70 40 -9 0 -25 5 -37 11 -11 6 -36 12 -56 14 -21 2
-42 3 -49 4 -6 1 -18 7 -25 14 -36 34 -229 116 -345 146 -79 21 -163 50 -280
97 -65 26 -134 51 -153 55 -19 4 -44 10 -55 13 -52 14 -203 46 -239 51 -23 3
-77 10 -121 15 -44 6 -100 12 -125 14 -25 2 -76 7 -115 11 -38 4 -124 9 -190
11 -66 2 -145 6 -175 9 -48 3 -181 -7 -260 -21 -28 -4 -269 -5 -340 0 -42 3
-137 -4 -272 -18 -105 -11 -162 -16 -253 -21 -147 -9 -290 -29 -495 -69 -78
-15 -191 -29 -247 -30 -18 -1 -33 -4 -33 -8 0 -4 -12 -7 -27 -7 -29 0 -55 -4
-138 -21 -27 -6 -75 -13 -105 -15 -30 -2 -87 -7 -127 -10 -39 -4 -84 -8 -100
-10 -15 -1 -39 -5 -53 -8 -14 -4 -38 -9 -55 -12 -16 -2 -55 -9 -85 -15 -30 -6
-120 -12 -200 -15 -174 -6 -239 -10 -265 -18 -38 -12 -100 -18 -175 -16 -225
5 -462 -2 -560 -16 -14 -2 -43 -6 -65 -9 -38 -6 -333 -15 -475 -16 -36 0 -78
-1 -95 -1 -16 -1 -45 -1 -62 0 -18 1 -58 2 -88 4 -30 1 -55 5 -55 8 0 4 -7 10
-16 13 -10 4 -13 2 -8 -6 8 -12 -45 -9 -291 18 -33 3 -74 7 -92 8 -17 0 -35 4
-39 9 -4 4 -18 7 -32 7 -13 0 -33 10 -44 23 -15 17 -18 18 -14 5 6 -21 -1 -22
-34 -3 -14 7 -37 11 -51 8 -15 -3 -30 0 -33 6 -4 6 -18 8 -32 5 -13 -3 -30 -2
-37 4 -6 6 -31 9 -54 7 -23 -1 -54 3 -68 11 -15 8 -25 9 -25 2 0 -9 -64 -6
-130 6 -14 3 -39 7 -56 10 -17 3 -57 13 -90 24 -32 11 -79 23 -104 26 -69 9
-83 12 -115 26 -16 7 -52 21 -80 32 -27 12 -59 25 -70 29 -11 5 -29 11 -40 12
-30 6 -54 17 -123 59 -34 21 -65 38 -68 38 -8 0 -143 66 -169 83 -10 6 -41 27
-67 45 -26 17 -52 32 -56 32 -5 0 -29 10 -53 23 -60 31 -126 54 -174 61 -120
17 -293 98 -447 210 -54 39 -130 91 -168 115 -39 25 -74 50 -78 57 -8 13 -99
84 -108 84 -3 0 -15 11 -26 25 -11 14 -26 25 -34 25 -8 0 -14 3 -14 8 0 4 -41
34 -90 66 -82 54 -96 68 -156 157 -45 67 -86 113 -127 146 -34 26 -113 100
-176 163 -106 106 -123 118 -190 145 -41 15 -109 50 -150 76 -82 52 -129 77
-231 118 -79 33 -107 49 -209 122 -47 33 -99 61 -127 68 -27 7 -94 34 -149 61
-154 75 -259 120 -280 120 -11 1 -31 7 -45 15 -14 8 -37 14 -51 15 -17 0 -52
22 -100 61 -68 55 -167 126 -243 173 -42 25 -182 96 -192 96 -17 0 -112 50
-125 66 -8 10 -45 32 -84 50 -59 27 -117 61 -188 109 -13 9 -13 25 0 135 7 69
19 140 25 159 6 20 11 120 11 229 1 188 1 194 -21 210 -17 14 -22 28 -24 72
-2 88 -46 138 -86 98z"/>
<path d="M7280 10136 c0 -2 7 -7 16 -10 8 -3 12 -2 9 4 -6 10 -25 14 -25 6z"/>
</g>
</svg>
