<?xml version="1.0" standalone="no"?>
<!DOCTYPE svg PUBLIC "-//W3C//DTD SVG 20010904//EN"
 "http://www.w3.org/TR/2001/REC-SVG-20010904/DTD/svg10.dtd">
<svg version="1.0" xmlns="http://www.w3.org/2000/svg"
 width="1536.000000pt" height="479.000000pt" viewBox="0 0 1536.000000 479.000000"
 preserveAspectRatio="xMidYMid meet">
<metadata>
Created by potrace 1.16, written by Peter Selinger 2001-2019
</metadata>
<g transform="translate(0.000000,479.000000) scale(0.100000,-0.100000)"
fill="#000000" stroke="none">
<path d="M1799 4775 c-4 -3 -157 -10 -340 -15 -387 -11 -436 -19 -714 -116
-88 -31 -238 -83 -333 -115 -94 -33 -202 -73 -239 -91 -79 -37 -149 -98 -158
-137 -7 -31 8 -77 33 -105 14 -15 16 -34 14 -101 -6 -138 27 -195 114 -195
l44 0 0 -58 c0 -32 5 -85 11 -117 11 -62 53 -155 69 -155 20 0 41 64 51 152
14 122 21 138 60 138 104 0 273 -77 363 -164 93 -91 124 -174 93 -249 -17 -39
-42 -48 -61 -22 -8 11 -40 16 -131 19 -66 3 -144 11 -172 19 -39 10 -53 11
-53 2 0 -24 60 -103 117 -154 l59 -54 -18 -36 c-22 -43 -22 -60 -2 -111 18
-44 46 -63 109 -74 22 -4 67 -23 100 -41 42 -23 89 -38 150 -49 66 -12 119
-30 206 -71 81 -39 137 -59 183 -66 45 -6 95 -24 158 -55 51 -26 87 -40 80
-32 -6 8 -30 23 -52 33 -22 10 -39 20 -37 22 8 7 120 -38 247 -101 74 -37 126
-59 115 -50 -11 9 -56 34 -100 56 -77 38 -78 40 -36 34 65 -10 172 -63 301
-151 63 -43 109 -71 101 -62 -7 9 -44 37 -82 62 -38 25 -69 48 -69 50 0 3 29
-6 65 -19 102 -37 156 -73 440 -291 50 -38 81 -59 70 -46 -11 13 -66 58 -124
102 -57 43 -99 79 -94 79 19 0 123 -69 194 -129 41 -34 108 -79 149 -98 88
-42 118 -66 183 -142 60 -70 90 -126 83 -155 -3 -13 -20 -40 -37 -62 -17 -21
-66 -91 -109 -154 -105 -157 -253 -354 -312 -416 -81 -86 -116 -96 -358 -104
-195 -7 -210 -9 -305 -40 -56 -18 -133 -35 -175 -39 l-75 -6 -14 -42 c-13 -36
-13 -48 0 -89 13 -41 19 -49 49 -57 20 -5 160 -7 318 -5 254 5 284 4 289 -11
20 -55 63 -64 158 -31 69 24 113 25 162 5 90 -38 141 -10 235 130 86 127 133
171 315 291 193 127 265 181 398 298 61 53 137 110 169 127 54 27 61 28 69 13
16 -29 0 -173 -36 -329 -20 -82 -41 -199 -47 -260 -13 -127 -37 -187 -104
-261 l-42 -47 -94 -8 c-52 -4 -123 -17 -158 -28 -35 -12 -105 -25 -156 -29
-58 -6 -102 -15 -118 -26 -29 -19 -108 -35 -203 -41 -89 -6 -144 -53 -86 -73
16 -6 51 -30 76 -53 43 -40 50 -43 97 -40 28 1 104 -8 169 -20 106 -20 123
-21 173 -9 45 11 67 11 107 2 65 -15 117 -15 260 2 116 14 170 11 234 -14 47
-18 86 -5 135 46 39 38 45 51 46 89 1 28 14 69 38 117 27 55 39 95 45 154 8
69 18 97 80 219 38 77 90 188 115 246 25 59 58 128 73 154 l28 47 50 -6 c32
-4 97 -29 182 -71 73 -35 149 -67 170 -70 27 -4 14 4 -47 29 -66 28 -76 34
-45 29 64 -9 131 -38 270 -114 132 -72 234 -119 257 -119 7 0 -47 28 -120 62
-73 33 -131 62 -129 64 7 7 143 -44 302 -113 140 -61 296 -123 311 -123 3 0 2
5 -1 11 -4 5 22 -4 57 -21 34 -17 54 -24 43 -15 -19 16 -18 16 20 9 70 -12
176 -55 338 -136 158 -78 264 -124 273 -116 2 3 -56 30 -128 62 -259 111 -240
111 92 2 140 -46 289 -92 330 -102 l75 -18 -140 -13 c-150 -14 -234 -11 -290
12 -46 20 -74 19 -129 -6 -64 -28 -220 -56 -350 -63 -98 -5 -113 -8 -155 -35
-61 -39 -121 -53 -266 -60 l-120 -6 1 -32 c2 -25 -2 -33 -19 -35 -25 -3 -34
-33 -17 -53 9 -10 32 -15 74 -15 56 0 64 -3 88 -30 25 -29 30 -30 105 -30 103
0 182 -20 234 -58 51 -38 68 -39 198 -12 85 17 103 18 142 7 40 -12 48 -12 84
7 37 19 54 21 220 18 146 -3 211 1 342 20 l163 22 82 -27 c69 -22 90 -25 123
-17 66 16 101 12 208 -24 137 -45 254 -60 487 -61 166 0 202 3 242 18 60 23
109 79 167 187 l44 82 43 -5 c41 -4 64 -14 164 -68 36 -19 59 -24 117 -23 65
0 74 3 107 32 37 32 76 46 161 57 90 11 159 27 190 43 17 8 65 47 107 87 103
97 119 103 269 109 80 2 138 10 161 19 20 9 72 49 115 89 88 82 166 137 248
174 42 19 81 27 163 33 67 5 123 15 145 26 48 22 144 126 182 195 40 74 41
160 3 275 -28 84 -44 155 -35 155 4 0 16 -33 27 -73 27 -94 42 -126 33 -72 -3
22 -21 81 -39 130 -39 107 -57 178 -41 168 7 -4 8 0 3 12 -10 28 -107 517
-103 521 6 7 109 -32 177 -66 81 -41 139 -79 213 -143 31 -27 57 -44 57 -38 0
16 26 1 82 -49 26 -23 52 -39 57 -35 6 3 23 -9 38 -27 61 -70 92 -103 93 -96
0 5 -16 26 -36 48 -20 22 -34 40 -31 40 2 0 24 -11 48 -24 24 -14 109 -50 188
-81 156 -62 192 -81 264 -143 46 -40 79 -55 147 -66 38 -6 296 -163 415 -252
39 -28 129 -85 200 -126 72 -41 299 -191 505 -333 719 -497 1295 -850 1535
-940 97 -37 230 -61 494 -91 124 -13 264 -32 311 -41 171 -32 368 -26 400 12
9 11 -1 20 -57 48 -116 59 -336 141 -633 237 -286 93 -490 168 -630 232 -268
124 -592 380 -1400 1109 -689 620 -959 846 -1302 1089 -114 80 -171 128 -121
102 33 -18 73 -32 73 -26 0 3 -38 23 -85 45 -82 37 -110 57 -62 44 12 -3 -34
24 -103 60 -261 139 -446 289 -543 441 -81 128 -223 258 -558 509 -241 182
-334 242 -493 319 -171 84 -220 99 -666 211 -690 172 -866 201 -1407 235 -216
13 -783 14 -1138 1 -417 -16 -1068 -13 -1275 4 -234 20 -462 20 -570 0 -47 -9
-161 -36 -255 -60 -93 -24 -217 -50 -275 -59 -376 -55 -835 -13 -1331 120
-248 67 -310 76 -519 81 -107 3 -198 2 -201 -2z m7315 -3339 c145 -52 152 -90
25 -135 -30 -11 -79 -33 -110 -50 -91 -50 -182 -84 -425 -159 -127 -39 -257
-82 -289 -96 -75 -34 -81 -33 -49 9 47 62 144 125 350 226 110 54 223 115 249
136 61 46 144 93 167 93 9 0 46 -11 82 -24z"/>
<path d="M5705 1071 c17 -17 207 -111 224 -111 9 1 -6 13 -34 27 -80 42 -201
95 -190 84z"/>
</g>
</svg>
