<?xml version="1.0" standalone="no"?>
<!DOCTYPE svg PUBLIC "-//W3C//DTD SVG 20010904//EN"
 "http://www.w3.org/TR/2001/REC-SVG-20010904/DTD/svg10.dtd">
<svg version="1.0" xmlns="http://www.w3.org/2000/svg"
 width="1536.000000pt" height="1040.000000pt" viewBox="0 0 1536.000000 1040.000000"
 preserveAspectRatio="xMidYMid meet">
<metadata>
Created by potrace 1.16, written by Peter Selinger 2001-2019
</metadata>
<g transform="translate(0.000000,1040.000000) scale(0.100000,-0.100000)"
fill="#000000" stroke="none">
<path d="M4947 10389 c-232 -14 -333 -44 -585 -175 -172 -89 -313 -177 -423
-264 -46 -36 -216 -195 -378 -354 -163 -158 -323 -312 -356 -341 -121 -106
-357 -232 -868 -461 -384 -173 -652 -304 -792 -388 -142 -85 -202 -108 -285
-108 -84 0 -159 28 -259 98 -177 124 -187 129 -276 129 -65 0 -89 -5 -129 -25
-68 -35 -142 -119 -161 -182 -34 -116 -13 -288 66 -542 40 -126 52 -181 56
-252 7 -114 -6 -156 -89 -290 -117 -191 -203 -380 -289 -639 -39 -120 -43
-140 -47 -257 -5 -173 10 -241 122 -538 123 -325 123 -324 91 -429 -13 -46
-54 -199 -91 -340 -83 -326 -110 -406 -186 -552 -67 -129 -79 -182 -58 -259
15 -57 45 -85 211 -196 229 -154 301 -177 404 -130 l58 26 64 -57 c150 -133
195 -157 287 -151 44 3 87 16 155 47 51 23 105 44 121 47 17 4 72 -8 151 -34
180 -58 247 -74 283 -66 134 29 376 194 710 487 168 147 194 167 213 167 13 0
12 -4 -2 -27 -70 -111 -202 -259 -625 -703 -191 -201 -380 -402 -418 -447
-161 -187 -241 -329 -605 -1073 -251 -515 -360 -695 -506 -840 -53 -53 -109
-98 -146 -117 -149 -78 -185 -128 -185 -256 0 -87 13 -126 65 -198 25 -33 53
-57 93 -76 l57 -28 225 0 c261 0 255 -1 495 115 250 122 391 227 725 540 337
315 330 311 675 452 314 128 645 298 840 432 455 312 550 404 840 816 49 69
149 203 222 298 166 215 242 325 327 473 79 139 93 154 129 138 35 -16 74 -73
158 -231 39 -73 85 -151 101 -173 16 -22 47 -65 69 -95 58 -79 159 -249 217
-365 99 -200 197 -495 291 -885 91 -376 96 -407 96 -660 -1 -209 -2 -230 -23
-290 -76 -215 -255 -383 -451 -425 -40 -8 -176 -29 -303 -45 -127 -17 -251
-35 -276 -41 -57 -12 -119 -57 -164 -117 -83 -110 -104 -198 -59 -246 46 -49
82 -51 781 -50 772 0 1006 14 1265 74 90 21 73 6 233 205 379 470 624 1024
786 1775 72 335 88 487 111 1090 18 483 24 575 40 597 11 15 20 14 116 -16
189 -59 623 -242 658 -276 11 -11 0 -43 -77 -207 -108 -232 -168 -388 -222
-578 -91 -323 -158 -689 -230 -1270 -48 -380 -67 -416 -316 -570 -214 -132
-294 -201 -310 -264 -5 -23 4 -36 72 -104 123 -123 163 -136 625 -211 324 -53
506 -78 695 -96 181 -17 436 -20 515 -5 120 23 220 102 287 227 17 33 55 121
82 194 59 156 139 313 270 529 346 573 584 912 813 1157 130 139 396 359 587
486 144 96 228 134 326 146 43 5 111 17 149 27 39 9 107 17 152 18 110 2 120
-7 210 -177 102 -193 248 -425 713 -1127 439 -664 522 -795 599 -948 100 -198
114 -292 56 -367 -38 -51 -88 -71 -266 -106 -267 -53 -339 -88 -353 -175 -17
-98 46 -191 159 -234 76 -29 165 -31 375 -8 85 10 301 29 480 43 886 69 1044
120 1227 393 84 126 116 218 193 566 l31 140 -11 305 c-14 405 -34 797 -70
1356 -16 253 -34 541 -40 640 -29 483 -98 956 -196 1349 -51 203 -84 301 -204
601 -161 404 -219 535 -360 820 -168 340 -276 519 -488 810 -159 218 -243 349
-521 814 -147 246 -287 474 -311 507 -23 32 -91 106 -150 164 -264 259 -598
475 -866 561 -116 37 -163 67 -273 173 -140 135 -215 196 -341 279 -171 113
-373 203 -610 272 -220 63 -244 66 -645 75 -845 20 -1416 11 -1997 -31 -390
-27 -633 -28 -856 0 -206 25 -288 26 -402 5 -132 -25 -413 -22 -512 4 -104 28
-133 44 -299 169 -275 207 -502 322 -696 352 -79 12 -366 12 -566 0z"/>
</g>
</svg>
