<?xml version="1.0" standalone="no"?>
<!DOCTYPE svg PUBLIC "-//W3C//DTD SVG 20010904//EN"
 "http://www.w3.org/TR/2001/REC-SVG-20010904/DTD/svg10.dtd">
<svg version="1.0" xmlns="http://www.w3.org/2000/svg"
 width="1767.000000pt" height="1479.000000pt" viewBox="0 0 1767.000000 1479.000000"
 preserveAspectRatio="xMidYMid meet">
<metadata>
Created by potrace 1.16, written by Peter Selinger 2001-2019
</metadata>
<g transform="translate(0.000000,1479.000000) scale(0.100000,-0.100000)"
fill="#000000" stroke="none">
<path d="M3307 14772 c-43 -29 -74 -79 -103 -166 -36 -111 -42 -184 -49 -606
-8 -451 -16 -548 -61 -778 -8 -40 -14 -110 -14 -157 0 -70 6 -100 35 -182 42
-118 58 -220 44 -280 -10 -48 -115 -209 -188 -289 -76 -83 -218 -271 -298
-394 -20 -30 -63 -95 -96 -145 -103 -155 -124 -222 -137 -435 -10 -175 -22
-233 -64 -325 -27 -59 -48 -84 -123 -153 -50 -46 -101 -91 -114 -99 -13 -9
-71 -62 -129 -117 -188 -180 -403 -373 -505 -454 -55 -44 -148 -126 -207 -183
-93 -91 -108 -111 -123 -159 -30 -96 -18 -118 153 -287 206 -202 263 -233 434
-233 57 0 69 -3 65 -14 -3 -8 -9 -32 -12 -53 -3 -21 -14 -74 -25 -118 -10 -44
-22 -93 -25 -108 -4 -19 -21 -38 -60 -62 -30 -20 -84 -71 -123 -117 -38 -46
-79 -92 -92 -103 -12 -11 -41 -47 -63 -80 -22 -33 -63 -88 -91 -121 -76 -92
-175 -227 -229 -311 -26 -41 -62 -94 -81 -116 -18 -23 -44 -62 -56 -87 -13
-25 -36 -64 -52 -88 -16 -23 -45 -77 -65 -120 -19 -42 -41 -84 -49 -93 -20
-22 -113 -196 -207 -384 -44 -88 -87 -171 -97 -185 -10 -14 -57 -108 -105
-210 -49 -102 -108 -214 -133 -250 -52 -77 -109 -193 -151 -307 -17 -46 -37
-93 -45 -105 -8 -13 -24 -55 -35 -94 -50 -170 -7 -194 156 -87 236 156 453
357 669 620 34 41 87 97 118 124 31 28 77 80 102 115 25 35 59 73 75 85 27 19
140 148 286 328 73 88 94 119 153 220 40 68 45 72 58 55 21 -29 60 -120 68
-159 10 -53 38 -54 59 0 7 19 7 19 18 -2 16 -36 44 -29 56 15 6 20 11 46 11
57 1 19 1 19 14 3 18 -24 36 -22 72 10 53 47 66 116 40 225 -7 31 -11 57 -9
57 12 0 74 -79 85 -107 12 -33 42 -45 51 -20 2 6 2 59 0 117 -2 71 0 98 6 85
5 -11 10 -37 10 -59 1 -60 30 -159 54 -184 12 -13 52 -44 90 -69 37 -24 89
-67 115 -95 26 -27 97 -94 159 -148 128 -113 165 -129 211 -91 15 12 48 35 74
52 40 25 50 39 62 80 9 28 26 63 40 79 13 16 27 44 31 61 7 29 8 29 20 12 12
-18 35 -91 69 -223 7 -30 21 -82 31 -115 10 -38 14 -75 10 -102 -7 -48 5 -79
35 -88 11 -4 20 -15 20 -26 0 -67 93 -161 179 -181 49 -11 55 -10 67 7 18 24
17 40 -1 143 -9 53 -33 125 -63 195 -37 83 -51 129 -55 179 -4 37 -18 114 -33
171 -15 57 -24 111 -21 120 13 33 142 48 218 26 76 -23 84 26 18 106 -39 47
-105 105 -120 105 -4 0 -19 4 -33 10 l-26 9 22 38 c13 21 50 73 83 117 101
131 105 138 156 241 27 55 49 92 49 82 0 -9 4 -25 10 -35 5 -9 23 -51 40 -92
16 -42 51 -111 76 -155 25 -44 57 -101 70 -127 26 -51 52 -62 61 -27 5 18 11
13 39 -32 19 -30 34 -60 34 -67 0 -8 8 -12 18 -10 14 3 17 14 15 67 l-2 64 25
-37 c21 -31 28 -35 40 -25 12 10 13 28 8 94 -6 79 -6 82 16 88 21 5 22 9 15
59 -8 59 -31 110 -80 178 -18 25 -38 61 -44 81 -6 20 -24 56 -39 80 -80 127
-132 239 -142 306 -5 37 -16 91 -24 118 -9 28 -25 83 -36 124 l-22 73 34 35
c18 19 67 60 108 91 41 31 98 79 125 107 61 61 141 90 277 101 77 6 91 4 131
-15 57 -28 85 -64 148 -195 39 -82 63 -117 110 -163 33 -32 83 -86 111 -119
27 -34 71 -77 96 -95 26 -18 137 -123 247 -233 231 -231 377 -366 543 -499 64
-52 163 -139 218 -193 95 -93 105 -106 157 -214 31 -63 75 -145 100 -182 24
-36 58 -108 76 -160 18 -51 48 -118 66 -148 59 -99 86 -160 106 -243 11 -45
35 -113 54 -152 66 -137 83 -183 94 -266 12 -79 11 -88 -9 -139 -25 -63 -82
-161 -106 -181 -9 -7 -59 -67 -112 -134 -53 -66 -107 -128 -120 -138 -22 -18
-145 -161 -187 -218 -53 -71 -183 -226 -286 -341 -63 -69 -149 -167 -192 -217
-43 -50 -95 -104 -115 -119 -65 -47 -296 -294 -349 -372 -28 -41 -94 -129
-147 -195 -134 -166 -321 -441 -378 -555 -44 -89 -133 -362 -172 -525 -9 -38
-41 -126 -70 -195 -30 -69 -68 -172 -85 -230 -17 -58 -45 -141 -60 -185 -16
-44 -50 -150 -76 -235 -25 -85 -55 -175 -66 -200 -12 -25 -31 -81 -44 -125
-41 -138 -86 -245 -133 -314 -44 -64 -80 -135 -195 -386 -81 -177 -97 -230
-97 -330 0 -77 2 -88 24 -110 34 -34 70 -40 148 -27 38 7 156 12 263 12 107 0
204 4 217 9 13 5 34 12 48 15 26 6 205 129 254 174 30 29 197 246 217 284 17
32 39 118 39 156 0 18 15 72 33 120 43 111 46 122 62 267 8 66 25 156 40 200
14 44 32 118 39 165 22 129 33 170 67 256 18 43 42 126 54 184 l21 105 50 8
c54 9 137 66 181 124 23 29 25 40 21 100 -3 52 -10 78 -31 110 -39 62 -41 81
-13 144 33 76 99 133 185 159 108 34 240 126 376 265 66 67 176 165 245 217
71 55 163 138 213 192 65 71 120 117 208 177 95 65 140 103 220 193 126 138
143 153 254 229 50 33 151 119 226 191 96 92 168 152 245 201 101 64 196 148
270 235 16 19 81 80 144 134 63 54 143 125 177 158 l61 59 18 -53 c9 -29 38
-96 65 -149 79 -158 108 -287 133 -584 15 -174 13 -289 -13 -865 -11 -219 2
-969 19 -1185 6 -78 6 -160 -1 -235 -5 -63 -12 -236 -14 -385 -5 -319 -8 -361
-40 -565 -13 -85 -28 -200 -33 -255 -7 -67 -18 -121 -35 -160 -14 -33 -28 -82
-32 -110 -4 -27 -15 -84 -25 -125 -10 -41 -26 -111 -35 -155 -41 -199 -57
-248 -100 -311 -24 -34 -50 -84 -59 -112 -9 -28 -30 -61 -47 -77 -38 -33 -73
-109 -89 -190 -6 -33 -18 -85 -26 -116 -30 -117 -7 -262 47 -301 25 -19 35
-19 225 -9 109 6 223 17 252 25 54 15 180 85 204 113 7 9 33 24 57 35 71 30
220 197 271 303 23 48 44 196 36 256 -26 202 -28 235 -21 389 5 91 9 248 10
350 3 237 36 515 84 705 11 44 22 118 26 165 3 47 12 128 20 180 8 52 17 172
20 265 17 513 25 685 35 735 7 30 10 91 7 135 -3 44 1 134 8 200 7 66 13 255
14 421 1 238 4 318 18 385 14 69 17 156 19 489 2 296 6 436 18 520 8 63 18
149 21 190 4 41 13 110 21 154 18 102 18 195 -2 511 -10 143 -14 277 -10 298
6 34 9 37 42 37 19 0 96 11 172 24 269 47 346 58 466 66 102 7 137 14 221 45
55 20 143 43 200 51 55 8 154 28 220 43 66 16 145 35 175 41 30 7 94 28 143
46 48 18 129 41 180 49 50 9 124 28 162 41 39 14 113 40 165 59 52 18 136 51
186 74 50 22 125 48 167 56 41 9 115 32 163 51 49 19 123 43 165 54 44 11 136
48 215 88 205 102 182 113 187 -85 2 -92 11 -206 20 -253 8 -47 23 -125 32
-175 22 -123 66 -270 135 -454 94 -253 139 -362 180 -436 21 -38 57 -118 80
-177 42 -109 89 -187 189 -313 84 -106 113 -144 161 -215 167 -248 460 -604
535 -650 18 -11 117 -113 221 -227 104 -115 212 -231 241 -260 28 -28 100
-125 159 -215 303 -461 329 -506 412 -724 75 -194 137 -328 186 -403 44 -66
106 -225 106 -273 0 -13 6 -33 14 -44 9 -12 17 -63 21 -139 8 -133 -7 -250
-50 -385 -113 -362 -125 -419 -138 -636 -9 -140 -17 -207 -26 -218 -18 -22
-190 -103 -249 -117 -64 -16 -121 -45 -159 -81 -17 -17 -60 -49 -94 -72 -49
-32 -69 -53 -92 -98 -16 -31 -32 -77 -34 -103 -5 -38 -2 -50 17 -70 33 -35
110 -61 217 -74 50 -6 115 -16 144 -21 101 -19 243 -4 344 36 22 9 112 41 199
71 88 30 171 60 186 68 15 8 60 45 102 84 55 51 78 81 88 113 8 24 23 59 35
78 18 31 20 50 17 170 -1 74 4 194 12 265 17 148 33 320 41 445 7 99 56 432
85 570 10 52 36 190 56 305 32 188 95 447 114 468 10 12 96 -194 140 -338 10
-33 30 -94 45 -135 14 -41 38 -122 53 -180 26 -103 27 -111 23 -360 -5 -395
-5 -581 0 -755 3 -138 1 -176 -19 -280 -37 -190 -39 -197 -97 -263 -29 -33
-62 -74 -74 -91 -12 -16 -57 -55 -101 -86 -91 -63 -115 -96 -176 -240 -44
-105 -62 -183 -48 -208 5 -9 26 -29 46 -45 48 -37 105 -45 229 -32 52 6 132
15 179 20 47 4 101 13 120 19 19 5 80 15 135 21 55 7 103 14 108 17 4 2 39 13
79 24 55 16 82 30 122 66 79 70 145 152 176 219 29 60 29 65 31 240 0 99 -2
204 -6 234 -4 30 -12 100 -19 155 -16 124 -14 520 4 740 7 88 14 336 15 552 2
216 7 398 11 404 4 7 11 76 16 153 4 78 11 165 14 193 10 90 -49 268 -118 356
-17 21 -53 75 -82 122 -28 46 -79 129 -113 185 -35 55 -63 106 -63 113 0 14
-69 135 -124 216 -20 29 -36 58 -36 64 0 7 -27 68 -59 137 -150 318 -261 599
-261 662 0 11 -16 65 -35 121 -19 56 -39 131 -45 167 -7 36 -20 101 -31 144
-10 44 -17 81 -15 83 5 5 112 -119 163 -188 23 -31 67 -106 98 -168 30 -62 79
-145 108 -184 71 -96 107 -156 155 -252 21 -44 53 -103 69 -131 39 -65 133
-278 162 -366 12 -37 27 -66 33 -65 6 1 19 -22 29 -51 25 -73 193 -427 230
-484 22 -34 38 -48 57 -50 20 -2 38 -19 72 -69 67 -99 318 -357 349 -361 22
-3 29 -13 48 -68 24 -72 44 -93 67 -70 33 34 100 348 121 560 4 36 13 98 21
137 42 213 34 377 -32 658 -34 146 -104 480 -104 497 0 4 -9 8 -19 8 -16 0
-21 12 -31 73 -6 39 -22 119 -35 177 -13 58 -29 139 -35 180 -6 41 -15 91 -20
111 -5 19 -14 80 -20 134 -6 54 -22 135 -36 179 -14 45 -30 119 -35 166 -6 47
-24 139 -40 205 -43 176 -77 340 -88 425 -6 41 -20 102 -31 135 -12 33 -28
105 -36 160 -8 55 -22 125 -30 155 -9 30 -25 100 -35 155 -10 55 -30 142 -44
194 -14 51 -25 106 -25 122 0 16 -15 78 -34 137 -19 59 -40 132 -47 162 -7 30
-18 69 -25 86 -8 18 -27 86 -43 152 -17 66 -41 142 -54 169 -31 62 -111 306
-131 403 -12 53 -36 111 -84 200 -136 254 -152 290 -161 370 -5 41 -16 95 -25
120 -9 25 -30 104 -46 175 -19 79 -49 171 -77 235 -86 193 -324 646 -376 715
-29 37 -77 101 -107 141 -133 177 -222 282 -267 315 -130 96 -328 204 -423
229 -25 7 -62 21 -82 31 -36 18 -351 102 -483 129 -69 14 -322 82 -390 106
-25 8 -91 24 -145 34 -55 10 -134 30 -177 43 -205 65 -319 85 -548 97 -121 6
-299 16 -395 21 -96 6 -353 14 -570 19 -217 4 -415 12 -440 18 -112 25 -361
35 -555 22 -405 -26 -554 -23 -795 16 -70 12 -169 16 -380 16 -298 1 -490 -13
-740 -53 -69 -11 -170 -27 -225 -36 -55 -8 -152 -24 -215 -34 -570 -94 -648
-101 -765 -75 -33 7 -141 30 -240 50 -282 59 -444 117 -750 266 -146 72 -194
93 -435 192 -80 32 -172 72 -205 88 -33 16 -96 43 -140 61 -99 40 -299 142
-340 173 -16 13 -75 51 -130 86 -173 109 -354 273 -440 395 -16 24 -50 69 -75
101 -24 33 -64 97 -88 144 -51 101 -71 128 -182 246 -121 129 -216 242 -264
316 -23 35 -62 89 -86 122 -25 32 -62 82 -82 111 -20 29 -83 96 -140 150 -84
79 -121 106 -200 146 -106 53 -128 57 -204 34 -52 -15 -67 -31 -129 -128 l-31
-47 -41 57 c-177 251 -337 411 -487 487 -60 31 -101 33 -139 8z m11536 -9547
c22 -33 65 -91 94 -130 80 -102 216 -300 264 -380 23 -38 75 -124 117 -190 93
-149 202 -336 231 -395 l22 -45 -48 55 c-26 30 -96 105 -154 166 -123 129
-203 230 -322 404 -122 180 -174 286 -242 498 -37 114 -29 117 38 17z"/>
</g>
</svg>
