<?xml version="1.0" standalone="no"?>
<!DOCTYPE svg PUBLIC "-//W3C//DTD SVG 20010904//EN"
 "http://www.w3.org/TR/2001/REC-SVG-20010904/DTD/svg10.dtd">
<svg version="1.0" xmlns="http://www.w3.org/2000/svg"
 width="1536.000000pt" height="608.000000pt" viewBox="0 0 1536.000000 608.000000"
 preserveAspectRatio="xMidYMid meet">
<metadata>
Created by potrace 1.16, written by Peter Selinger 2001-2019
</metadata>
<g transform="translate(0.000000,608.000000) scale(0.100000,-0.100000)"
fill="#000000" stroke="none">
<path d="M1405 6065 c-107 -17 -164 -33 -197 -56 -56 -40 -111 -58 -179 -57
-53 1 -74 -4 -116 -26 -68 -37 -146 -118 -182 -190 l-30 -60 -91 -18 c-114
-23 -363 -100 -444 -137 -183 -84 -214 -244 -96 -486 63 -127 153 -247 272
-361 113 -107 177 -144 444 -262 223 -98 339 -168 432 -262 150 -149 201 -258
352 -740 69 -218 119 -327 281 -615 75 -132 165 -296 200 -365 73 -144 184
-314 295 -450 42 -52 120 -153 174 -225 117 -158 152 -190 301 -282 188 -117
224 -167 331 -462 100 -277 128 -319 562 -845 93 -113 176 -166 261 -166 53 0
108 21 141 54 26 26 33 44 43 106 13 81 25 136 35 161 6 13 -1 20 -31 29 -21
7 -42 16 -46 20 -4 3 15 36 44 71 98 123 103 160 34 265 -50 76 -53 89 -26
112 10 10 21 32 25 49 5 31 3 34 -40 56 l-45 23 47 43 47 44 76 -6 c75 -6 129
-19 304 -71 107 -31 341 -81 452 -95 44 -6 159 -15 255 -21 564 -34 1107 -84
1370 -125 589 -93 614 -94 1420 -95 634 0 718 3 1150 46 140 13 370 31 510 40
391 22 455 36 660 139 166 83 201 93 415 115 337 35 573 45 740 32 161 -13
233 -26 648 -121 439 -101 508 -124 1042 -346 216 -90 450 -166 625 -205 80
-17 215 -49 300 -70 262 -65 320 -74 495 -74 196 -1 254 13 373 87 104 65 254
204 293 271 46 82 37 124 -33 149 -89 32 -110 31 -192 -13 -42 -22 -94 -43
-115 -46 -40 -6 -298 34 -392 62 -30 9 -80 30 -113 47 l-59 31 42 14 c49 16
76 52 91 117 20 88 -15 230 -77 314 l-17 23 80 -7 c43 -3 134 -13 201 -21 135
-16 314 -19 328 -5 6 5 41 19 79 31 89 29 116 55 116 112 0 80 -58 140 -197
204 l-73 33 0 73 c0 99 5 112 51 132 52 23 82 67 87 131 l4 51 -158 29 c-157
29 -164 30 -575 33 -445 3 -395 7 -791 -53 -141 -22 -188 -13 -343 64 -134 67
-197 88 -498 161 -351 86 -514 147 -614 233 -28 24 -100 99 -158 166 -153 176
-321 314 -546 450 -233 142 -447 244 -1004 481 -159 68 -451 204 -648 302
-389 194 -497 242 -645 287 -272 83 -460 121 -1097 226 -573 94 -623 100 -890
115 -104 6 -311 22 -460 35 -288 26 -596 48 -920 65 -109 6 -242 15 -295 20
-185 18 -363 12 -495 -16 -266 -57 -342 -56 -380 3 -28 46 -64 44 -103 -4
l-29 -37 -64 50 c-85 66 -116 84 -279 154 -231 100 -297 147 -407 293 -132
175 -267 289 -443 377 -97 49 -135 78 -295 225 -81 75 -178 153 -215 176 -91
54 -222 99 -415 144 -88 20 -227 52 -309 71 -263 62 -478 78 -661 49z"/>
</g>
</svg>
