<?xml version="1.0" standalone="no"?>
<!DOCTYPE svg PUBLIC "-//W3C//DTD SVG 20010904//EN"
 "http://www.w3.org/TR/2001/REC-SVG-20010904/DTD/svg10.dtd">
<svg version="1.0" xmlns="http://www.w3.org/2000/svg"
 width="1654.000000pt" height="1585.000000pt" viewBox="0 0 1654.000000 1585.000000"
 preserveAspectRatio="xMidYMid meet">
<metadata>
Created by potrace 1.16, written by Peter Selinger 2001-2019
</metadata>
<g transform="translate(0.000000,1585.000000) scale(0.100000,-0.100000)"
fill="#000000" stroke="none">
<path d="M5510 15823 c-303 -36 -614 -140 -873 -292 -45 -27 -138 -77 -206
-112 -68 -34 -144 -82 -170 -105 -25 -22 -56 -44 -69 -48 -85 -27 -297 -330
-399 -570 -19 -44 -39 -96 -43 -114 -5 -19 -15 -41 -23 -50 -9 -9 -29 -46 -45
-82 -61 -137 -170 -280 -213 -280 -22 0 -121 -61 -254 -157 -71 -51 -170 -122
-220 -158 -169 -122 -257 -224 -340 -397 -59 -121 -74 -202 -56 -295 7 -38 17
-99 22 -138 15 -107 25 -134 78 -216 37 -58 64 -86 111 -117 34 -23 76 -44 94
-48 31 -5 33 -9 33 -43 0 -93 111 -207 288 -296 51 -26 64 -38 92 -90 40 -72
185 -214 354 -347 l116 -90 6 -127 c5 -109 11 -142 45 -251 40 -128 91 -242
163 -365 23 -38 54 -101 71 -140 16 -38 41 -86 57 -105 15 -19 44 -63 65 -97
41 -67 41 -66 36 -273 -3 -136 20 -217 82 -281 23 -24 61 -66 84 -95 l42 -52
-9 -78 c-5 -44 -19 -119 -30 -169 -23 -96 -22 -185 2 -265 18 -60 83 -128 154
-162 100 -48 157 -99 183 -165 22 -56 22 -62 11 -156 l-12 -98 -130 -112
c-100 -86 -145 -134 -197 -207 -87 -122 -107 -164 -134 -272 -13 -48 -25 -91
-28 -94 -3 -3 -44 6 -89 20 -133 40 -366 96 -444 106 -54 7 -112 4 -246 -11
-95 -11 -222 -24 -282 -29 -118 -10 -169 -27 -241 -82 -24 -19 -72 -45 -106
-59 -67 -26 -142 -85 -164 -128 -23 -45 -38 -122 -45 -226 l-6 -99 -34 -7
c-20 -4 -51 -25 -80 -53 -44 -44 -49 -46 -104 -46 -49 0 -70 -7 -153 -50 -53
-27 -100 -50 -106 -50 -5 0 -24 11 -42 25 -18 13 -53 34 -78 45 l-47 20 -97
-39 c-53 -22 -109 -52 -124 -66 -15 -15 -49 -64 -76 -109 l-49 -83 -43 14
c-35 13 -67 13 -182 5 -154 -10 -171 -17 -327 -124 -86 -59 -120 -106 -154
-212 -31 -95 -29 -94 -172 -95 -123 -1 -140 -10 -269 -133 -90 -86 -98 -96
-98 -131 0 -30 -5 -41 -28 -55 -51 -31 -223 -196 -247 -237 -30 -51 -85 -263
-85 -327 0 -94 51 -170 183 -270 45 -35 102 -83 127 -109 25 -26 86 -75 135
-110 50 -35 157 -115 239 -178 281 -216 397 -273 836 -409 232 -72 354 -103
515 -132 157 -28 559 -128 710 -178 160 -53 454 -170 591 -237 181 -88 357
-215 710 -513 55 -46 142 -109 194 -139 159 -94 341 -218 413 -283 75 -66 463
-359 647 -487 298 -207 360 -251 425 -301 224 -175 570 -426 770 -561 127 -85
309 -211 405 -281 404 -292 776 -522 1125 -696 138 -69 300 -151 360 -182 226
-118 851 -377 1140 -472 72 -23 186 -64 255 -90 700 -270 864 -315 1215 -332
226 -10 332 -6 435 18 36 8 99 19 140 25 264 35 886 222 1344 403 280 110 528
206 651 251 120 45 456 206 615 297 63 35 146 82 185 103 173 93 559 409 795
652 472 482 668 778 895 1348 46 116 100 262 119 325 19 63 76 237 125 387
109 328 145 501 166 793 23 328 20 858 -6 980 -10 49 -24 209 -39 446 -6 100
-17 184 -34 250 -13 54 -27 128 -31 164 -4 36 -26 141 -50 235 -26 102 -51
236 -64 335 -59 479 -173 839 -436 1387 -161 334 -322 573 -544 808 -57 61
-196 218 -309 350 -240 281 -563 607 -710 718 -56 42 -184 126 -285 185 -100
60 -234 143 -298 184 -352 229 -706 405 -1074 536 -346 123 -551 181 -763 217
-135 23 -268 58 -552 146 -69 21 -156 45 -195 53 -113 24 -202 55 -320 110
-110 53 -110 53 -221 177 -61 68 -153 178 -204 244 -52 66 -144 180 -205 254
-257 312 -443 579 -618 886 -73 128 -205 343 -367 600 -35 55 -89 134 -120
175 -31 41 -78 104 -103 140 -288 402 -544 670 -810 848 -123 83 -373 212
-547 282 -69 28 -208 78 -310 111 -102 33 -214 71 -250 84 -121 44 -421 136
-538 165 -180 44 -338 68 -557 84 -110 8 -207 17 -215 20 -23 7 -171 14 -210
9z m71 -12830 l24 -26 -32 18 c-18 10 -30 22 -27 27 7 11 8 11 35 -19z"/>
</g>
</svg>
