<?xml version="1.0" standalone="no"?>
<!DOCTYPE svg PUBLIC "-//W3C//DTD SVG 20010904//EN"
 "http://www.w3.org/TR/2001/REC-SVG-20010904/DTD/svg10.dtd">
<svg version="1.0" xmlns="http://www.w3.org/2000/svg"
 width="1478.000000pt" height="1536.000000pt" viewBox="0 0 1478.000000 1536.000000"
 preserveAspectRatio="xMidYMid meet">
<metadata>
Created by potrace 1.16, written by Peter Selinger 2001-2019
</metadata>
<g transform="translate(0.000000,1536.000000) scale(0.100000,-0.100000)"
fill="#000000" stroke="none">
<path d="M10998 15343 c-28 -32 -30 -80 -8 -256 25 -204 20 -239 -40 -270 -31
-16 -51 -17 -163 -11 -108 5 -131 4 -152 -10 -14 -9 -25 -21 -25 -27 0 -16 99
-55 236 -93 240 -65 266 -81 400 -243 49 -59 133 -155 187 -213 151 -160 184
-233 135 -295 -21 -26 -23 -27 -94 -20 -138 13 -153 -43 -32 -120 l28 -17 -35
-41 c-73 -85 -113 -253 -122 -502 -4 -127 -1 -201 11 -292 19 -142 41 -208 99
-294 l41 -62 -38 -32 -38 -32 33 -13 32 -14 -47 -16 -47 -15 48 -34 48 -34
-59 -28 c-65 -31 -89 -49 -66 -50 8 0 33 -8 54 -18 l39 -17 -173 -159 -172
-160 33 -7 c19 -4 52 -10 74 -14 l40 -6 -33 -16 -34 -16 46 -16 47 -15 -88
-75 c-48 -41 -118 -111 -156 -154 -68 -80 -191 -255 -184 -263 2 -2 20 -4 40
-5 l36 -1 -55 -108 c-29 -60 -95 -206 -145 -326 -242 -580 -343 -723 -773
-1092 -202 -173 -272 -215 -433 -259 -95 -25 -107 -26 -363 -26 -192 0 -303 5
-405 18 -231 29 -657 32 -1025 7 -515 -35 -622 -30 -940 50 -327 81 -459 98
-1015 129 -585 33 -861 63 -1105 121 -203 48 -407 64 -700 55 -328 -11 -520
-32 -770 -82 -133 -27 -198 -51 -435 -162 -226 -106 -549 -207 -905 -282 -346
-73 -447 -103 -590 -175 -81 -41 -89 -50 -52 -60 25 -6 26 -8 9 -19 -15 -12
-15 -15 -2 -26 21 -18 19 -31 -14 -80 -26 -39 -28 -45 -13 -56 18 -13 19 -89
2 -156 -18 -65 -66 -175 -100 -225 -17 -24 -30 -46 -30 -47 0 -2 16 -7 35 -10
19 -4 35 -9 35 -11 0 -9 -107 -184 -132 -217 -16 -20 -38 -40 -49 -43 -18 -6
-19 -8 -5 -18 14 -11 10 -24 -34 -107 -27 -52 -50 -98 -50 -102 0 -5 13 -8 30
-8 l29 0 -14 -41 -15 -41 29 5 c27 6 30 3 36 -24 13 -56 -9 -144 -74 -308
l-22 -53 26 6 c30 8 32 -4 5 -29 -27 -25 -18 -30 19 -10 l31 16 0 -36 c0 -34
1 -35 28 -29 15 4 37 11 49 15 19 7 24 4 29 -19 16 -73 23 -78 44 -34 l12 27
10 -25 c5 -14 46 -61 92 -105 89 -86 92 -90 188 -340 103 -268 127 -418 94
-582 -9 -44 -23 -150 -31 -236 -13 -137 -20 -170 -59 -280 -50 -139 -67 -216
-97 -432 -18 -133 -25 -160 -63 -240 -65 -137 -148 -238 -411 -500 -252 -251
-311 -323 -369 -446 -64 -134 -68 -165 -70 -459 -2 -295 1 -274 -86 -469 -83
-185 -88 -310 -15 -415 32 -47 35 -57 35 -124 0 -44 -12 -129 -30 -210 -44
-206 -75 -402 -119 -772 -23 -184 -52 -416 -66 -515 -31 -232 -46 -483 -33
-579 9 -66 7 -85 -22 -205 -34 -145 -37 -216 -5 -118 10 31 22 57 26 57 16 0
72 -77 140 -191 39 -67 91 -141 114 -165 50 -49 135 -95 221 -119 71 -19 284
-33 284 -18 0 6 -16 45 -36 88 -55 120 -101 254 -134 393 -39 162 -49 186
-115 281 -30 43 -62 95 -70 115 -19 45 -19 155 0 271 8 50 33 272 55 495 42
428 68 652 100 865 10 72 31 216 45 320 31 225 54 330 107 483 52 152 130 305
234 459 157 233 256 350 648 763 551 580 642 673 730 748 129 111 466 363 466
349 0 -23 -69 -274 -96 -347 -79 -220 -206 -410 -577 -859 -118 -142 -159
-223 -165 -322 -7 -120 38 -231 194 -475 145 -228 168 -296 133 -402 -29 -87
-30 -142 -3 -179 11 -15 57 -56 102 -91 122 -94 182 -181 280 -403 197 -447
315 -746 442 -1114 46 -132 103 -292 127 -355 42 -107 46 -126 59 -275 16
-181 34 -256 70 -292 36 -36 56 -27 69 35 7 29 15 55 17 58 3 3 39 -32 79 -78
149 -168 224 -237 296 -271 68 -32 69 -32 218 -31 91 1 171 7 203 15 l54 14
-35 45 c-44 58 -112 176 -217 379 -55 105 -108 192 -157 253 -62 79 -78 107
-104 188 -43 130 -178 443 -352 816 -229 491 -315 695 -395 944 -89 275 -126
461 -126 640 -1 166 13 220 94 385 65 132 133 227 310 440 65 77 177 223 250
325 282 393 431 542 526 527 l32 -5 7 64 c3 35 10 64 13 64 4 -1 18 -7 32 -15
40 -23 50 -19 50 21 0 34 2 36 29 32 l28 -4 6 67 c6 68 31 134 63 159 9 8 56
60 105 116 111 128 126 135 227 105 42 -12 131 -28 197 -36 131 -14 174 -24
277 -60 105 -38 178 -54 289 -66 148 -15 270 -43 459 -106 l165 -55 96 7 c79
6 129 2 270 -19 96 -15 184 -29 197 -32 13 -2 49 -31 81 -64 41 -43 65 -60 84
-60 14 0 29 5 32 10 10 16 21 11 33 -15 9 -20 16 -23 33 -17 12 5 47 5 78 1
48 -7 59 -5 77 12 28 27 70 24 232 -12 89 -21 179 -34 257 -38 l120 -6 26
-295 c39 -435 60 -558 140 -840 88 -309 92 -368 43 -597 -38 -180 -34 -232 34
-436 l57 -172 -2 -330 c-3 -439 -22 -1121 -33 -1211 -5 -39 -31 -166 -57 -280
-44 -197 -47 -217 -47 -359 -1 -99 4 -165 13 -195 l13 -45 42 48 42 49 31 -35
c17 -19 56 -77 88 -128 109 -176 149 -213 279 -255 61 -20 111 -27 204 -31 67
-3 122 -4 122 -1 0 3 -34 78 -75 168 -130 279 -189 441 -251 695 -44 178 -45
198 -26 755 19 592 35 729 100 851 34 65 40 86 46 169 6 74 15 113 41 176 19
45 38 111 44 145 14 93 35 488 35 682 l1 169 33 -38 c46 -53 90 -150 108 -237
9 -39 19 -142 23 -227 l7 -155 58 -130 c145 -323 219 -647 285 -1240 64 -573
82 -907 61 -1130 -11 -121 -11 -141 4 -178 15 -40 51 -75 64 -62 4 3 16 31 27
62 l21 57 46 -65 c25 -35 63 -91 83 -124 59 -93 130 -179 174 -209 92 -64 271
-103 413 -91 l77 7 -64 128 c-35 70 -87 194 -115 276 -73 209 -114 305 -177
412 -66 112 -94 185 -122 315 -12 55 -50 221 -86 371 -138 586 -147 686 -124
1366 12 319 11 345 -9 535 -21 193 -21 222 -13 790 8 548 11 597 31 690 38
178 118 299 242 366 60 32 69 34 188 39 l125 5 25 46 c14 26 55 82 91 125 85
101 133 191 264 494 105 244 317 662 455 900 115 198 221 346 340 475 173 187
230 270 375 540 27 50 78 140 115 200 118 196 147 257 205 425 59 172 92 241
230 475 115 196 126 219 185 405 37 117 74 207 125 307 89 173 121 221 200
298 53 53 78 92 99 157 14 44 148 94 361 133 77 15 246 51 375 80 129 30 260
56 290 60 30 4 168 8 305 9 241 2 253 3 331 29 111 37 179 87 221 162 18 33
33 70 33 81 0 22 17 34 48 34 30 0 91 52 113 97 19 40 21 57 17 161 -7 196
-43 242 -241 308 -141 46 -247 95 -364 168 -234 145 -366 270 -489 464 -56 89
-130 186 -213 280 -145 165 -237 289 -284 382 -28 57 -32 74 -32 145 1 77 3
86 76 255 42 96 88 213 104 260 15 47 59 152 97 234 78 166 99 240 80 280 -25
56 -89 29 -212 -88 -98 -94 -157 -140 -328 -255 -86 -59 -132 -96 -154 -129
-30 -44 -78 -174 -78 -212 0 -42 -19 -14 -88 128 -121 251 -122 256 -132 877
-8 502 -14 599 -46 698 -30 91 -96 139 -110 81 -7 -27 -2 -119 16 -294 11
-114 12 -406 1 -473 -16 -99 -72 -132 -134 -77 -57 49 -69 93 -78 285 -14 311
-32 405 -78 405 -42 0 -55 -122 -31 -297 12 -86 10 -186 -3 -200 -10 -10 -234
194 -319 291 -96 110 -102 122 -168 311 -62 180 -117 284 -141 269 -14 -9 -10
-104 12 -282 30 -243 17 -312 -60 -312 -34 0 -45 6 -89 55 -66 72 -128 200
-203 420 -74 217 -71 211 -91 188z m659 -845 c70 -26 149 -86 261 -200 l94
-95 -32 -26 c-21 -18 -43 -27 -67 -27 -30 0 -44 9 -102 69 -36 37 -93 89 -126
114 -84 63 -175 162 -175 190 0 12 87 -3 147 -25z m618 -636 c19 -37 52 -114
74 -172 36 -94 38 -106 23 -112 -26 -10 -81 -9 -103 2 -49 27 -105 220 -94
324 11 100 13 103 41 62 14 -20 40 -67 59 -104z"/>
</g>
</svg>
