<?xml version="1.0" standalone="no"?>
<!DOCTYPE svg PUBLIC "-//W3C//DTD SVG 20010904//EN"
 "http://www.w3.org/TR/2001/REC-SVG-20010904/DTD/svg10.dtd">
<svg version="1.0" xmlns="http://www.w3.org/2000/svg"
 width="1536.000000pt" height="777.000000pt" viewBox="0 0 1536.000000 777.000000"
 preserveAspectRatio="xMidYMid meet">
<metadata>
Created by potrace 1.16, written by Peter Selinger 2001-2019
</metadata>
<g transform="translate(0.000000,777.000000) scale(0.100000,-0.100000)"
fill="#000000" stroke="none">
<path d="M9740 7759 c-25 -4 -73 -8 -107 -8 -34 -1 -74 -6 -89 -11 -40 -16
-246 -22 -238 -8 5 7 2 9 -7 6 -42 -15 -180 -58 -216 -68 -24 -6 -43 -15 -43
-20 0 -6 -15 -10 -33 -10 -34 0 -87 20 -87 33 0 12 -82 8 -134 -8 -27 -8 -75
-15 -108 -15 -32 0 -58 -4 -58 -9 0 -6 -24 -7 -54 -4 -30 3 -63 2 -73 -2 -29
-12 -93 -14 -93 -3 0 6 -13 7 -32 2 -53 -11 -140 -7 -149 7 -6 10 -19 9 -65
-5 -37 -12 -106 -20 -203 -24 -174 -8 -342 -3 -296 9 18 5 -14 7 -85 6 -68 0
-123 4 -135 10 -11 6 -37 14 -58 18 -20 4 -37 11 -37 16 0 5 -38 9 -84 9 -107
0 -124 5 -93 31 l22 18 -33 1 c-20 0 -31 5 -30 13 2 8 -11 13 -37 14 -38 1
-39 1 -10 -7 20 -6 -5 -7 -70 -4 -89 5 -109 2 -183 -21 -69 -22 -94 -25 -146
-20 -45 5 -77 2 -120 -10 -32 -9 -70 -15 -84 -12 -15 3 -47 -1 -70 -10 -34
-13 -45 -14 -51 -4 -6 9 -31 7 -105 -9 -87 -19 -100 -20 -114 -6 -14 12 -25
13 -62 4 -25 -6 -53 -14 -62 -19 -10 -5 -27 -9 -37 -9 -11 0 -22 -4 -25 -8 -3
-5 -43 -6 -90 -4 -64 3 -86 1 -86 -8 0 -7 -7 -10 -15 -6 -8 3 -15 2 -15 -3 0
-11 -86 -35 -98 -27 -5 3 -21 -3 -34 -14 -14 -11 -28 -17 -31 -14 -3 3 -16 -1
-29 -10 -20 -13 -25 -13 -42 0 -11 8 -37 14 -58 14 -25 0 -37 4 -35 13 1 6 -4
11 -12 9 -99 -21 -187 -35 -236 -37 -33 -1 -71 -7 -86 -13 -31 -13 -179 -14
-179 -1 0 5 -11 9 -25 9 -14 0 -25 -5 -25 -11 0 -6 -7 -9 -15 -5 -8 3 -15 1
-15 -5 0 -7 -10 -9 -26 -5 -16 4 -23 3 -20 -3 10 -16 -30 -23 -132 -21 -141 2
-159 1 -144 -9 10 -6 7 -10 -12 -13 -14 -3 -23 -1 -20 3 3 5 -14 9 -36 9 -35
0 -41 3 -36 16 5 14 1 16 -28 11 -19 -3 -38 -1 -45 6 -6 6 -45 11 -96 10 -58
-1 -84 3 -82 11 1 7 -22 12 -66 14 -52 2 -76 9 -104 27 -36 25 -87 33 -98 16
-6 -11 -34 -4 -115 29 -35 14 -67 20 -87 17 -32 -6 -46 6 -20 16 6 3 -7 6 -30
6 -23 1 -43 6 -45 12 -2 6 -28 14 -58 19 -45 6 -49 8 -20 9 55 4 7 19 -60 20
-31 1 -60 5 -65 10 -6 5 -70 11 -143 13 -80 2 -136 7 -140 14 -8 12 -170 13
-190 0 -7 -4 -56 -12 -108 -16 -52 -5 -100 -13 -107 -18 -14 -12 -68 -11 -60
1 6 10 2 9 -45 -7 -23 -8 -54 -24 -69 -35 -17 -13 -45 -22 -73 -23 -34 -1 -53
-8 -79 -30 -24 -21 -36 -26 -41 -18 -8 13 -50 5 -50 -10 0 -11 -88 -44 -114
-42 -11 0 -27 -5 -36 -12 -8 -8 -31 -17 -50 -21 -19 -4 -50 -20 -68 -36 -18
-16 -37 -29 -42 -29 -4 0 -15 -3 -24 -6 -11 -4 -16 -1 -16 10 0 9 -3 16 -7 16
-5 0 -53 -34 -108 -75 -55 -41 -105 -74 -112 -75 -28 -1 -89 -54 -114 -100
-37 -68 -112 -161 -162 -201 -23 -19 -96 -87 -163 -151 -67 -65 -125 -118
-131 -118 -5 0 -74 -66 -154 -147 -148 -151 -185 -179 -398 -302 -61 -35 -128
-79 -149 -97 -21 -18 -81 -51 -133 -75 -52 -23 -98 -48 -102 -56 -4 -7 -27
-23 -50 -34 -68 -35 -137 -99 -137 -127 0 -40 66 -98 122 -106 44 -7 48 -10
48 -35 0 -61 160 -184 219 -168 22 5 35 -19 47 -86 5 -30 15 -44 46 -64 34
-23 41 -25 63 -13 13 7 30 26 38 42 18 38 30 24 52 -61 29 -115 78 -191 121
-191 19 0 37 38 30 63 -6 25 5 82 41 200 26 86 26 87 59 87 21 0 37 6 43 17 9
17 10 17 28 0 28 -25 58 -21 72 9 l11 26 46 -26 c53 -30 79 -33 88 -11 3 10
14 14 28 11 82 -18 250 -59 295 -72 l53 -15 -16 -31 c-16 -31 -15 -101 2 -157
8 -26 3 -26 -63 0 -44 18 -54 6 -60 -75 -6 -72 -15 -79 -63 -51 -39 23 -48 18
-81 -40 l-31 -54 -43 6 c-41 5 -44 4 -60 -26 -10 -20 -22 -31 -33 -29 -13 2
-18 -5 -20 -29 -2 -18 -9 -33 -15 -33 -20 1 -94 37 -142 70 -58 40 -123 70
-154 70 -22 0 -23 -2 -18 -45 8 -57 33 -105 91 -175 51 -61 55 -70 28 -70 -10
0 -21 -3 -24 -6 -12 -11 4 -42 28 -54 17 -10 24 -22 24 -42 0 -19 10 -38 27
-54 41 -38 159 -92 252 -115 112 -28 178 -22 296 26 50 21 162 59 250 86 88
27 203 70 255 96 83 40 105 46 175 50 58 4 103 0 163 -15 45 -10 85 -15 88
-11 10 17 93 9 158 -16 70 -26 91 -25 83 5 -6 22 11 18 63 -17 20 -13 50 -23
71 -23 20 0 42 -7 49 -15 14 -17 61 -20 77 -4 8 8 19 6 41 -5 17 -9 49 -16 72
-16 47 0 104 -26 155 -71 28 -25 41 -30 68 -26 26 4 38 -1 62 -24 20 -19 48
-32 83 -39 78 -14 109 -35 136 -88 28 -54 49 -76 94 -95 28 -11 39 -27 67 -92
26 -60 49 -93 92 -135 97 -94 115 -120 188 -260 l70 -135 43 -6 c50 -6 58 -14
110 -99 25 -42 51 -72 74 -84 19 -11 44 -36 56 -56 29 -51 121 -150 138 -150
8 0 35 -19 59 -41 39 -36 45 -47 45 -83 1 -40 18 -76 37 -76 5 0 17 -8 26 -18
13 -15 17 -39 17 -113 0 -70 4 -100 16 -117 12 -17 13 -30 6 -50 -7 -20 -5
-35 8 -57 15 -28 15 -35 -5 -134 -11 -58 -26 -106 -33 -109 -7 -2 -23 -25 -36
-51 -14 -26 -44 -69 -69 -97 -28 -30 -44 -59 -45 -74 0 -14 -34 -88 -77 -164
-67 -119 -76 -141 -67 -161 10 -21 4 -30 -65 -94 -41 -39 -88 -79 -104 -88
-29 -17 -38 -33 -19 -33 23 0 6 -33 -47 -90 -45 -49 -54 -63 -42 -70 17 -11 9
-18 -126 -102 -124 -77 -160 -102 -208 -147 -31 -29 -35 -37 -21 -41 14 -5 8
-16 -31 -61 -26 -30 -58 -58 -70 -64 -11 -5 -60 -49 -107 -96 -84 -85 -87 -86
-194 -123 -59 -21 -148 -59 -198 -85 -84 -44 -99 -49 -185 -55 -145 -12 -171
-28 -171 -105 l0 -47 -92 -14 c-104 -15 -103 -15 -250 1 -94 11 -111 10 -150
-4 -25 -10 -54 -30 -65 -46 -17 -22 -32 -29 -72 -34 -55 -7 -121 -33 -161 -66
-30 -24 -26 -29 31 -39 38 -7 44 -11 44 -32 0 -21 -12 -31 -66 -60 -82 -43
-91 -51 -129 -108 -36 -54 -37 -62 -7 -62 29 0 51 -15 43 -29 -5 -8 11 -11 52
-11 106 0 115 -4 141 -71 27 -69 68 -109 115 -109 19 0 68 19 120 46 l87 45
28 -18 c16 -10 53 -38 82 -62 52 -42 55 -43 114 -39 49 3 73 12 135 48 l74 45
211 4 c202 3 215 2 307 -23 181 -49 240 -34 450 117 73 52 144 98 158 101 14
3 138 10 276 16 157 6 273 16 310 25 133 34 234 106 250 178 3 16 30 63 58
105 29 43 60 92 70 110 19 36 40 40 83 15 28 -16 32 -15 86 7 l57 24 148 -18
c136 -16 149 -20 177 -46 66 -61 179 -96 257 -79 21 5 75 30 119 56 79 46 80
46 164 44 77 -1 87 1 103 21 44 57 85 86 160 116 93 37 127 39 203 14 87 -28
397 -15 457 19 54 31 132 103 132 121 0 9 5 28 12 42 8 19 15 23 23 16 9 -8
16 -2 25 20 14 34 41 53 64 44 11 -4 18 6 26 38 28 109 25 105 78 101 l47 -5
20 64 c18 57 23 63 48 64 33 1 31 -1 49 53 8 25 26 54 41 65 l27 20 22 -21
c13 -11 33 -23 46 -26 19 -4 25 1 38 31 12 29 12 42 4 61 -7 15 -8 26 -1 30 5
4 11 24 13 46 2 33 6 40 23 38 26 -2 48 52 48 117 0 25 2 37 4 27 6 -22 23
-12 23 14 0 10 6 19 14 19 14 0 66 68 66 88 0 7 13 12 29 12 27 0 30 4 40 48
15 70 92 198 118 195 30 -3 49 24 68 97 18 69 48 112 72 103 17 -7 63 34 63
57 0 9 11 22 24 28 15 7 29 26 37 54 12 37 18 43 41 43 15 1 37 11 48 23 25
27 40 28 40 3 0 -10 11 -26 24 -35 14 -8 27 -25 31 -36 6 -20 82 -66 92 -56 3
3 16 -8 29 -23 14 -17 41 -33 68 -40 27 -7 53 -21 66 -38 27 -35 90 -44 90
-13 0 30 16 24 30 -10 16 -40 67 -82 94 -78 15 2 22 11 24 31 2 15 8 27 13 27
5 0 9 10 10 23 l0 22 16 -23 c8 -12 21 -22 28 -22 7 0 37 -20 66 -44 30 -24
66 -47 82 -51 24 -6 27 -4 27 18 0 34 16 43 30 17 6 -11 23 -26 39 -34 33 -17
51 -6 51 31 0 13 5 23 10 23 6 0 10 7 10 15 0 17 25 20 35 5 9 -15 25 -2 25
21 0 23 27 79 38 79 4 0 15 -20 25 -44 17 -40 22 -44 62 -50 29 -5 55 -2 80 8
30 13 44 14 81 4 56 -15 78 0 49 32 -18 19 -18 20 2 20 17 0 19 5 15 28 -2 15
-11 33 -20 40 -9 6 -11 12 -6 12 5 0 43 -34 84 -75 41 -41 80 -75 87 -75 7 0
16 12 19 28 15 61 30 47 39 -38 4 -30 9 -68 12 -85 5 -27 7 -28 14 -10 6 16 8
12 8 -16 1 -32 5 -37 29 -42 28 -6 52 -48 52 -92 0 -9 16 -32 35 -51 19 -18
35 -37 35 -43 0 -6 7 -11 15 -11 9 0 18 -6 21 -14 11 -28 -17 -133 -56 -213
-32 -65 -50 -88 -89 -116 -27 -19 -87 -71 -134 -116 -58 -54 -108 -91 -154
-113 -37 -18 -71 -33 -75 -33 -3 0 -10 -3 -14 -8 -4 -4 -23 -7 -42 -7 -22 0
-60 -14 -99 -35 -35 -19 -71 -35 -81 -35 -13 0 -14 -2 -4 -9 10 -6 8 -10 -10
-14 -36 -10 -80 -8 -73 3 4 6 -8 10 -30 10 -20 0 -34 -4 -31 -8 3 -5 -39 -19
-92 -32 -53 -12 -100 -28 -104 -34 -5 -7 -74 -11 -215 -11 -199 0 -209 1 -242
22 -51 34 -131 32 -207 -7 -33 -17 -76 -30 -99 -31 -37 -1 -102 -16 -81 -18 6
-1 -4 -14 -20 -30 -27 -27 -33 -28 -74 -20 -65 12 -150 10 -185 -5 l-30 -13
37 -12 c70 -23 66 -37 -16 -50 -43 -7 -89 -22 -107 -34 -49 -33 -48 -46 3 -40
49 6 115 -17 124 -42 4 -9 -2 -25 -15 -39 -34 -36 -27 -45 42 -48 l62 -3 -3
-53 c-5 -65 13 -96 71 -123 53 -24 161 -25 217 -3 67 27 127 14 268 -58 157
-79 203 -85 311 -39 40 17 86 31 101 31 16 0 41 5 57 11 15 7 78 15 138 19 97
7 119 12 185 44 99 47 210 74 351 86 119 10 166 5 379 -35 102 -19 165 -14
258 21 125 48 270 66 539 68 101 1 114 3 135 24 30 27 70 30 62 5 -6 -20 47
35 108 112 53 66 110 181 110 222 0 18 4 36 9 39 5 3 9 16 9 29 0 13 5 27 10
30 6 3 10 22 10 40 0 26 -3 33 -15 29 -11 -4 -15 0 -15 17 0 31 32 129 42 129
4 0 8 9 8 21 0 11 -4 17 -10 14 -15 -9 -12 20 5 61 l15 35 41 -33 c32 -26 50
-33 84 -33 39 0 45 -4 61 -33 18 -34 87 -102 103 -102 5 0 5 -12 -1 -28 -10
-26 -7 -32 56 -97 l67 -70 -6 -63 c-4 -46 -3 -62 6 -57 8 5 9 1 5 -13 -5 -15
-2 -22 13 -27 10 -3 25 -13 32 -22 12 -14 10 -15 -19 -9 -21 5 -32 4 -32 -3 0
-15 -37 -14 -43 2 -4 9 -6 9 -6 0 -1 -7 -13 -13 -27 -13 -18 0 -49 -22 -108
-79 -142 -136 -261 -179 -447 -161 -159 16 -183 10 -252 -63 -53 -56 -62 -62
-97 -61 -22 1 -58 13 -84 28 -24 14 -58 26 -74 26 -47 0 -122 -27 -161 -58
-20 -16 -47 -32 -61 -36 -14 -4 -41 -12 -61 -17 -29 -9 -42 -8 -67 5 -55 28
-123 17 -172 -28 -14 -13 -44 -26 -69 -30 -24 -4 -57 -14 -75 -22 -34 -18 -96
-73 -96 -86 0 -4 15 -8 33 -8 59 0 64 -16 13 -39 -50 -22 -53 -41 -7 -41 41 0
90 -20 101 -40 6 -10 10 -35 10 -55 0 -53 48 -99 118 -114 69 -14 87 -14 101
3 18 21 91 36 173 35 l73 0 38 -49 c23 -31 57 -60 90 -77 46 -25 63 -28 147
-28 80 0 105 4 158 27 53 22 69 25 94 16 18 -7 71 -8 141 -4 62 4 198 10 302
14 171 6 193 9 220 28 85 60 224 94 386 94 88 0 130 6 245 35 76 19 149 35
162 35 44 0 178 32 400 96 237 67 262 72 262 50 0 -25 43 -27 80 -3 19 13 50
29 68 36 18 8 62 46 99 85 36 39 63 63 59 54 -10 -32 13 -19 45 25 57 77 82
138 87 210 2 37 9 67 13 67 5 0 9 8 9 18 0 10 11 28 25 40 14 12 25 30 25 40
0 10 7 28 16 40 14 20 14 30 -1 105 -9 45 -25 102 -36 126 -23 53 -23 50 -1
45 9 -3 26 2 37 10 16 12 18 17 8 27 -17 17 -16 30 1 23 26 -10 27 16 3 48
-60 80 -77 154 -52 214 9 21 13 49 10 61 -3 14 -1 23 6 23 33 0 -19 182 -56
197 -8 3 -19 22 -25 42 -5 21 -19 48 -30 61 -11 13 -20 31 -20 41 0 10 -5 29
-11 43 -10 20 -9 28 5 41 9 9 16 21 16 27 0 5 7 25 16 44 28 59 18 87 -95 276
-14 24 -14 28 0 45 27 31 48 113 27 106 -4 -2 -10 19 -14 45 -3 26 -10 52 -13
57 -4 6 -13 29 -21 53 -7 23 -16 42 -21 42 -4 0 -10 7 -13 16 -8 21 21 43 46
36 15 -3 18 2 18 27 0 17 5 31 11 31 7 0 9 12 5 36 -7 33 -6 35 13 25 32 -18
61 -14 61 8 0 11 -4 23 -10 26 -18 11 -10 23 12 17 26 -6 22 1 -39 76 l-44 54
38 41 c42 47 38 50 62 -41 7 -24 17 -45 24 -47 7 -2 23 -6 37 -9 23 -5 25 -9
26 -68 1 -35 3 -128 4 -208 l4 -145 6 95 6 95 2 -122 c2 -116 3 -123 22 -123
18 0 20 -6 19 -52 -2 -49 -2 -51 -9 -18 -5 22 -8 -14 -9 -100 -1 -163 2 -176
40 -184 29 -5 29 -6 23 -59 -7 -59 18 -157 39 -157 7 0 22 -3 34 -6 16 -4 23
0 28 15 12 38 23 22 35 -51 10 -57 10 -111 0 -261 -9 -124 -10 -191 -3 -195 5
-4 13 -15 16 -26 6 -14 15 -17 42 -14 40 5 36 13 60 -115 17 -92 33 -129 58
-133 26 -4 56 -33 78 -76 10 -20 42 -64 70 -98 50 -60 52 -61 95 -59 41 3 46
0 69 -33 28 -42 53 -53 99 -44 26 5 37 1 56 -19 13 -14 34 -25 46 -25 14 0 37
-17 64 -50 33 -39 48 -50 71 -50 24 0 29 4 29 25 0 14 5 25 10 25 6 0 10 13
10 29 0 16 7 34 15 41 8 6 24 37 35 68 29 78 54 104 88 91 15 -6 28 -6 31 -1
11 17 50 32 81 32 30 0 33 5 77 98 25 53 49 99 54 100 33 12 71 61 90 113 12
32 27 59 34 59 7 0 22 16 34 36 19 32 21 50 21 209 l0 174 -34 63 c-57 106
-64 146 -76 463 -10 274 -12 290 -32 312 -12 13 -19 26 -15 29 3 4 0 13 -8 21
-8 8 -15 24 -15 36 -2 120 -30 267 -51 267 -5 0 -6 7 -2 16 3 9 -3 21 -16 31
-13 8 -20 21 -17 29 3 8 -3 22 -14 31 -11 10 -20 20 -20 23 0 10 39 9 45 -1 7
-11 75 -12 75 -1 0 4 -8 18 -17 32 -16 22 -16 23 1 17 40 -16 34 8 -18 64 -30
32 -57 68 -61 79 -3 11 -10 20 -15 20 -8 0 -10 6 -33 88 -13 44 -13 52 -1 52
21 0 17 16 -13 48 -16 15 -44 67 -63 115 -19 48 -40 87 -47 87 -21 0 -32 31
-20 57 8 17 13 20 23 12 19 -16 34 -2 34 31 0 16 5 32 10 35 6 4 -35 54 -93
115 -82 84 -113 125 -143 185 -34 70 -36 78 -21 86 9 6 17 21 17 34 0 13 6 25
13 28 8 3 -2 31 -33 90 -29 57 -44 100 -45 127 -1 22 3 40 7 40 18 0 4 23 -85
141 -80 107 -167 244 -167 263 0 3 9 6 20 6 31 0 24 14 -29 56 -27 22 -86 83
-131 137 -45 53 -86 97 -92 97 -6 0 -8 3 -4 7 3 4 -8 22 -26 41 -22 23 -29 36
-20 39 10 4 10 8 1 19 -7 8 -15 31 -18 50 -5 28 -21 46 -90 102 -46 37 -89 76
-95 87 -6 11 -41 52 -78 91 -36 40 -69 80 -72 91 -3 10 -45 41 -93 68 -49 28
-92 59 -97 71 -5 11 -25 31 -44 43 -18 12 -31 25 -28 28 3 3 12 0 21 -7 25
-21 29 -4 6 28 -24 34 -159 122 -211 137 -27 8 -35 16 -35 34 0 31 -74 94
-142 122 -37 15 -58 31 -72 55 -20 33 -20 34 -1 34 38 0 31 20 -7 21 -21 0
-32 3 -25 6 24 10 12 22 -14 13 -37 -15 -74 -12 -80 5 -4 10 -14 13 -29 9 -30
-7 -53 5 -34 17 10 6 5 9 -15 9 -20 0 -27 4 -23 14 3 8 -1 17 -9 20 -24 9 -16
26 14 27 l27 1 -30 7 c-16 4 -29 12 -27 19 1 7 -6 12 -16 12 -11 0 -27 9 -36
19 -10 11 -31 25 -47 31 -38 16 -37 30 4 31 23 1 26 3 10 6 -13 2 -23 10 -23
16 0 7 -22 17 -49 24 -27 6 -69 21 -94 32 -25 12 -53 21 -61 21 -22 0 -30 19
-15 36 11 13 9 19 -11 35 l-25 19 33 0 34 0 -30 25 c-20 17 -50 28 -93 34 -35
6 -91 15 -124 20 -33 6 -63 11 -66 11 -4 0 -16 18 -27 41 -16 32 -17 39 -5 35
8 -3 20 -3 26 1 7 5 0 10 -18 13 -16 4 -29 11 -28 16 1 6 -32 16 -73 22 -80
13 -137 37 -168 71 -19 21 -19 21 2 21 12 0 22 5 22 10 0 6 -17 10 -37 10 -36
1 -37 2 -19 15 18 14 14 15 -48 15 -59 0 -77 5 -140 38 -39 20 -72 40 -74 45
-2 4 -12 7 -23 7 -10 0 -19 4 -19 9 0 5 -15 12 -32 16 -18 4 -64 22 -103 40
-38 18 -87 36 -108 39 -21 4 -41 14 -44 22 -3 7 -11 14 -19 14 -7 0 -17 6 -21
14 -5 8 -34 15 -71 19 -42 3 -87 17 -136 40 -46 22 -83 33 -98 30 -14 -3 -31
2 -40 10 -9 10 -54 20 -119 28 -82 10 -108 17 -125 34 -19 20 -36 22 -165 28
-192 9 -713 7 -769 -4z m-3340 -5763 c0 -12 -11 -38 -24 -57 -81 -113 -106
-154 -106 -176 0 -16 -17 -44 -44 -74 -54 -60 -81 -107 -137 -239 -35 -82 -49
-105 -74 -117 -16 -9 -53 -33 -81 -55 l-51 -38 -102 0 c-82 0 -109 -4 -141
-20 -27 -14 -59 -20 -105 -20 -63 0 -66 1 -63 22 4 26 61 68 94 68 14 0 37 17
65 51 37 44 46 50 71 45 24 -5 41 5 115 65 49 39 114 86 145 106 44 27 62 46
82 87 35 71 124 156 164 156 36 0 91 57 149 156 20 35 38 64 40 64 2 0 3 -11
3 -24z"/>
<path d="M8053 7633 c15 -2 37 -2 50 0 12 2 0 4 -28 4 -27 0 -38 -2 -22 -4z"/>
</g>
</svg>
