<?xml version="1.0" standalone="no"?>
<!DOCTYPE svg PUBLIC "-//W3C//DTD SVG 20010904//EN"
 "http://www.w3.org/TR/2001/REC-SVG-20010904/DTD/svg10.dtd">
<svg version="1.0" xmlns="http://www.w3.org/2000/svg"
 width="1536.000000pt" height="1205.000000pt" viewBox="0 0 1536.000000 1205.000000"
 preserveAspectRatio="xMidYMid meet">
<metadata>
Created by potrace 1.16, written by Peter Selinger 2001-2019
</metadata>
<g transform="translate(0.000000,1205.000000) scale(0.100000,-0.100000)"
fill="#000000" stroke="none">
<path d="M140 11969 c29 -46 69 -109 88 -139 19 -30 46 -86 59 -125 36 -102
32 -166 -16 -290 -50 -126 -61 -220 -61 -507 l0 -213 34 -117 35 -117 -22 -93
c-21 -84 -22 -98 -10 -140 13 -45 12 -53 -27 -190 -23 -79 -68 -226 -100 -328
-41 -129 -60 -208 -63 -260 -3 -41 -18 -120 -32 -175 -32 -115 -32 -105 19
-445 l33 -225 138 -260 c154 -291 155 -293 829 -1179 450 -591 426 -554 471
-711 15 -49 51 -152 80 -227 51 -129 70 -161 306 -520 660 -1002 782 -1179
895 -1303 60 -65 120 -131 134 -148 l25 -29 -37 -522 c-20 -286 -62 -847 -93
-1246 l-56 -725 -59 -155 c-32 -85 -73 -197 -91 -247 -41 -111 -40 -111 -186
-57 -89 33 -108 37 -203 38 -79 1 -118 -4 -158 -18 -65 -22 -162 -100 -296
-234 l-98 -100 27 -183 c15 -101 30 -187 33 -191 4 -3 94 -36 201 -73 l194
-66 196 -14 c108 -8 293 -15 411 -15 l215 0 293 69 c161 37 294 70 296 72 2 2
80 207 173 454 168 444 174 462 428 1330 l257 880 190 385 c182 370 190 389
210 493 14 73 24 107 32 104 7 -3 127 -39 266 -81 l254 -76 616 -35 c338 -19
750 -47 915 -61 l300 -27 335 17 c184 9 372 19 417 21 l83 5 133 -66 134 -67
323 -706 c311 -678 561 -1241 597 -1342 21 -59 18 -65 -88 -192 -185 -222
-266 -299 -561 -531 -157 -124 -290 -226 -295 -226 -4 0 -115 41 -246 90 -131
50 -244 90 -251 90 -21 0 -191 -82 -287 -137 -119 -69 -249 -212 -249 -274 0
-35 42 -70 164 -138 83 -46 98 -51 155 -51 34 0 185 -21 334 -46 l272 -46 225
12 c738 39 1310 90 1329 118 3 5 229 264 501 577 272 312 498 577 502 589 12
36 78 395 78 426 0 50 -112 327 -310 765 l-81 180 -21 200 -20 200 72 210 c40
116 73 211 74 212 0 0 64 10 141 22 132 19 141 19 157 3 9 -9 123 -159 255
-333 l238 -316 185 -164 c301 -268 397 -347 447 -373 97 -48 680 -299 1073
-461 223 -92 466 -192 540 -223 109 -45 169 -78 310 -173 96 -65 205 -146 242
-181 l68 -63 66 -498 c36 -274 63 -501 60 -504 -3 -3 -67 -12 -141 -19 -75 -7
-142 -17 -149 -23 -7 -6 -28 -44 -47 -83 -33 -71 -34 -76 -34 -204 0 -116 2
-134 19 -153 26 -28 95 -48 219 -61 100 -11 112 -10 553 49 248 34 456 61 462
61 6 0 52 125 102 278 l91 277 -35 417 -35 416 -156 537 -156 536 -109 197
c-95 173 -127 219 -255 377 -179 220 -302 385 -375 502 -30 48 -137 197 -237
331 l-182 244 -262 576 -262 577 -38 230 c-58 346 -133 573 -305 917 -63 125
-114 232 -114 237 0 5 120 93 268 195 l267 185 117 160 c104 142 131 189 244
418 193 393 212 442 220 578 7 111 1 130 -103 314 -230 409 -293 500 -377 541
-72 34 -389 52 -486 27 -43 -11 -47 -16 -87 -92 -48 -90 -103 -249 -103 -296
0 -38 19 -114 72 -292 l41 -138 -49 -52 c-178 -186 -253 -269 -320 -353 -120
-151 -206 -231 -372 -344 -84 -58 -159 -106 -167 -108 -8 -2 -178 60 -377 139
-200 78 -514 195 -700 259 l-336 118 -324 7 c-191 4 -457 2 -653 -4 -225 -8
-370 -8 -455 -1 -69 5 -296 21 -505 35 -209 14 -391 27 -405 30 -28 5 -1069
126 -1550 180 -286 32 -362 36 -825 48 l-510 14 -195 72 c-168 63 -226 91
-423 203 -256 145 -270 152 -627 302 -140 59 -347 152 -460 208 l-205 100 -90
105 -91 104 -33 407 -33 407 17 135 c13 104 16 183 13 350 l-5 215 -67 160
c-37 88 -83 186 -102 219 -19 32 -46 93 -60 135 l-25 77 21 56 c27 73 100 171
213 286 67 68 86 92 72 92 -11 0 -69 -5 -130 -10 l-110 -11 -238 -237 -237
-237 -197 -355 c-155 -282 -282 -495 -319 -539 -2 -2 -69 4 -149 14 -126 15
-171 16 -323 6 -163 -10 -183 -9 -251 8 -40 11 -77 23 -81 28 -22 24 -232 344
-340 518 l-123 200 -134 120 c-131 117 -137 124 -285 342 -132 195 -154 223
-177 223 -14 0 -43 3 -64 7 l-39 6 52 -84z"/>
</g>
</svg>
