<?xml version="1.0" standalone="no"?>
<!DOCTYPE svg PUBLIC "-//W3C//DTD SVG 20010904//EN"
 "http://www.w3.org/TR/2001/REC-SVG-20010904/DTD/svg10.dtd">
<svg version="1.0" xmlns="http://www.w3.org/2000/svg"
 width="1536.000000pt" height="1372.000000pt" viewBox="0 0 1536.000000 1372.000000"
 preserveAspectRatio="xMidYMid meet">
<metadata>
Created by potrace 1.16, written by Peter Selinger 2001-2019
</metadata>
<g transform="translate(0.000000,1372.000000) scale(0.100000,-0.100000)"
fill="#000000" stroke="none">
<path d="M153 13699 c-65 -41 -139 -236 -150 -389 -15 -236 93 -661 226 -888
l48 -82 -33 -88 c-40 -104 -43 -166 -15 -293 23 -103 39 -143 92 -231 l40 -66
-30 -166 c-61 -332 -62 -385 -10 -586 38 -150 45 -214 29 -304 -11 -67 -10
-83 9 -175 12 -56 25 -136 29 -179 7 -72 9 -77 32 -82 14 -3 50 -21 80 -41 30
-19 93 -56 140 -82 106 -57 126 -77 110 -108 -13 -23 -15 -23 35 -3 10 4 15 0
15 -11 0 -14 6 -16 39 -10 39 6 40 6 50 -32 6 -21 17 -63 25 -94 9 -30 36 -86
61 -124 24 -38 52 -94 60 -124 47 -165 150 -482 170 -522 12 -25 96 -160 186
-300 156 -242 231 -376 292 -519 15 -36 38 -83 51 -105 l24 -40 10 35 9 35 11
-25 c16 -40 118 -172 284 -366 267 -313 265 -309 425 -659 134 -294 163 -348
417 -764 279 -456 629 -1047 669 -1127 78 -157 85 -212 97 -779 17 -814 15
-900 -30 -1310 -21 -198 -46 -448 -55 -555 -23 -285 -40 -400 -91 -600 -55
-219 -100 -352 -198 -582 -129 -302 -172 -387 -203 -394 -14 -4 -128 0 -252 9
l-225 15 -101 -71 c-55 -39 -124 -90 -154 -115 -30 -24 -73 -53 -95 -64 -78
-39 -126 -99 -128 -161 -1 -39 10 -77 23 -77 5 0 41 16 80 36 39 19 72 34 73
32 2 -2 16 -27 31 -56 16 -29 42 -61 59 -72 37 -22 135 -40 226 -40 36 0 131
-7 212 -15 170 -17 281 -10 473 30 66 14 139 25 162 25 69 0 99 35 119 139 23
127 61 192 206 355 124 141 176 245 244 491 66 238 76 255 151 255 47 0 110
29 143 64 24 26 25 34 31 204 7 187 26 314 165 1097 110 617 143 776 175 843
26 54 36 102 70 335 63 429 87 610 103 775 10 109 19 161 32 180 16 24 18 25
24 6 4 -10 31 -147 60 -304 l53 -285 -14 -925 c-17 -1138 -17 -1199 -1 -1485
32 -540 -42 -1197 -160 -1417 -32 -60 -44 -68 -147 -104 -95 -33 -134 -78
-216 -248 -109 -227 -141 -311 -125 -330 7 -9 27 -16 45 -16 21 0 46 -11 71
-31 42 -33 52 -34 151 -3 51 16 54 16 115 -7 87 -33 272 -33 362 -1 56 21 61
21 148 6 56 -9 110 -13 140 -9 44 6 50 11 69 47 57 111 82 287 99 679 10 243
15 283 51 428 11 46 24 138 29 205 10 140 26 192 78 255 l37 45 6 386 6 385
46 266 c85 491 124 790 212 1634 67 641 99 858 156 1042 38 126 123 360 159
440 35 76 24 73 335 108 391 44 464 55 640 90 187 37 325 55 635 81 l205 17
132 -35 c73 -19 133 -30 133 -25 0 5 -14 34 -32 65 l-31 55 134 -6 c177 -8
226 -19 339 -72 120 -56 123 -57 130 -20 6 32 23 37 28 8 8 -39 21 -31 77 44
32 43 106 126 164 184 112 112 159 143 296 192 39 14 139 53 224 87 344 137
470 170 657 170 69 0 74 -2 131 -44 74 -54 84 -69 166 -231 117 -235 512 -967
599 -1110 284 -470 374 -600 648 -935 331 -405 490 -575 963 -1029 l302 -289
102 -188 c137 -253 213 -414 263 -559 l42 -120 -7 -265 -6 -265 -46 -130
c-103 -295 -130 -354 -192 -433 -60 -75 -72 -79 -256 -84 -159 -4 -160 -5
-235 -40 -88 -42 -112 -62 -173 -144 -26 -34 -76 -85 -111 -113 -36 -28 -73
-63 -83 -77 -16 -25 -16 -27 3 -41 13 -10 33 -12 70 -7 l51 6 6 -54 c3 -29 13
-70 23 -90 17 -36 17 -38 -1 -58 -11 -12 -53 -45 -95 -75 -41 -29 -94 -73
-118 -97 l-43 -45 33 -43 c61 -79 153 -106 329 -96 96 6 112 4 180 -20 54 -18
103 -27 184 -31 116 -6 397 10 503 28 59 11 66 15 97 58 19 25 51 80 72 121
35 70 37 81 41 190 l4 115 68 130 c37 72 93 193 123 270 53 135 524 1526 607
1790 86 277 97 404 47 557 -13 43 -20 75 -13 71 58 -34 131 -102 147 -137 l19
-41 0 32 c0 45 15 49 62 17 77 -54 139 -182 179 -369 14 -71 24 -86 33 -51 3
14 11 37 16 52 l11 27 24 -23 c19 -18 26 -20 29 -9 2 8 7 95 11 194 6 186 24
407 50 604 8 63 20 198 27 300 15 234 16 1217 2 1366 -12 121 -10 142 12 124
18 -15 18 -10 -1 127 -9 60 -29 230 -46 377 -16 148 -40 326 -54 395 -13 70
-50 271 -80 447 -31 176 -67 365 -80 420 -43 173 -27 276 43 283 l33 3 -7 48
c-6 44 -4 49 16 54 22 6 23 10 17 64 -18 164 -113 506 -224 808 -92 250 -110
285 -281 544 -138 208 -214 301 -403 488 l-144 142 -205 89 c-398 174 -636
254 -1195 402 -126 34 -323 88 -438 121 -114 33 -251 69 -305 79 -105 20 -361
51 -592 72 -185 17 -984 16 -1320 0 -504 -25 -782 -43 -1025 -67 -137 -14
-349 -34 -470 -45 -279 -26 -449 -44 -700 -76 l-199 -25 -166 21 c-153 20
-180 21 -380 11 -118 -6 -238 -13 -266 -15 -76 -6 -365 11 -376 22 -5 5 -3 14
7 22 30 25 14 30 -92 30 -174 0 -348 -34 -646 -127 l-149 -46 -196 17 c-494
43 -640 75 -774 171 -68 49 -114 70 -245 114 -143 46 -249 98 -304 148 -22 20
-73 87 -113 147 -134 204 -456 747 -467 789 -21 80 27 232 110 342 65 85 71
104 71 207 -1 51 -5 138 -10 193 l-9 100 94 187 c118 236 135 288 135 424 0
128 -23 310 -50 391 -48 148 -85 203 -146 223 -48 16 -89 -9 -229 -140 -159
-149 -203 -186 -310 -260 -49 -35 -173 -126 -275 -204 -252 -193 -221 -178
-332 -166 -171 18 -208 14 -323 -31 l-104 -40 -93 10 c-51 6 -212 15 -358 21
-473 19 -501 25 -587 127 -93 113 -229 240 -321 302 -102 68 -227 172 -442
364 -78 70 -145 127 -148 127 -4 0 -22 -10 -39 -21z m13686 -8594 c44 -113
110 -363 141 -534 11 -63 20 -118 20 -123 0 -24 19 -3 30 35 l13 42 8 -41 c25
-138 48 -157 64 -54 l10 63 19 -54 c23 -65 57 -136 164 -339 44 -85 103 -207
130 -270 53 -125 108 -235 144 -289 20 -31 7 -25 -117 59 -339 229 -431 378
-540 870 -23 104 -123 626 -139 725 -9 57 6 31 53 -90z"/>
</g>
</svg>
