<?xml version="1.0" standalone="no"?>
<!DOCTYPE svg PUBLIC "-//W3C//DTD SVG 20010904//EN"
 "http://www.w3.org/TR/2001/REC-SVG-20010904/DTD/svg10.dtd">
<svg version="1.0" xmlns="http://www.w3.org/2000/svg"
 width="1523.000000pt" height="1536.000000pt" viewBox="0 0 1523.000000 1536.000000"
 preserveAspectRatio="xMidYMid meet">
<metadata>
Created by potrace 1.16, written by Peter Selinger 2001-2019
</metadata>
<g transform="translate(0.000000,1536.000000) scale(0.100000,-0.100000)"
fill="#000000" stroke="none">
<path d="M5065 15349 c-53 -16 -146 -28 -315 -39 -214 -15 -298 -32 -388 -76
l-74 -36 -77 12 c-92 15 -98 13 -222 -86 -108 -86 -157 -108 -218 -100 -151
22 -136 24 -194 -35 -28 -30 -80 -86 -114 -126 -80 -91 -145 -126 -239 -127
l-64 -1 -53 -80 c-61 -93 -96 -117 -172 -119 -47 0 -55 -3 -65 -26 -7 -14 -14
-52 -17 -85 -3 -33 -10 -67 -14 -77 -8 -15 -44 -29 -145 -57 -54 -14 -78 -43
-119 -140 -19 -46 -40 -90 -47 -98 -17 -21 -70 -43 -103 -43 -16 0 -28 -7 -31
-17 -3 -10 -22 -52 -41 -93 -48 -101 -167 -220 -269 -270 l-72 -35 -5 -52 c-8
-74 -34 -126 -116 -228 -88 -108 -105 -140 -121 -227 -12 -66 -23 -87 -104
-202 -36 -51 -42 -72 -69 -243 -8 -51 -27 -117 -42 -150 -15 -32 -30 -82 -34
-111 l-6 -53 -67 -23 c-81 -28 -177 -95 -243 -168 -27 -29 -105 -129 -175
-223 -154 -206 -216 -267 -390 -380 -168 -109 -219 -152 -316 -268 -103 -123
-188 -254 -225 -352 -27 -68 -30 -88 -24 -135 18 -153 19 -141 -26 -246 -37
-86 -44 -111 -47 -185 l-4 -85 41 -13 c25 -7 71 -38 115 -76 41 -36 86 -69
101 -75 42 -16 255 -12 476 10 112 11 235 22 273 26 80 7 159 26 336 78 108
32 146 38 285 47 260 15 430 -3 535 -56 111 -56 160 -123 261 -357 188 -434
841 -1744 1309 -2628 95 -179 217 -419 272 -535 139 -294 217 -442 302 -570
126 -189 202 -260 496 -461 168 -115 244 -187 367 -351 213 -283 262 -388 437
-936 225 -702 286 -1098 341 -2207 30 -616 14 -852 -76 -1122 -65 -195 -122
-277 -260 -374 -43 -30 -95 -74 -116 -98 -42 -48 -197 -332 -189 -345 3 -5 25
-14 49 -20 69 -17 73 -29 32 -97 -19 -32 -35 -68 -35 -81 0 -23 1 -23 133 -23
145 0 230 16 376 69 105 38 163 72 227 132 59 56 91 116 106 197 10 55 9 66
-22 159 -29 90 -31 105 -20 137 16 50 49 86 130 145 l69 50 20 -34 c11 -19 27
-35 35 -35 8 0 30 26 49 57 27 47 40 60 69 67 l35 9 7 216 c19 592 65 1064
201 2046 24 176 58 426 75 555 17 129 33 236 34 238 4 3 160 -450 239 -693
142 -438 207 -798 207 -1142 0 -236 -23 -384 -84 -533 -60 -150 -134 -236
-311 -360 -63 -45 -140 -104 -171 -132 -55 -51 -114 -127 -114 -147 0 -6 17
-11 38 -11 20 0 44 -5 52 -10 12 -8 11 -13 -8 -39 -12 -17 -23 -41 -25 -53 -2
-23 -1 -23 163 -31 238 -11 382 -4 452 22 100 38 248 218 248 302 0 19 -5 61
-10 92 -17 87 -1 129 73 202 62 60 146 135 152 135 1 0 6 -12 10 -27 9 -38 23
-53 50 -53 26 0 32 16 42 110 l6 60 32 -20 c18 -11 40 -20 50 -20 17 0 18 10
12 143 -7 164 -22 227 -72 289 -103 126 -119 244 -138 998 -20 832 -14 1215
32 1950 l16 265 150 -2 c185 -3 433 -22 945 -73 722 -72 1078 -90 1395 -71
599 36 859 109 1242 348 229 144 446 302 655 477 l66 56 82 -122 c94 -141 223
-399 304 -605 66 -166 405 -1184 442 -1323 44 -169 55 -265 61 -510 11 -454
-33 -1068 -92 -1303 -60 -235 -127 -368 -247 -490 -50 -50 -91 -101 -98 -121
-13 -41 -61 -117 -110 -176 -52 -62 -150 -200 -150 -211 0 -5 22 -8 49 -8 73
2 77 -6 31 -62 -23 -26 -39 -53 -36 -58 18 -28 378 -19 521 14 204 47 320 141
361 292 19 70 20 49 -16 323 -16 118 19 220 111 326 29 32 55 60 59 62 3 1 12
-9 18 -23 15 -33 35 -32 95 7 27 18 62 31 79 31 l31 0 -7 161 c-4 89 -21 316
-38 506 -28 300 -32 388 -32 670 -1 271 2 343 17 434 28 163 26 161 79 85 241
-341 378 -935 378 -1633 0 -607 -97 -1134 -280 -1526 -33 -69 -62 -147 -65
-174 -5 -38 -16 -58 -49 -95 -96 -105 -216 -267 -216 -290 0 -3 29 -17 65 -30
36 -14 65 -28 65 -32 0 -3 -7 -12 -15 -19 -20 -17 -19 -37 3 -44 111 -33 355
-39 465 -13 161 39 262 120 335 266 51 100 53 135 15 242 -26 72 -27 81 -15
135 11 53 27 84 131 251 l39 63 37 -30 c68 -54 105 -33 105 61 0 32 3 59 8 59
4 -1 18 -7 32 -15 14 -8 29 -14 34 -15 5 0 7 30 4 68 -4 57 -15 89 -69 202
l-64 135 1 125 c0 111 5 144 41 295 23 94 51 229 63 300 12 72 44 254 71 405
51 284 92 559 104 690 4 41 20 172 37 290 40 284 38 417 -7 499 -16 29 -79
106 -138 170 -154 164 -185 202 -269 326 -140 207 -213 362 -267 566 -65 244
-118 653 -128 994 -8 287 8 394 132 865 35 135 78 313 95 395 18 83 69 281
115 440 110 386 120 437 120 615 0 133 -3 152 -28 225 -15 44 -46 111 -68 149
-21 38 -37 71 -35 73 2 2 19 -2 37 -10 68 -29 164 -113 274 -242 62 -72 135
-151 162 -175 45 -40 153 -100 181 -100 18 0 16 197 -4 274 -19 74 -80 207
-125 273 -123 180 -434 403 -864 620 -286 144 -318 162 -595 343 -348 228
-475 296 -656 353 -112 35 -234 48 -477 48 -298 0 -445 -20 -1037 -136 -696
-137 -785 -146 -1540 -146 -949 0 -1366 28 -1935 131 -418 76 -1852 380 -2245
477 -946 232 -1212 337 -1700 668 -107 72 -310 209 -450 305 -283 191 -339
234 -518 395 -209 186 -337 267 -505 316 l-74 22 14 56 c97 376 306 822 534
1139 223 309 498 589 772 785 429 308 993 529 1597 627 214 35 291 53 377 87
59 24 62 27 57 52 -12 46 -51 114 -92 162 l-41 46 -128 6 c-73 4 -179 17 -248
32 -122 26 -216 30 -270 14z"/>
</g>
</svg>
