<?xml version="1.0" standalone="no"?>
<!DOCTYPE svg PUBLIC "-//W3C//DTD SVG 20010904//EN"
 "http://www.w3.org/TR/2001/REC-SVG-20010904/DTD/svg10.dtd">
<svg version="1.0" xmlns="http://www.w3.org/2000/svg"
 width="1536.000000pt" height="756.000000pt" viewBox="0 0 1536.000000 756.000000"
 preserveAspectRatio="xMidYMid meet">
<metadata>
Created by potrace 1.16, written by Peter Selinger 2001-2019
</metadata>
<g transform="translate(0.000000,756.000000) scale(0.100000,-0.100000)"
fill="#000000" stroke="none">
<path d="M10625 7548 c-82 -4 -224 -19 -315 -33 -99 -15 -247 -29 -370 -34
-215 -9 -290 -23 -518 -96 -70 -22 -78 -23 -89 -9 -11 15 -17 14 -59 -11 -46
-27 -47 -27 -41 -6 6 24 -2 23 -72 -5 -43 -18 -44 -18 -38 6 6 25 12 25 -108
-9 -69 -19 -140 -50 -224 -95 -68 -37 -173 -87 -233 -112 -90 -36 -112 -42
-128 -32 -15 10 -25 7 -59 -15 -54 -36 -140 -69 -159 -62 -8 3 -44 -11 -80
-30 -36 -20 -100 -49 -143 -65 -42 -15 -104 -43 -136 -62 -32 -19 -95 -49
-138 -66 -44 -17 -102 -41 -130 -54 l-50 -23 -640 -1 c-466 -1 -654 -4 -690
-13 -129 -31 -421 -119 -620 -187 -121 -40 -240 -77 -265 -80 -32 -4 -69 0
-123 16 -145 40 -601 100 -817 106 l-195 6 -160 48 c-88 27 -186 52 -219 57
-55 8 -59 10 -70 42 -15 45 -49 69 -116 79 -66 10 -128 -3 -215 -44 -59 -28
-62 -28 -225 -26 -146 3 -172 1 -225 -18 -33 -12 -114 -28 -180 -35 -173 -21
-171 -21 -185 21 -7 21 -22 40 -37 47 -15 6 -37 35 -54 70 -26 50 -37 62 -77
79 -64 29 -128 33 -195 14 -65 -19 -122 -75 -209 -208 -52 -78 -107 -138 -128
-138 -25 0 -197 -153 -291 -257 -130 -145 -192 -198 -410 -349 -188 -130 -207
-151 -251 -285 -14 -45 -47 -102 -102 -180 -74 -105 -89 -120 -181 -183 -121
-83 -200 -121 -368 -176 -136 -45 -171 -67 -246 -154 -39 -45 -41 -50 -41
-114 0 -60 6 -79 56 -187 30 -66 67 -133 82 -149 39 -41 212 -179 276 -220
124 -79 109 -76 399 -82 250 -6 269 -5 426 20 138 23 183 26 285 21 66 -3 407
-7 756 -9 710 -4 726 -5 850 -74 82 -45 193 -115 245 -156 88 -68 199 -200
264 -314 47 -82 76 -121 108 -145 62 -47 227 -268 331 -446 107 -184 135 -221
165 -221 15 0 69 -41 152 -115 128 -113 155 -130 155 -99 0 9 39 -17 103 -69
56 -46 143 -114 192 -152 124 -94 224 -185 241 -217 12 -23 39 -243 59 -493
11 -127 -7 -222 -67 -360 -51 -119 -96 -193 -251 -413 -69 -98 -92 -123 -178
-188 -55 -41 -117 -81 -139 -89 -22 -8 -119 -30 -217 -50 -154 -32 -192 -43
-282 -87 -89 -44 -116 -63 -192 -140 -87 -87 -98 -103 -102 -163 -2 -25 2 -30
24 -33 14 -2 86 17 159 42 73 26 136 46 141 46 5 0 -14 -22 -41 -48 -55 -53
-63 -82 -28 -106 34 -24 61 -20 140 20 73 37 148 67 148 59 0 -2 -8 -20 -17
-40 -17 -35 -17 -36 8 -61 24 -23 27 -24 64 -10 22 7 100 42 174 76 74 34 152
68 174 76 43 15 203 19 211 6 3 -5 -13 -26 -34 -47 -22 -22 -40 -49 -40 -60 0
-26 29 -55 56 -55 15 0 19 -7 19 -32 0 -26 5 -34 32 -44 29 -12 34 -11 70 15
41 29 97 61 108 61 4 0 -5 -14 -19 -31 -32 -38 -32 -44 0 -65 24 -16 27 -16
56 1 35 20 143 55 173 55 18 0 18 -1 -3 -16 -25 -17 -28 -42 -8 -69 13 -18 17
-17 107 16 108 39 115 39 439 20 113 -7 284 -12 380 -11 96 1 203 -2 236 -5
82 -9 116 7 223 110 86 81 170 197 191 261 12 34 13 35 31 18 18 -16 19 -16
19 5 0 12 4 20 9 17 4 -3 27 34 49 82 22 48 48 96 56 107 15 19 15 19 16 -10
2 -50 100 166 164 359 31 93 66 188 79 211 35 63 93 301 80 334 -8 23 -5 30
32 66 41 39 75 111 105 223 10 40 13 42 25 26 12 -17 14 -15 24 21 6 22 11 72
11 110 0 42 5 76 12 83 7 7 40 12 77 12 55 0 71 -5 112 -31 50 -32 69 -31 69
2 0 17 7 19 65 19 37 0 65 4 65 10 0 6 11 8 28 4 22 -5 25 -4 15 7 -21 21 -15
29 22 29 28 0 35 4 35 19 0 29 122 69 280 92 148 22 193 25 210 14 7 -4 14 1
17 13 5 19 7 20 49 7 25 -7 51 -19 59 -25 22 -18 35 -3 35 42 l0 41 48 -6 c26
-4 121 -18 212 -32 226 -35 265 -39 364 -30 68 5 86 10 86 22 0 14 17 15 125
11 103 -4 125 -2 125 9 0 12 22 14 118 11 64 -2 125 -7 136 -12 16 -8 17 -6
11 12 -9 30 9 28 81 -8 74 -37 156 -117 166 -162 4 -18 12 -132 18 -253 15
-286 6 -374 -51 -527 -23 -62 -47 -133 -54 -158 -30 -110 -51 -141 -153 -221
-134 -106 -151 -114 -287 -144 -109 -24 -123 -29 -151 -61 -17 -19 -41 -60
-53 -92 -11 -32 -52 -99 -92 -151 -81 -107 -89 -125 -89 -187 l0 -45 33 24
c46 34 69 41 65 19 -5 -32 9 -41 46 -30 48 15 59 7 74 -46 6 -26 19 -49 28
-53 24 -9 48 10 54 43 6 35 48 53 127 53 71 1 80 -3 75 -43 -4 -32 16 -66 39
-66 5 0 30 19 54 41 l45 41 130 -12 c71 -6 133 -9 137 -7 4 3 53 10 108 17 77
9 126 22 214 57 63 25 149 51 191 57 111 18 167 52 228 139 27 40 76 104 109
143 36 43 89 127 135 215 69 132 78 156 108 289 26 118 45 173 100 295 42 92
84 208 111 300 23 83 51 170 61 195 22 51 53 84 70 74 8 -5 9 2 5 22 -8 41 36
220 53 216 7 -2 44 -22 82 -44 76 -45 209 -181 366 -374 82 -101 93 -119 120
-205 46 -144 49 -226 17 -454 -23 -161 -31 -200 -58 -252 -30 -61 -33 -64
-106 -94 -122 -50 -137 -58 -182 -100 -23 -21 -65 -50 -93 -62 -106 -49 -266
-243 -266 -323 0 -48 13 -58 40 -29 27 29 37 30 76 10 16 -8 43 -15 61 -15 29
0 31 -2 30 -34 -1 -39 17 -66 44 -66 20 0 53 28 61 51 3 10 12 9 45 -4 23 -9
64 -19 92 -23 45 -6 51 -9 51 -30 0 -37 42 -42 88 -10 42 29 87 34 96 11 8
-21 61 -19 94 4 21 15 70 24 233 40 217 22 316 44 390 85 24 14 76 35 114 47
104 32 205 88 205 114 0 5 10 28 21 50 12 22 26 73 31 115 11 94 43 174 115
292 31 51 68 118 81 148 14 30 33 63 43 73 9 10 19 35 22 55 6 39 78 286 98
334 9 22 14 26 25 17 12 -10 14 -1 14 50 0 34 13 119 30 189 16 70 43 199 60
287 17 88 46 203 63 255 l32 95 6 -195 c6 -181 9 -205 43 -334 20 -76 36 -141
36 -143 0 -3 9 -3 19 0 21 5 35 -20 67 -122 14 -44 37 -76 141 -190 69 -75
136 -158 150 -186 44 -85 100 -161 156 -209 30 -25 57 -46 61 -46 3 0 6 11 6
25 0 24 2 23 78 -25 42 -28 81 -50 85 -50 5 0 26 -14 47 -31 38 -30 40 -31 64
-16 24 16 26 15 113 -65 89 -82 195 -158 220 -158 7 0 16 7 19 15 5 12 9 13
20 4 21 -17 25 -7 14 32 -16 54 -13 71 10 64 13 -4 22 -1 26 10 5 12 10 13 20
4 27 -22 34 2 34 122 0 88 3 118 11 113 9 -5 11 24 7 113 -6 139 -13 158 -127
346 -39 65 -71 123 -71 128 0 6 9 8 20 4 19 -6 18 -4 -4 62 -68 199 -206 542
-271 675 -41 82 -75 157 -75 166 0 8 7 23 16 33 14 16 11 34 -36 221 -48 194
-105 351 -206 576 -30 66 -31 73 -14 67 23 -7 24 -10 -40 135 -23 52 -77 191
-120 310 -106 289 -378 908 -546 1241 -39 79 -72 223 -55 243 6 7 6 18 1 26
-5 8 -7 18 -4 22 3 4 -36 78 -86 164 -50 86 -89 159 -86 161 12 12 -69 160
-142 258 -44 61 -76 112 -72 115 5 3 -13 38 -41 78 -82 118 -265 253 -826 609
-164 104 -329 207 -368 228 -38 21 -160 89 -270 150 -204 115 -327 167 -640
270 -192 64 -308 73 -670 53z"/>
</g>
</svg>
