<?xml version="1.0" standalone="no"?>
<!DOCTYPE svg PUBLIC "-//W3C//DTD SVG 20010904//EN"
 "http://www.w3.org/TR/2001/REC-SVG-20010904/DTD/svg10.dtd">
<svg version="1.0" xmlns="http://www.w3.org/2000/svg"
 width="2866.000000pt" height="2398.000000pt" viewBox="0 0 2866.000000 2398.000000"
 preserveAspectRatio="xMidYMid meet">
<metadata>
Created by potrace 1.16, written by Peter Selinger 2001-2019
</metadata>
<g transform="translate(0.000000,2398.000000) scale(0.100000,-0.100000)"
fill="#000000" stroke="none">
<path d="M3680 23960 c-217 -10 -474 -23 -570 -29 -193 -12 -401 -47 -470 -79
-58 -26 -117 -36 -390 -67 -124 -14 -268 -32 -321 -40 l-96 -14 -342 -205
c-336 -201 -394 -242 -591 -416 -41 -37 -118 -101 -171 -142 l-95 -76 -82 8
c-46 5 -107 14 -137 20 -30 6 -64 8 -76 5 -32 -10 -57 -79 -73 -201 -16 -125
-20 -108 79 -323 l57 -124 -66 -146 c-70 -157 -127 -355 -127 -446 0 -27 5
-125 11 -216 13 -188 11 -199 -50 -339 -21 -49 -66 -193 -101 -322 l-64 -233
0 -145 c0 -140 1 -147 28 -195 58 -105 124 -183 195 -230 38 -25 118 -96 178
-158 l109 -112 84 -250 84 -250 238 -235 c255 -253 257 -254 478 -610 l65
-105 12 -410 c16 -527 22 -646 40 -722 38 -171 125 -745 188 -1243 52 -411 97
-720 131 -906 20 -104 35 -155 75 -243 215 -478 560 -1330 655 -1621 50 -154
146 -409 208 -550 109 -252 151 -318 325 -513 152 -171 362 -370 498 -472 370
-279 963 -778 1090 -918 63 -69 320 -539 1432 -2620 113 -212 294 -487 761
-1157 239 -344 269 -383 501 -661 108 -129 303 -367 435 -529 260 -322 371
-450 573 -667 135 -145 214 -210 472 -389 63 -44 284 -219 490 -390 206 -170
447 -368 535 -439 257 -208 938 -795 1117 -962 179 -167 594 -455 1211 -842
556 -348 576 -360 672 -396 216 -80 484 -147 984 -246 430 -85 965 -204 1321
-296 402 -103 941 -225 1450 -327 198 -40 586 -139 647 -166 12 -5 100 -71
195 -148 96 -76 183 -142 193 -146 11 -4 98 -16 195 -26 172 -18 203 -25 450
-103 82 -25 117 -30 255 -36 170 -6 186 -11 239 -70 25 -28 114 -60 186 -68
43 -4 79 0 137 15 43 11 116 25 163 31 78 9 198 44 260 76 37 19 100 80 100
97 0 7 -22 49 -49 92 -27 43 -55 101 -61 129 -24 103 -65 167 -240 377 -278
333 -279 334 -441 434 -79 49 -245 154 -369 234 l-225 144 245 -6 c868 -21
1679 -28 1896 -17 292 15 849 56 1117 81 312 30 1162 163 1377 216 100 25 661
219 1240 429 l265 96 265 158 c146 87 303 180 350 206 96 54 296 181 573 362
232 152 633 472 841 673 83 79 264 255 402 390 l251 245 281 372 c265 350 290
387 441 650 140 244 178 321 309 623 134 309 161 379 252 675 99 320 104 339
156 650 45 262 61 393 90 725 34 390 35 416 30 720 -7 379 -42 854 -92 1260
-53 430 -106 623 -297 1070 -21 49 -41 64 -126 94 l-73 26 -62 -33 c-84 -45
-99 -78 -104 -217 -2 -66 4 -166 17 -268 20 -162 20 -162 0 -460 -35 -531
-110 -1081 -224 -1627 l-44 -210 -209 -436 -209 -435 -245 -365 c-287 -426
-407 -577 -711 -897 -181 -190 -245 -250 -347 -326 -250 -184 -269 -195 -615
-349 -181 -80 -555 -252 -830 -382 l-500 -236 -565 -151 c-564 -150 -566 -150
-1000 -223 l-435 -73 -420 -11 c-231 -6 -436 -11 -456 -11 l-36 0 5 93 c4 86
3 97 -23 147 -15 30 -60 98 -99 150 -40 52 -92 128 -115 168 -23 40 -53 79
-66 88 -37 24 -164 30 -207 10 l-36 -17 -50 35 c-39 28 -51 44 -56 72 -14 71
-97 214 -171 292 -68 72 -72 75 -130 83 -78 11 -190 45 -210 65 -8 8 -18 34
-21 57 -5 33 -18 53 -60 95 l-54 52 -290 0 c-278 0 -296 1 -391 25 -149 38
-259 74 -304 100 -22 12 -112 60 -200 105 -223 115 -242 126 -315 185 -36 29
-155 115 -265 191 -157 108 -239 173 -380 304 -99 91 -295 269 -435 395 -140
127 -311 284 -380 350 -110 107 -149 136 -330 250 -317 199 -368 233 -468 307
-155 117 -206 144 -636 342 -124 57 -269 133 -331 172 -154 98 -202 127 -434
253 -112 61 -332 196 -490 299 -157 104 -331 212 -386 241 -132 70 -195 116
-346 254 -158 144 -230 225 -298 335 -77 126 -138 211 -397 557 -127 171 -255
351 -284 400 -30 50 -101 162 -158 250 -58 88 -375 609 -704 1158 -562 939
-600 1005 -632 1105 -49 154 -63 210 -85 367 -25 171 -25 162 -1 140 16 -14
23 -16 32 -7 9 9 8 19 -6 43 l-18 31 26 -17 c14 -10 33 -15 41 -11 27 10 23
33 -64 400 l-19 79 48 -48 c45 -45 70 -52 70 -19 0 7 -21 60 -46 116 -58 129
-84 230 -123 483 -17 110 -41 251 -52 314 l-22 113 -87 117 c-177 238 -278
349 -416 457 -71 56 -163 137 -204 180 -77 81 -210 271 -295 424 -26 47 -121
209 -210 360 -321 545 -383 659 -416 769 -29 93 -86 195 -196 350 -119 166
-204 267 -374 446 -178 186 -227 244 -349 409 -56 77 -179 239 -273 360 -465
601 -659 880 -687 986 -18 68 -104 225 -256 467 -365 580 -440 717 -454 829
-5 38 -14 194 -19 346 -11 273 -11 279 -50 430 -33 129 -64 232 -164 545 -9
28 -53 62 -291 227 -155 106 -384 263 -511 348 -261 175 -202 153 -600 228
-115 22 -298 58 -405 80 -108 22 -235 42 -285 45 -49 2 -268 -5 -485 -15z"/>
</g>
</svg>
