<?xml version="1.0" standalone="no"?>
<!DOCTYPE svg PUBLIC "-//W3C//DTD SVG 20010904//EN"
 "http://www.w3.org/TR/2001/REC-SVG-20010904/DTD/svg10.dtd">
<svg version="1.0" xmlns="http://www.w3.org/2000/svg"
 width="1536.000000pt" height="974.000000pt" viewBox="0 0 1536.000000 974.000000"
 preserveAspectRatio="xMidYMid meet">
<metadata>
Created by potrace 1.16, written by Peter Selinger 2001-2019
</metadata>
<g transform="translate(0.000000,974.000000) scale(0.100000,-0.100000)"
fill="#000000" stroke="none">
<path d="M1691 9696 c-91 -132 -137 -370 -112 -580 8 -69 8 -93 -2 -104 -12
-15 -132 -112 -155 -126 -14 -9 -52 19 -52 39 0 6 26 42 58 79 31 38 63 78 71
90 19 30 -53 -50 -101 -111 -36 -48 -42 -52 -71 -46 -18 3 -34 7 -36 9 -7 6
53 74 109 123 33 29 60 58 60 64 0 15 -146 -130 -168 -166 -14 -23 -114 -87
-136 -87 -13 0 40 73 79 109 25 23 41 41 36 41 -14 0 -86 -79 -123 -134 -33
-49 -98 -108 -98 -88 0 6 21 41 46 79 58 87 56 83 50 83 -8 0 -85 -115 -102
-153 -9 -18 -23 -45 -31 -62 -14 -25 -15 -42 -5 -124 6 -53 9 -97 7 -99 -2 -2
-12 9 -22 24 -14 22 -18 48 -18 114 0 79 3 93 36 158 19 40 32 72 29 72 -4 0
-22 -33 -41 -72 -26 -58 -34 -89 -37 -148 -3 -68 -1 -80 27 -134 34 -65 36
-78 19 -160 -11 -56 -12 -58 -67 -86 -31 -16 -52 -29 -48 -30 4 0 26 9 48 21
23 11 42 19 44 17 1 -2 -4 -18 -11 -35 -11 -26 -31 -41 -91 -72 -43 -22 -74
-40 -70 -41 4 0 30 12 58 26 28 14 53 24 54 22 10 -9 -51 -70 -83 -84 -42 -17
-80 -51 -124 -109 -21 -28 -16 -24 16 12 43 47 112 100 120 92 11 -12 -96
-148 -147 -188 -85 -65 -110 -89 -54 -49 90 63 93 65 81 48 -6 -8 -28 -41 -49
-73 -31 -48 -49 -64 -106 -92 -37 -19 -70 -39 -73 -44 -4 -5 18 4 46 20 29 16
57 29 61 29 12 0 -107 -142 -140 -166 -15 -12 -36 -37 -46 -55 -17 -33 -17
-33 0 -10 50 68 49 56 -1 -44 -31 -60 -72 -135 -92 -165 -20 -30 -41 -75 -46
-100 -4 -24 -19 -61 -33 -82 -28 -42 -34 -63 -9 -32 15 18 15 18 9 -10 -7 -35
-29 -67 -103 -155 -74 -87 -92 -129 -92 -218 0 -57 -7 -89 -30 -148 -40 -102
-39 -141 6 -213 67 -106 138 -161 208 -162 28 0 29 0 22 -48 -9 -70 5 -84 93
-93 60 -5 79 -12 114 -38 136 -103 155 -107 272 -61 51 20 93 30 129 30 87 0
174 -47 197 -107 15 -39 10 -141 -11 -233 -11 -47 -19 -94 -19 -105 0 -11 12
30 25 90 17 73 24 132 22 177 -3 74 7 76 43 7 26 -52 24 -73 -17 -207 -27 -88
-37 -139 -39 -207 l-4 -90 9 90 c7 73 38 197 77 305 11 31 24 -35 22 -110 -6
-206 -3 -254 19 -320 13 -36 30 -76 38 -90 17 -27 16 -24 -23 80 -27 72 -39
198 -26 270 l9 45 62 -118 c58 -108 100 -228 103 -296 1 -22 2 -22 6 -5 4 20
-17 124 -33 169 -4 11 11 -2 34 -29 33 -40 42 -60 48 -105 9 -75 24 -111 17
-41 l-6 55 28 -28 c15 -15 50 -35 76 -44 29 -11 49 -24 49 -33 1 -8 8 -28 16
-45 8 -16 12 -22 9 -12 -3 11 -8 30 -11 43 l-6 23 45 -15 c32 -11 52 -26 70
-53 14 -20 50 -66 82 -102 31 -35 68 -86 81 -114 13 -27 24 -44 24 -37 0 25
-39 88 -95 152 -112 129 -114 139 -18 120 54 -11 60 -15 85 -58 15 -26 44 -73
64 -104 23 -36 39 -75 44 -110 7 -47 8 -48 9 -15 1 48 -14 83 -78 181 -55 85
-61 100 -33 92 9 -2 44 -7 76 -11 48 -6 65 -13 87 -36 36 -39 61 -115 70 -219
l8 -85 -3 96 c-3 96 -4 100 -64 222 -2 5 6 7 18 5 32 -4 48 -56 64 -203 8 -66
14 -102 15 -80 2 60 -17 198 -34 244 l-14 41 37 0 c20 0 60 -3 89 -6 l52 -7 4
-56 3 -56 2 58 2 57 60 0 60 0 0 -36 c0 -19 -18 -89 -41 -156 -22 -66 -38
-122 -36 -124 8 -8 87 246 87 279 0 31 4 35 31 41 17 3 35 6 40 6 18 0 8 -47
-27 -130 -74 -175 -84 -209 -84 -275 0 -35 3 -66 8 -68 4 -3 5 22 4 56 -5 72
5 109 64 239 24 54 47 116 50 139 7 43 9 44 66 52 l37 6 4 -57 3 -57 2 56 c2
52 4 57 28 63 15 4 29 4 32 1 3 -3 7 -29 10 -59 6 -74 -16 -140 -91 -276 -36
-63 -68 -126 -71 -140 -8 -28 61 98 127 230 42 85 43 92 47 246 0 7 13 14 30
16 29 4 29 4 33 -46 l3 -51 2 57 c2 49 5 59 30 76 55 38 54 39 48 -24 l-5 -59
12 63 12 64 37 -74 c20 -40 44 -92 53 -115 10 -24 21 -43 25 -43 17 0 19 -31
5 -71 -8 -23 -15 -47 -14 -53 0 -6 9 12 19 39 15 42 19 47 26 30 4 -11 29 -48
55 -82 26 -34 55 -85 64 -114 10 -29 46 -94 80 -144 77 -112 94 -145 105 -198
7 -35 8 -37 9 -12 1 41 -28 102 -93 193 -112 161 -121 210 -17 96 132 -144
148 -172 171 -299 15 -84 19 -95 14 -45 -3 36 -10 82 -15 104 -6 21 -8 40 -6
43 3 2 21 -12 41 -32 33 -33 36 -41 38 -98 1 -49 2 -53 5 -19 5 52 25 56 53
10 15 -25 19 -45 15 -88 -4 -49 -3 -50 4 -13 10 58 19 63 46 29 18 -22 24 -45
27 -100 4 -62 54 -253 64 -243 2 2 -9 48 -26 102 -17 56 -30 119 -30 149 l1
51 19 -24 c11 -13 20 -32 20 -43 0 -10 4 -17 8 -14 5 3 72 -59 149 -137 108
-111 147 -157 175 -212 57 -110 80 -174 88 -250 7 -69 7 -69 9 -17 1 65 -26
150 -84 260 l-44 83 31 -22 c17 -12 61 -52 98 -88 64 -63 69 -70 89 -147 12
-45 26 -115 31 -155 l9 -74 -4 76 c-2 42 -13 111 -25 154 -12 42 -20 79 -18
81 3 2 23 -10 46 -27 39 -28 42 -35 43 -77 0 -26 5 -69 9 -97 6 -37 7 -28 3
38 -3 48 -2 87 2 87 14 0 65 -35 65 -45 10 -214 33 -345 60 -345 4 0 -2 19
-13 42 -16 32 -22 69 -26 155 -7 126 -2 162 17 127 6 -11 22 -67 36 -123 14
-56 34 -121 44 -144 21 -46 68 -107 83 -107 6 0 -6 16 -25 36 -20 20 -44 60
-55 89 -16 43 -61 214 -61 232 0 7 111 -56 134 -76 10 -9 32 -43 48 -76 17
-33 40 -73 51 -89 11 -15 33 -51 48 -80 16 -28 29 -46 29 -40 0 6 -18 39 -40
75 -67 107 -102 179 -87 179 30 0 120 -55 139 -84 14 -23 18 -25 13 -8 -8 28
-5 28 54 -3 32 -16 53 -34 60 -52 l11 -28 -5 27 c-3 16 -4 28 -2 28 2 0 23 -7
48 -15 l44 -15 -1 -63 -1 -62 4 58 c3 48 7 57 23 57 58 0 64 -40 29 -181 -24
-96 -32 -112 -99 -216 -28 -41 -50 -80 -50 -86 0 -6 16 16 36 49 19 32 41 66
49 74 7 8 22 33 33 55 l21 40 1 -30 c0 -43 -19 -107 -40 -130 -24 -27 -50 -80
-50 -102 1 -10 7 -1 14 19 8 21 22 50 32 65 l19 28 3 -89 c2 -66 -2 -100 -14
-130 -20 -50 -28 -186 -17 -286 8 -65 9 -54 9 85 -1 102 3 167 10 179 17 28
24 -68 26 -369 2 -240 2 -253 -22 -325 -22 -71 -24 -89 -25 -350 -1 -283 -4
-307 -38 -375 -16 -32 -17 -37 -3 -26 14 12 16 10 16 -13 0 -15 -7 -40 -15
-56 -9 -17 -13 -30 -10 -30 2 0 -7 -26 -21 -57 -15 -32 -27 -63 -27 -70 0 -7
-5 -9 -10 -6 -6 4 -8 -1 -4 -11 4 -9 3 -15 -2 -12 -10 6 -25 -24 -16 -32 3 -3
5 1 5 8 0 7 2 11 5 8 8 -8 -44 -147 -70 -188 -29 -46 -44 -58 -102 -80 -26
-11 -40 -19 -29 -20 42 -1 -7 -28 -72 -40 -133 -24 -173 -51 -295 -197 -92
-109 -91 -113 21 -113 39 0 72 -4 72 -8 0 -5 -18 -34 -40 -66 -22 -31 -40 -61
-40 -67 0 -14 40 -27 147 -45 141 -24 310 -15 473 26 71 17 171 34 231 39 172
12 185 31 176 250 -5 115 -2 150 15 228 14 59 26 93 34 93 22 0 41 -41 53
-109 17 -102 34 -111 100 -55 55 47 82 104 89 181 3 39 9 60 15 56 7 -4 7 0 2
13 -5 10 -11 44 -13 74 -4 47 -2 53 11 42 8 -7 18 -24 22 -39 3 -14 8 -23 11
-20 3 2 -7 34 -22 70 -21 52 -25 71 -17 89 l10 23 13 -25 c8 -14 17 -41 21
-60 l7 -35 1 36 c1 23 -7 46 -20 63 -17 21 -20 36 -16 68 3 22 10 45 15 50 14
14 41 -29 51 -83 l9 -44 1 36 c1 24 -8 49 -25 75 -20 29 -25 46 -20 72 7 45
12 49 37 26 27 -24 41 -51 50 -94 l7 -35 1 31 c1 33 -50 124 -70 124 -8 0 -10
14 -4 48 4 26 6 77 6 114 -1 36 1 68 6 71 12 7 94 -118 103 -156 8 -30 8 -30
9 -5 1 17 -16 52 -45 95 -43 62 -49 78 -72 198 -14 71 -25 168 -26 215 0 83 1
88 63 230 99 230 111 238 112 88 0 -67 3 -96 9 -83 12 27 12 121 0 170 -9 36
-6 48 31 125 l41 85 14 -35 c13 -31 13 -32 8 -5 -9 37 -8 48 5 105 6 25 11 77
12 115 1 59 14 146 18 123 0 -4 8 -33 17 -65 9 -32 20 -121 24 -198 l8 -140
-3 140 c-2 110 -8 156 -25 215 -13 41 -24 109 -26 150 l-3 75 43 -89 c49 -98
83 -228 95 -356 8 -78 8 -80 10 -27 2 119 -58 339 -125 453 -20 34 -24 54 -22
96 l3 53 53 -102 c29 -57 54 -103 57 -103 3 0 -23 55 -57 122 -59 117 -62 127
-66 210 -2 48 -1 95 3 105 6 15 9 14 21 -12 8 -16 12 -21 8 -10 -32 112 -41
209 -25 280 7 30 7 29 24 -20 9 -27 34 -116 56 -196 51 -187 70 -242 85 -254
31 -25 59 -101 66 -184 7 -83 33 -171 51 -171 4 0 -3 24 -16 53 -14 28 -24 68
-24 87 l1 35 15 -35 c27 -60 52 -171 60 -260 7 -80 8 -82 13 -35 l5 50 18 -67
c36 -139 43 -332 17 -443 -5 -22 -9 -67 -8 -100 1 -55 1 -52 9 29 5 49 11 91
13 93 2 2 7 -22 11 -54 4 -32 15 -99 25 -149 56 -272 43 -406 -56 -609 -55
-111 -56 -112 -181 -145 -108 -28 -213 -72 -213 -89 0 -4 26 -22 57 -39 l56
-30 -47 -33 c-26 -19 -87 -61 -134 -94 -48 -34 -87 -67 -87 -75 0 -17 178
-108 264 -135 56 -19 78 -18 499 1 l132 7 20 32 c24 40 111 122 168 160 l42
28 0 106 c0 101 1 108 30 151 16 25 30 51 30 58 0 9 5 10 19 2 35 -18 105 -12
130 11 22 21 23 28 20 138 -2 126 5 186 27 216 14 19 14 19 29 -1 17 -23 18
-19 5 25 -10 35 -4 81 10 81 12 0 39 -76 54 -155 8 -38 14 -59 15 -45 1 41
-23 129 -62 226 -26 65 -36 101 -32 125 4 27 3 29 -3 9 -8 -23 -9 -23 -14 -5
-3 11 -20 58 -37 105 -33 89 -26 95 15 14 14 -27 22 -38 18 -24 -3 14 -26 56
-51 94 -43 65 -88 177 -80 200 2 6 18 -14 35 -44 18 -30 32 -50 32 -44 0 7
-16 36 -35 64 -20 29 -40 74 -46 99 -15 67 -17 501 -2 526 10 17 12 14 17 -25
3 -25 8 -70 9 -100 3 -50 3 -49 5 15 1 39 -5 103 -14 144 -12 61 -13 91 -4
162 6 49 13 95 16 103 16 40 87 -54 103 -135 7 -36 9 -39 10 -14 1 43 -41 127
-81 161 -33 27 -36 34 -42 102 -3 39 -3 72 0 72 4 0 23 -12 43 -26 34 -24 34
-24 -5 13 -24 22 -61 75 -87 125 l-46 88 59 -30 c33 -17 65 -30 72 -30 6 0
-24 17 -68 39 -68 33 -115 73 -101 87 2 3 31 9 64 15 60 11 61 11 107 -24 41
-32 149 -68 162 -54 3 2 -22 9 -53 16 -61 12 -141 57 -126 71 4 5 81 19 170
31 89 13 157 26 151 30 -5 4 25 18 68 33 43 14 80 24 83 21 7 -8 -57 -61 -114
-95 -27 -16 -45 -30 -39 -30 17 0 100 56 147 99 53 50 214 107 322 116 l70 5
-130 -44 c-71 -24 -125 -44 -120 -45 6 0 53 13 105 30 190 61 321 90 430 94
l105 5 -115 -30 c-63 -16 -141 -34 -173 -40 -32 -7 -57 -14 -54 -16 5 -5 172
29 297 61 130 33 174 40 410 70 113 14 229 32 258 39 46 12 52 12 42 0 -21
-25 -113 -64 -200 -84 -56 -13 -68 -18 -36 -14 79 9 170 41 225 79 28 19 55
35 60 35 5 0 152 47 327 105 175 58 322 104 327 102 6 -2 -13 -18 -42 -36 -28
-18 -51 -35 -51 -38 0 -6 39 18 85 52 17 12 51 29 78 38 39 13 47 13 47 2 0
-25 -74 -101 -115 -118 -79 -33 -151 -113 -169 -187 -4 -14 4 -2 18 26 28 60
81 116 136 144 22 11 41 20 42 20 2 0 -24 -56 -59 -125 -55 -113 -146 -353
-124 -329 5 5 23 52 40 104 45 135 53 143 45 38 -7 -93 7 -178 32 -199 8 -6
14 -21 15 -33 1 -19 2 -18 8 4 14 45 42 91 51 85 6 -4 10 3 10 15 0 43 105
205 128 197 4 -1 28 14 52 34 25 20 75 50 113 67 37 17 67 34 67 37 0 3 -23
-6 -51 -21 -28 -14 -53 -23 -56 -21 -6 6 82 48 109 52 71 9 443 140 661 231
387 163 603 294 907 552 52 45 98 78 101 74 3 -4 16 -58 28 -121 26 -132 63
-255 97 -322 24 -48 79 -119 193 -250 169 -194 263 -396 312 -675 19 -108 23
-165 23 -344 0 -258 -5 -294 -110 -717 -95 -385 -118 -450 -190 -537 -55 -67
-65 -94 -12 -33 27 30 27 29 -8 -38 -60 -115 -94 -163 -143 -206 -31 -28 -35
-34 -13 -19 18 12 35 20 38 18 2 -3 -18 -30 -45 -60 -26 -31 -58 -71 -70 -89
-20 -30 -20 -31 -2 -11 11 13 30 36 41 50 12 15 -4 -22 -35 -83 -31 -60 -68
-123 -83 -139 -37 -39 -93 -62 -206 -86 -107 -22 -199 -57 -193 -74 2 -5 29
-24 61 -40 55 -30 56 -31 30 -38 -15 -4 -58 -10 -96 -14 -37 -4 -68 -10 -68
-15 0 -19 57 -72 101 -95 66 -33 132 -49 307 -74 81 -12 191 -32 244 -46 149
-37 203 -31 277 32 54 45 102 129 171 296 67 161 116 252 131 242 16 -10 10
-44 -17 -90 -31 -53 -26 -74 16 -74 71 0 116 46 185 188 21 45 42 82 46 82 12
0 20 -49 15 -88 l-5 -37 10 37 c8 26 8 47 1 67 -9 25 -7 32 13 51 13 12 28 19
33 16 17 -10 35 -95 29 -142 -3 -29 -1 -41 4 -33 15 23 10 96 -10 148 -14 37
-16 53 -7 67 6 11 13 53 16 94 l5 75 24 -33 c13 -18 27 -57 31 -85 7 -45 8
-47 9 -15 1 46 -13 86 -44 118 -25 26 -49 79 -41 88 3 3 14 -1 23 -9 10 -8 1
6 -20 29 -21 24 -36 50 -34 57 3 7 -1 30 -8 51 -28 78 -9 243 46 409 45 134
140 320 206 402 32 39 87 106 122 150 35 43 74 101 86 128 l23 50 6 -80 c4
-44 19 -165 34 -270 23 -170 26 -217 24 -451 -3 -455 -19 -566 -94 -629 -16
-14 -26 -25 -22 -25 4 0 16 7 26 17 14 13 18 13 18 2 0 -22 -45 -113 -64 -128
-9 -8 -31 -33 -47 -55 l-31 -41 38 43 c22 23 42 42 46 42 17 0 -64 -165 -100
-204 -22 -24 -45 -54 -51 -67 l-12 -24 18 25 c10 13 28 36 40 50 l23 25 -6
-35 c-3 -19 -16 -56 -28 -82 -13 -26 -19 -49 -15 -50 12 -5 -89 -169 -129
-211 -21 -21 -68 -55 -107 -74 -100 -51 -234 -144 -309 -214 -63 -58 -143
-165 -133 -175 3 -3 78 -9 167 -12 l162 -7 -63 -85 c-60 -82 -109 -158 -109
-172 0 -3 30 -10 67 -14 102 -11 210 9 337 62 61 25 183 75 271 110 170 68
244 114 279 174 17 29 22 59 26 175 7 153 14 177 88 313 45 83 52 78 52 -35
l0 -63 49 0 c97 0 138 66 171 274 29 180 43 202 59 90 7 -48 9 -52 10 -21 0
21 -4 58 -10 82 -12 48 -8 79 14 109 14 19 15 19 28 -5 7 -13 16 -55 19 -94
l7 -70 2 61 c1 48 -4 71 -25 110 -16 31 -24 57 -21 74 3 14 19 88 35 165 l29
140 31 -50 c18 -28 32 -45 32 -39 0 6 -13 29 -28 50 -21 29 -34 67 -50 149
-12 61 -22 115 -22 120 1 6 14 -18 30 -53 41 -88 44 -77 5 15 -49 113 -62 237
-46 436 28 364 96 685 247 1167 27 86 38 139 41 211 7 116 -5 148 -94 259
-129 161 -158 243 -156 445 1 173 23 266 114 482 110 262 129 316 164 448 62
236 83 404 95 750 10 292 20 341 124 614 92 239 104 327 66 476 -24 94 -56
153 -165 305 -85 119 -110 160 -99 160 4 0 37 -11 75 -25 245 -88 296 -178
319 -563 14 -236 -8 -466 -65 -667 -20 -70 -81 -373 -96 -474 -14 -99 -6 -256
16 -321 8 -25 12 -31 9 -15 -25 133 -32 279 -14 320 7 17 9 15 9 -11 1 -17 11
-66 22 -110 12 -43 25 -99 29 -124 6 -35 8 -39 9 -15 1 27 6 23 56 -55 142
-220 203 -381 211 -560 7 -136 -8 -209 -84 -420 -75 -209 -76 -213 -52 -165
10 22 41 103 67 180 28 83 49 131 51 118 5 -33 -26 -246 -49 -337 -29 -114
-58 -164 -140 -240 -39 -36 -68 -66 -63 -66 5 0 39 30 77 67 l69 68 -22 -45
c-12 -25 -53 -88 -91 -141 -64 -89 -120 -206 -118 -247 0 -9 8 8 18 38 20 63
66 156 81 165 5 3 -4 -30 -20 -75 -33 -90 -57 -213 -42 -218 6 -2 6 -18 1 -40
-5 -20 -8 -73 -8 -117 1 -69 2 -75 10 -40 4 22 8 67 9 100 0 68 2 71 50 104
19 14 74 58 123 98 48 41 87 72 87 69 0 -3 -22 -34 -49 -70 -84 -110 -169
-272 -157 -299 2 -7 5 -5 5 4 2 36 93 201 163 294 75 100 138 164 198 199 l33
19 -24 -42 c-12 -23 -45 -67 -73 -99 l-50 -57 45 43 c25 23 60 68 79 100 19
31 44 63 55 71 11 8 43 37 71 66 150 152 231 415 222 722 -4 125 -9 162 -33
238 -15 50 -36 121 -47 158 -10 38 -30 91 -44 118 -13 27 -31 73 -39 102 -12
42 -15 45 -11 15 3 -21 20 -73 39 -115 60 -134 52 -132 -41 8 -50 74 -95 154
-102 177 -12 45 -90 214 -90 195 0 -6 18 -49 40 -94 51 -106 51 -129 0 -59
-63 88 -113 190 -127 260 l-12 65 5 -55 5 -55 -25 41 c-43 70 -52 120 -32 184
10 30 19 62 22 70 2 8 -5 -3 -16 -25 -11 -22 -20 -48 -20 -57 0 -40 -20 -24
-30 27 -14 67 -4 107 75 300 128 314 162 539 136 899 -41 557 -166 759 -554
895 -199 70 -340 92 -422 67 -64 -20 -172 -20 -333 -1 -110 14 -149 14 -295 2
-205 -16 -273 -10 -408 38 -167 60 -229 75 -304 75 -104 0 -180 15 -385 75
-102 29 -212 59 -245 66 -92 20 -279 14 -497 -15 -108 -14 -246 -28 -305 -32
-113 -7 -340 9 -427 29 l-51 11 40 7 c36 6 34 7 -20 7 -34 0 -172 24 -320 55
-143 31 -280 60 -305 65 l-45 9 40 8 c24 5 87 3 155 -4 178 -20 224 -22 120
-5 -93 15 -203 20 -365 16 -90 -2 -320 17 -350 29 -12 4 45 9 135 10 128 2
141 3 75 8 -44 3 -120 3 -170 -1 -295 -23 -627 -20 -550 5 17 5 140 13 275 16
l245 7 -206 2 c-151 2 -230 -2 -300 -14 -69 -12 -131 -15 -239 -11 -132 4
-303 29 -323 47 -15 13 85 32 203 40 l115 7 -90 1 c-55 1 -117 -5 -160 -15
-125 -30 -247 -14 -429 58 l-71 28 90 2 90 2 -120 6 c-111 6 -125 9 -183 40
-34 19 -60 36 -58 38 2 2 32 -1 66 -7 34 -6 64 -9 66 -7 2 2 -34 11 -82 21
-59 11 -117 32 -187 68 -105 52 -218 98 -240 97 -6 0 15 -10 48 -22 79 -30
206 -89 201 -94 -3 -3 -176 59 -283 102 -24 9 -40 21 -37 26 3 5 -6 9 -20 9
-29 0 -192 52 -238 76 l-33 18 25 6 c17 5 8 7 -30 8 -47 1 -179 38 -197 55 -3
3 15 11 38 18 46 12 238 8 273 -7 13 -5 17 -4 13 3 -17 28 -236 33 -309 8 -45
-15 -92 -12 -103 6 -3 4 16 19 42 33 26 13 57 32 68 41 11 9 -7 1 -40 -16 -33
-18 -64 -36 -70 -41 -15 -13 -43 -9 -139 20 l-91 27 45 6 c44 6 44 6 -15 8
-70 2 -172 22 -267 52 -71 22 -84 35 -45 42 12 2 -6 2 -40 -1 -39 -3 -96 2
-154 13 l-92 18 39 24 c55 33 139 63 204 72 43 7 48 9 19 10 -51 2 -133 -25
-216 -70 -67 -36 -122 -51 -109 -30 4 5 41 28 84 51 42 23 82 46 87 52 9 10
-93 -43 -162 -84 -22 -13 -46 -18 -75 -16 l-43 3 56 26 c52 24 145 97 136 106
-2 2 -21 -13 -43 -33 -88 -84 -172 -101 -432 -88 -158 7 -182 17 -57 24 43 3
45 4 15 7 -19 3 -77 -3 -128 -13 -75 -14 -107 -15 -170 -7 -43 6 -84 6 -94 2
-9 -5 -49 -9 -89 -9 -63 0 -70 2 -59 16 8 8 44 33 82 55 37 22 68 42 68 45 0
8 -104 -54 -142 -86 -29 -23 -60 -36 -129 -51 -50 -11 -93 -18 -96 -16 -2 3
18 21 45 41 27 20 56 43 63 53 8 9 -20 -9 -61 -39 -70 -53 -85 -60 -240 -103
-91 -26 -216 -62 -277 -80 -62 -17 -113 -29 -113 -25 0 5 23 29 51 54 67 60
161 104 334 156 77 23 147 46 155 52 12 8 11 8 -4 4 -10 -4 -80 -25 -155 -47
-210 -63 -315 -120 -388 -212 -10 -13 -63 -41 -121 -64 l-103 -42 39 47 c84
100 202 200 322 272 92 55 100 68 11 18 -99 -56 -198 -137 -303 -247 -94 -99
-181 -171 -193 -159 -2 2 12 33 33 68 47 82 160 197 235 239 71 41 76 52 5 14
-74 -39 -206 -174 -248 -253 -19 -35 -54 -83 -78 -106 -45 -45 -162 -111 -209
-119 -148 -26 -155 -21 -63 42 77 51 150 123 150 146 0 6 -9 -2 -19 -19 -31
-50 -210 -184 -246 -184 -33 0 -65 12 -59 21 3 5 -12 9 -33 10 -21 0 -65 10
-98 23 l-60 23 -6 64 -6 64 -1 -58 c-3 -79 -23 -71 -37 16 -11 66 -54 145 -86
156 -7 2 3 -15 23 -38 37 -43 60 -107 51 -141 -7 -25 -9 -25 -60 2 -35 19 -43
28 -43 51 0 47 -29 94 -93 152 -33 30 -65 55 -70 55 -5 0 16 -20 46 -45 71
-57 98 -95 105 -147 4 -34 2 -40 -9 -36 -8 3 -42 14 -76 23 -36 10 -79 32
-106 54 -25 20 -65 52 -90 71 -25 19 -53 47 -63 62 -10 15 -20 25 -22 23 -9
-9 47 -68 104 -110 34 -26 68 -53 75 -61 17 -20 -7 -19 -124 10 -114 27 -149
53 -172 126 -7 25 -14 36 -14 26 -2 -38 38 -101 81 -130 32 -21 37 -27 18 -22
-14 3 -44 6 -67 6 -34 0 -43 4 -44 18 0 10 -3 12 -6 5 -3 -9 -27 -13 -68 -13
-62 0 -64 1 -68 28 l-4 27 -2 -26 c-1 -30 -27 -39 -107 -39 l-44 0 0 70 c0 78
-18 133 -48 149 -31 17 -39 13 -13 -5 34 -24 51 -74 51 -148 0 -72 7 -67 -102
-81 -45 -6 -48 -5 -49 17 -1 23 -1 23 -8 -2 -5 -19 -16 -26 -44 -31 -20 -3
-37 -2 -37 3 0 5 -7 3 -15 -5 -7 -8 -30 -18 -49 -21 -34 -6 -39 -3 -93 52 -52
53 -53 53 -10 6 51 -57 56 -69 31 -78 -33 -13 -53 -5 -89 35 -63 70 -91 149
-140 391 -14 67 -27 123 -29 125 -2 3 -18 -16 -35 -41z"/>
<path d="M5525 9631 c-60 -17 -150 -59 -143 -66 2 -2 30 9 62 25 77 37 156 53
243 48 39 -1 69 0 66 5 -8 14 -168 6 -228 -12z"/>
<path d="M6608 9613 c12 -2 32 -2 45 0 12 2 2 4 -23 4 -25 0 -35 -2 -22 -4z"/>
<path d="M5793 9553 c9 -2 25 -2 35 0 9 3 1 5 -18 5 -19 0 -27 -2 -17 -5z"/>
<path d="M6642 9491 c54 -5 119 -11 145 -14 40 -5 43 -5 18 3 -16 6 -82 12
-145 14 l-115 5 97 -8z"/>
<path d="M2468 9431 c17 -18 32 -37 32 -43 0 -6 3 -9 6 -6 8 9 -26 57 -50 70
-13 7 -9 0 12 -21z"/>
<path d="M2560 9443 c0 -7 4 -14 9 -18 5 -3 28 -33 50 -66 23 -34 41 -57 41
-51 0 5 -22 40 -50 78 -27 38 -50 63 -50 57z"/>
<path d="M4066 9397 c-65 -117 -159 -247 -222 -307 -37 -34 -59 -58 -48 -52
36 19 126 116 174 187 58 87 133 215 128 220 -2 2 -16 -19 -32 -48z"/>
<path d="M2163 9392 c15 -19 30 -46 33 -60 9 -43 12 -49 13 -24 1 30 -21 72
-50 97 -19 17 -19 14 4 -13z"/>
<path d="M6960 9400 l-55 -7 52 -1 c28 -1 55 3 58 8 3 6 5 9 3 8 -2 -1 -28 -4
-58 -8z"/>
<path d="M2035 9358 c15 -12 36 -35 46 -52 10 -17 19 -25 19 -19 0 16 -69 93
-83 93 -5 0 3 -10 18 -22z"/>
<path d="M2512 9350 c0 -14 2 -19 5 -12 2 6 2 18 0 25 -3 6 -5 1 -5 -13z"/>
<path d="M7418 9233 c23 -2 59 -2 80 0 20 2 1 4 -43 4 -44 0 -61 -2 -37 -4z"/>
<path d="M7553 9223 c9 -2 23 -2 30 0 6 3 -1 5 -18 5 -16 0 -22 -2 -12 -5z"/>
<path d="M7697 9185 c56 -19 134 -50 173 -70 40 -20 74 -34 76 -32 12 12 -294
137 -335 137 -9 0 30 -16 86 -35z"/>
<path d="M7638 9103 c6 -2 18 -2 25 0 6 3 1 5 -13 5 -14 0 -19 -2 -12 -5z"/>
<path d="M8455 8860 c-27 -7 -27 -8 -5 -8 14 0 36 4 50 8 20 6 21 8 5 8 -11 0
-33 -4 -50 -8z"/>
<path d="M10883 8463 c9 -2 25 -2 35 0 9 3 1 5 -18 5 -19 0 -27 -2 -17 -5z"/>
<path d="M14882 5950 c0 -14 2 -19 5 -12 2 6 2 18 0 25 -3 6 -5 1 -5 -13z"/>
<path d="M14620 5619 c0 -22 45 -107 109 -207 30 -45 62 -106 72 -135 14 -37
17 -42 13 -17 -8 45 -35 97 -98 190 -27 41 -60 100 -73 130 -12 30 -23 48 -23
39z"/>
<path d="M14822 5200 c0 -14 2 -19 5 -12 2 6 2 18 0 25 -3 6 -5 1 -5 -13z"/>
<path d="M14833 5135 c0 -22 2 -30 4 -17 2 12 2 30 0 40 -3 9 -5 -1 -4 -23z"/>
<path d="M1373 5095 c0 -33 2 -45 4 -27 2 18 2 45 0 60 -2 15 -4 0 -4 -33z"/>
<path d="M1440 5104 c0 -18 61 -108 129 -189 37 -44 75 -91 84 -105 9 -13 17
-20 17 -16 0 12 -41 66 -107 142 -29 33 -68 87 -88 119 -19 32 -35 54 -35 49z"/>
<path d="M14844 5005 c0 -49 1 -71 3 -48 2 23 2 64 0 90 -2 26 -3 8 -3 -42z"/>
<path d="M1610 5039 c0 -3 22 -46 50 -95 27 -49 50 -85 50 -80 0 5 -16 39 -37
75 -39 71 -63 109 -63 100z"/>
<path d="M2777 4877 c-26 -84 -47 -156 -47 -162 1 -5 23 58 50 140 28 83 49
155 47 162 -1 6 -24 -57 -50 -140z"/>
<path d="M2582 4894 c-7 -28 -29 -75 -48 -105 -33 -52 -33 -53 -4 -19 32 37
73 132 68 159 -2 8 -9 -8 -16 -35z"/>
<path d="M2947 4886 c-3 -19 -28 -86 -56 -150 -28 -63 -53 -129 -56 -148 l-5
-33 11 35 c6 19 33 86 61 148 44 102 69 182 56 182 -3 0 -8 -15 -11 -34z"/>
<path d="M2257 4868 c-4 -26 -15 -72 -26 -103 -21 -61 -20 -75 3 -21 19 46 40
140 34 157 -3 8 -8 -7 -11 -33z"/>
<path d="M3012 4773 c-2 -52 4 -89 19 -130 21 -57 127 -229 136 -220 2 3 -17
34 -42 70 -72 104 -98 169 -106 267 l-6 85 -1 -72z"/>
<path d="M2946 4763 c-11 -62 -18 -118 -13 -113 7 7 28 133 23 138 -2 2 -7 -9
-10 -25z"/>
<path d="M3441 4195 c0 -17 -5 -46 -11 -64 -5 -19 -8 -37 -5 -39 8 -8 26 80
22 106 -4 26 -4 26 -6 -3z"/>
<path d="M3516 4041 c3 -52 9 -102 14 -110 7 -11 8 -7 4 14 -3 17 -9 66 -14
110 l-9 80 5 -94z"/>
<path d="M3662 4050 c0 -14 2 -19 5 -12 2 6 2 18 0 25 -3 6 -5 1 -5 -13z"/>
<path d="M3670 4015 c0 -25 66 -119 150 -215 54 -61 105 -130 121 -165 16 -33
29 -53 29 -45 0 31 -68 132 -150 225 -47 53 -100 122 -117 153 -18 31 -33 53
-33 47z"/>
<path d="M14514 3733 c-4 -38 -2 -117 4 -178 10 -108 67 -382 81 -398 4 -4 -7
56 -25 134 -42 178 -58 320 -50 426 7 100 1 111 -10 16z"/>
<path d="M8575 3760 c-14 -7 -8 -8 20 -3 22 3 42 7 44 9 9 8 -45 2 -64 -6z"/>
<path d="M9794 3738 c-4 -7 -23 -37 -41 -65 -19 -29 -31 -53 -29 -53 8 0 87
122 82 127 -2 2 -8 -2 -12 -9z"/>
<path d="M3972 3540 c0 -19 2 -27 5 -17 2 9 2 25 0 35 -3 9 -5 1 -5 -18z"/>
<path d="M9554 3465 c0 -55 1 -76 3 -47 2 29 2 74 0 100 -2 26 -3 2 -3 -53z"/>
<path d="M14616 3489 c-3 -17 -5 -48 -5 -68 1 -24 4 -15 10 29 9 68 6 92 -5
39z"/>
<path d="M9673 3425 c0 -44 2 -61 4 -37 2 23 2 59 0 80 -2 20 -4 1 -4 -43z"/>
<path d="M9623 3375 c0 -33 2 -45 4 -27 2 18 2 45 0 60 -2 15 -4 0 -4 -33z"/>
<path d="M4273 3310 c0 -41 2 -58 4 -37 2 20 2 54 0 75 -2 20 -4 3 -4 -38z"/>
<path d="M9541 3337 c-2 -39 -27 -97 -59 -132 l-27 -30 32 29 c37 33 67 102
60 137 -4 22 -4 22 -6 -4z"/>
<path d="M9660 3303 c-1 -21 -7 -56 -15 -78 -19 -51 -18 -57 1 -22 16 30 32
137 20 137 -3 0 -6 -17 -6 -37z"/>
<path d="M9606 3270 c-10 -65 -39 -122 -87 -177 -42 -46 -42 -47 -5 -13 21 19
48 53 61 75 26 44 50 126 43 147 -3 7 -8 -7 -12 -32z"/>
<path d="M4731 3245 c0 -5 8 -26 19 -45 11 -19 19 -30 19 -25 0 6 -8 26 -19
45 -11 19 -19 31 -19 25z"/>
<path d="M4858 3070 c2 -69 5 -129 7 -135 7 -19 3 200 -4 230 -4 17 -6 -26 -3
-95z"/>
<path d="M7076 3177 c3 -10 9 -15 12 -12 3 3 0 11 -7 18 -10 9 -11 8 -5 -6z"/>
<path d="M5961 3169 c-1 -4 23 -58 53 -120 30 -63 55 -109 55 -104 0 12 -107
233 -108 224z"/>
<path d="M4770 3156 c0 -2 7 -23 16 -47 9 -24 20 -82 24 -129 l7 -85 2 66 c1
60 -30 199 -44 199 -3 0 -5 -2 -5 -4z"/>
<path d="M4707 3040 c3 -36 7 -67 9 -69 8 -9 2 95 -6 114 -4 12 -6 -7 -3 -45z"/>
<path d="M4923 3040 c0 -25 2 -35 4 -22 2 12 2 32 0 45 -2 12 -4 2 -4 -23z"/>
<path d="M6070 2925 c0 -5 5 -17 10 -25 5 -8 10 -10 10 -5 0 6 -5 17 -10 25
-5 8 -10 11 -10 5z"/>
<path d="M7111 2864 c0 -11 3 -14 6 -6 3 7 2 16 -1 19 -3 4 -6 -2 -5 -13z"/>
<path d="M4883 2595 c0 -38 2 -53 4 -32 2 20 2 52 0 70 -2 17 -4 1 -4 -38z"/>
<path d="M6993 2421 c12 -27 23 -45 25 -41 3 9 -35 90 -43 90 -2 0 6 -22 18
-49z"/>
<path d="M7022 2345 c-1 -11 3 -38 7 -60 7 -34 9 -35 9 -10 0 35 -15 101 -16
70z"/>
<path d="M5912 2280 c0 -14 2 -19 5 -12 2 6 2 18 0 25 -3 6 -5 1 -5 -13z"/>
<path d="M5971 2248 c0 -14 -4 -35 -7 -45 -5 -17 -5 -17 6 0 6 10 9 30 7 45
l-4 27 -2 -27z"/>
<path d="M5921 2165 c0 -50 -5 -106 -11 -124 -7 -27 -7 -32 2 -23 12 12 24
182 15 218 -2 10 -5 -22 -6 -71z"/>
<path d="M7131 1824 c0 -11 3 -14 6 -6 3 7 2 16 -1 19 -3 4 -6 -2 -5 -13z"/>
<path d="M14081 1615 c1 -19 18 -51 18 -35 0 8 -4 22 -9 30 -5 8 -9 11 -9 5z"/>
<path d="M14006 1600 c5 -8 19 -30 31 -49 13 -19 32 -62 43 -95 12 -35 18 -46
15 -27 -7 45 -46 129 -74 161 -13 14 -19 18 -15 10z"/>
<path d="M7171 1474 c0 -11 3 -14 6 -6 3 7 2 16 -1 19 -3 4 -6 -2 -5 -13z"/>
<path d="M13972 1455 c2 -5 15 -32 28 -60 13 -27 26 -75 30 -105 7 -52 7 -53
9 -13 1 45 -28 136 -55 169 -8 10 -14 15 -12 9z"/>
<path d="M7113 1390 c0 -30 2 -43 4 -27 2 15 2 39 0 55 -2 15 -4 2 -4 -28z"/>
<path d="M14103 1355 c0 -22 2 -30 4 -17 2 12 2 30 0 40 -3 9 -5 -1 -4 -23z"/>
<path d="M5675 1261 c9 -11 28 -48 41 -83 14 -35 22 -49 19 -33 -10 47 -53
135 -66 135 -8 0 -6 -7 6 -19z"/>
<path d="M4829 968 c-39 -55 -62 -98 -55 -106 3 -3 6 -1 6 4 0 6 20 40 45 77
50 74 53 91 4 25z"/>
<path d="M4758 750 c-14 -33 -24 -60 -22 -60 7 0 57 111 52 115 -2 2 -16 -23
-30 -55z"/>
</g>
</svg>
