<?xml version="1.0" standalone="no"?>
<!DOCTYPE svg PUBLIC "-//W3C//DTD SVG 20010904//EN"
 "http://www.w3.org/TR/2001/REC-SVG-20010904/DTD/svg10.dtd">
<svg version="1.0" xmlns="http://www.w3.org/2000/svg"
 width="1536.000000pt" height="836.000000pt" viewBox="0 0 1536.000000 836.000000"
 preserveAspectRatio="xMidYMid meet">
<metadata>
Created by potrace 1.16, written by Peter Selinger 2001-2019
</metadata>
<g transform="translate(0.000000,836.000000) scale(0.100000,-0.100000)"
fill="#000000" stroke="none">
<path d="M4888 8306 c-30 -8 -64 -28 -93 -55 -54 -50 -136 -91 -183 -91 -18 0
-50 -9 -72 -20 -42 -21 -70 -26 -70 -11 0 5 41 33 90 62 50 28 90 53 90 56 0
5 -28 -10 -138 -74 -95 -56 -190 -96 -205 -86 -5 3 -6 12 -3 20 4 9 -18 2 -59
-21 -62 -34 -66 -35 -77 -17 -11 19 -13 18 -54 -9 -38 -27 -54 -29 -54 -9 0 4
27 24 60 44 58 35 76 50 45 39 -20 -8 -19 5 3 30 17 20 17 20 -8 5 -185 -115
-282 -170 -288 -164 -4 4 13 23 37 44 25 20 56 47 70 60 21 19 18 18 -14 -5
-22 -15 -55 -41 -74 -56 -46 -41 -115 -72 -137 -64 -14 5 -4 16 49 52 37 24
67 47 67 50 0 3 -56 -33 -124 -80 -98 -67 -127 -82 -135 -72 -8 10 7 26 69 70
93 67 107 85 21 27 -65 -44 -86 -43 -44 2 16 16 -36 -14 -114 -67 -77 -53
-146 -96 -152 -96 -27 0 -4 24 79 81 83 57 108 78 77 66 -6 -2 -59 -37 -116
-76 -113 -78 -145 -89 -57 -20 30 24 55 48 55 52 1 10 -9 3 -121 -85 -47 -38
-91 -68 -97 -68 -23 0 -9 20 44 66 30 26 55 51 55 56 0 4 -46 -22 -102 -59
-57 -36 -111 -67 -121 -68 -9 -1 -32 -16 -51 -34 -37 -36 -62 -26 -30 12 10
12 -8 -3 -39 -33 -53 -50 -59 -53 -71 -38 -12 16 -14 16 -26 -7 -13 -24 -30
-32 -43 -19 -3 4 -2 15 4 25 20 38 0 18 -31 -31 -27 -42 -35 -48 -47 -38 -13
10 -19 8 -35 -14 -10 -15 -25 -25 -32 -22 -7 3 -21 -10 -31 -31 -22 -39 -20
-38 -44 -25 -15 8 -20 3 -30 -31 -9 -30 -15 -38 -25 -30 -9 8 -16 -14 -31 -99
-15 -87 -22 -109 -34 -107 -12 1 -17 -9 -19 -48 -6 -96 -22 -72 -24 35 l-1
105 -8 -140 c-3 -77 -7 -164 -8 -193 -1 -64 -23 -68 -30 -6 -3 28 -8 9 -15
-66 -9 -85 -14 -105 -26 -103 -12 2 -19 -17 -30 -89 -14 -84 -33 -123 -42 -82
-1 9 -20 -36 -41 -100 -21 -63 -43 -115 -49 -113 -6 1 -31 -44 -56 -100 -24
-57 -48 -101 -51 -98 -4 2 -26 -27 -50 -66 -24 -38 -47 -69 -51 -69 -5 0 -30
-39 -56 -86 -29 -54 -56 -90 -71 -97 -14 -6 -37 -33 -52 -59 -16 -27 -52 -67
-83 -91 -31 -23 -138 -109 -239 -192 -101 -82 -240 -192 -308 -243 l-125 -93
-20 26 -19 26 -23 -39 c-17 -28 -57 -63 -130 -112 -59 -40 -158 -115 -221
-167 -205 -168 -233 -184 -362 -209 -42 -8 -120 -29 -173 -46 -93 -31 -98 -34
-98 -61 0 -55 42 -112 189 -257 110 -108 156 -161 180 -207 44 -83 66 -95 165
-99 154 -4 262 -48 375 -150 121 -109 148 -113 382 -59 189 44 324 65 431 66
74 1 170 15 126 18 -10 0 -18 6 -18 12 0 12 172 6 350 -13 126 -13 272 -20
395 -18 69 1 129 -5 192 -19 117 -26 137 -26 53 1 -105 34 -54 32 137 -6 102
-20 240 -40 323 -45 197 -15 201 -14 193 5 -5 12 -1 15 13 11 10 -3 82 -19
159 -36 223 -49 324 -79 420 -125 50 -24 113 -53 140 -66 28 -12 81 -45 119
-72 37 -27 65 -44 60 -36 -4 7 15 -7 42 -32 28 -25 64 -52 81 -61 16 -9 55
-47 85 -85 83 -103 253 -272 282 -280 17 -4 40 -30 73 -80 26 -40 53 -74 59
-74 6 0 19 -20 28 -45 10 -25 22 -48 28 -51 6 -4 6 1 -1 14 -21 39 -31 72 -22
72 5 0 15 -16 21 -35 6 -19 17 -41 24 -48 6 -6 17 -28 23 -47 l11 -35 2 35 2
35 10 -30 c5 -16 13 -43 18 -60 6 -24 8 -26 9 -7 1 12 6 22 11 22 10 0 14 -29
12 -85 l-1 -30 10 28 c17 44 24 32 21 -35 -3 -59 -3 -62 12 -43 15 19 16 13
11 -70 l-5 -90 20 30 20 30 -6 -40 c-3 -22 -10 -55 -15 -74 -12 -48 -4 -51 11
-4 13 38 30 66 30 47 0 -5 -9 -50 -19 -99 -10 -50 -22 -108 -25 -130 l-6 -40
20 35 c26 47 25 39 -9 -98 -16 -64 -57 -252 -91 -417 -75 -366 -125 -564 -191
-759 -28 -82 -55 -178 -60 -213 -11 -77 -44 -146 -112 -233 -104 -132 -154
-184 -222 -230 -38 -26 -95 -74 -125 -106 -55 -58 -127 -161 -118 -169 24 -25
548 -47 620 -26 l33 9 -40 2 -40 2 42 9 c53 13 87 47 108 112 21 66 93 197
111 204 16 6 39 -18 66 -66 34 -62 66 -38 137 102 37 72 45 98 57 194 14 117
34 214 60 298 47 147 196 447 220 443 24 -5 182 183 225 267 23 44 47 87 54
95 7 8 45 69 85 135 91 152 138 218 264 378 55 70 120 162 143 205 28 50 48
77 60 77 9 0 34 24 56 55 21 30 42 55 47 55 5 0 32 34 61 75 69 102 114 155
155 186 l34 27 40 -28 c109 -76 233 -245 334 -456 136 -287 286 -607 286 -612
0 -3 25 -63 56 -132 62 -139 87 -244 99 -402 7 -100 7 -101 -30 -194 -67 -166
-93 -212 -225 -389 -72 -96 -130 -177 -130 -181 0 -16 130 -39 220 -39 79 0
198 29 267 64 91 46 161 139 203 271 37 115 44 117 136 44 l64 -50 25 28 c72
80 78 173 22 348 -115 362 -156 628 -128 840 25 187 25 213 -3 316 -27 97 -53
347 -38 360 4 3 229 28 499 55 271 26 499 51 505 56 10 6 10 10 1 16 -7 5 93
25 235 47 220 34 254 42 315 72 45 23 111 44 200 62 124 27 251 60 446 118 46
13 141 51 210 83 255 118 317 141 346 130 37 -14 130 -104 180 -175 57 -80 88
-144 115 -235 50 -173 134 -303 293 -457 122 -118 171 -177 197 -236 86 -193
-26 -487 -291 -762 -58 -60 -127 -139 -154 -175 -75 -99 -420 -450 -489 -497
-34 -22 -101 -81 -149 -131 l-89 -89 45 -12 c27 -8 121 -13 248 -14 194 -2
206 -1 251 21 25 13 66 44 89 70 24 26 67 73 97 106 l53 59 38 -37 c20 -20 45
-36 54 -36 27 0 89 35 118 67 42 45 127 194 163 287 19 48 42 99 53 115 10 16
99 114 197 218 99 103 212 229 251 278 237 298 447 579 475 635 31 61 32 70
28 145 -3 44 -2 95 1 113 l6 33 60 -37 c116 -70 261 -143 355 -177 98 -36 377
-103 871 -207 312 -66 384 -86 473 -133 95 -51 150 -107 184 -190 53 -125 118
-328 146 -447 59 -258 56 -224 30 -403 -45 -307 -90 -419 -229 -566 -165 -176
-244 -267 -254 -293 -10 -25 -8 -27 42 -40 33 -8 111 -13 212 -13 155 0 162 1
217 28 39 19 83 56 145 120 88 92 137 170 178 279 15 41 22 48 45 48 26 0 70
-36 70 -57 0 -18 39 -46 55 -39 9 3 36 48 60 98 30 64 44 85 45 68 0 -20 2
-22 10 -10 13 20 13 102 0 135 -21 55 -100 456 -114 580 -30 268 -40 452 -29
528 8 46 11 200 9 427 -3 385 -3 381 -68 578 -35 107 -64 146 -141 190 -124
71 -178 176 -209 412 -17 129 -14 496 5 710 35 380 31 559 -19 895 -38 259
-57 329 -126 463 -57 109 -83 172 -72 172 2 0 22 -27 44 -61 52 -80 138 -346
236 -729 38 -147 61 -194 126 -260 89 -89 173 -150 208 -150 l33 0 -27 33
c-62 77 -144 207 -169 269 -14 37 -38 126 -52 200 -51 260 -158 624 -217 742
-73 145 -188 250 -388 355 -282 147 -613 272 -995 376 -165 45 -557 194 -850
322 -88 39 -191 80 -228 92 -87 27 -1420 304 -1587 330 -69 11 -151 23 -182
26 -90 11 -72 29 20 21 176 -16 180 -14 37 9 -82 14 -195 32 -251 40 -55 8
-170 33 -255 55 -200 52 -749 188 -816 202 -34 7 -50 15 -47 23 9 21 -164 78
-436 143 -140 34 -276 65 -302 68 -26 3 -45 10 -42 15 3 5 -24 9 -59 9 -36 0
-80 6 -98 14 -19 7 -61 17 -94 21 -33 4 -76 14 -95 22 -19 8 -82 19 -140 23
-58 5 -118 14 -135 21 l-30 13 50 6 c37 5 21 7 -63 8 -73 1 -111 6 -107 12 3
6 16 11 28 12 12 1 -25 4 -83 8 -87 4 -101 7 -81 16 24 10 23 11 -15 17 -21 3
-69 9 -106 13 -38 4 -68 10 -68 15 0 4 24 10 53 12 31 2 12 4 -45 5 -95 2
-109 7 -88 28 7 7 -6 11 -42 11 -29 -1 -119 11 -199 25 -86 16 -164 24 -190
21 -33 -3 -40 -2 -29 6 11 8 -24 11 -130 12 -138 2 -142 2 -77 12 76 11 93 31
20 22 -60 -7 -281 -25 -308 -25 -49 0 9 18 93 30 50 7 92 17 92 22 0 5 -4 7
-8 4 -4 -3 -96 -10 -203 -15 -107 -6 -217 -13 -244 -16 -29 -2 -7 5 52 18 56
12 105 26 110 30 9 10 0 9 -206 -28 -138 -25 -200 -28 -110 -6 24 6 58 16 75
21 17 6 38 10 47 10 9 0 17 5 17 11 0 6 -8 8 -17 5 -19 -5 -285 -66 -290 -66
-2 0 -3 4 -3 10 0 5 19 14 43 20 71 19 109 32 104 37 -4 4 -193 -42 -259 -63
-12 -3 -18 0 -18 9 0 9 24 20 65 32 36 9 68 22 71 27 4 6 -1 8 -12 4 -84 -25
-198 -56 -228 -61 -52 -10 -46 10 7 24 24 6 64 20 88 31 l44 20 -40 -7 c-22
-3 -58 -12 -80 -20 -21 -7 -51 -11 -65 -8 -14 3 -69 -9 -132 -29 -83 -26 -108
-30 -112 -20 -3 9 19 22 69 41 41 15 72 29 71 31 -5 4 -142 -39 -215 -67 -47
-19 -55 -20 -65 -7 -10 13 -20 12 -84 -7 -57 -17 -77 -19 -91 -10 -15 9 -29 7
-69 -12 -62 -29 -75 -18 -27 23 33 29 151 92 173 92 6 0 14 5 17 10 8 13 -29
12 -87 -4z m-837 -247 c-60 -44 -86 -58 -94 -50 -8 8 -8 14 -1 21 14 14 156
89 169 90 5 0 -28 -27 -74 -61z"/>
<path d="M5200 8304 l-25 -15 25 7 c14 3 32 10 40 15 13 7 13 8 0 8 -8 0 -26
-6 -40 -15z"/>
<path d="M4448 8194 c-38 -19 -68 -37 -68 -39 0 -3 32 11 70 30 39 19 70 37
70 40 0 7 3 8 -72 -31z"/>
<path d="M4267 8166 c-38 -12 -65 -25 -60 -29 4 -5 -3 -17 -17 -28 -14 -12 16
1 65 27 123 65 123 66 12 30z"/>
<path d="M3905 8114 l-30 -26 33 22 c17 12 32 23 32 26 0 7 -4 5 -35 -22z"/>
<path d="M2453 7535 c0 -44 2 -61 4 -37 2 23 2 59 0 80 -2 20 -4 1 -4 -43z"/>
<path d="M2551 7544 c0 -11 3 -14 6 -6 3 7 2 16 -1 19 -3 4 -6 -2 -5 -13z"/>
<path d="M2492 7475 c0 -16 2 -22 5 -12 2 9 2 23 0 30 -3 6 -5 -1 -5 -18z"/>
<path d="M2482 7385 c0 -16 2 -22 5 -12 2 9 2 23 0 30 -3 6 -5 -1 -5 -18z"/>
<path d="M2402 7140 c0 -14 2 -19 5 -12 2 6 2 18 0 25 -3 6 -5 1 -5 -13z"/>
</g>
</svg>
