<?xml version="1.0" standalone="no"?>
<!DOCTYPE svg PUBLIC "-//W3C//DTD SVG 20010904//EN"
 "http://www.w3.org/TR/2001/REC-SVG-20010904/DTD/svg10.dtd">
<svg version="1.0" xmlns="http://www.w3.org/2000/svg"
 width="1536.000000pt" height="794.000000pt" viewBox="0 0 1536.000000 794.000000"
 preserveAspectRatio="xMidYMid meet">
<metadata>
Created by potrace 1.16, written by Peter Selinger 2001-2019
</metadata>
<g transform="translate(0.000000,794.000000) scale(0.100000,-0.100000)"
fill="#000000" stroke="none">
<path d="M7805 7892 c-50 -26 -111 -55 -136 -65 -25 -10 -72 -40 -105 -68 -32
-28 -116 -95 -185 -149 -70 -54 -146 -122 -170 -151 -98 -115 -190 -206 -313
-307 -121 -101 -132 -113 -190 -212 -117 -196 -146 -257 -195 -405 -27 -81
-53 -151 -58 -155 -27 -25 -959 -436 -1271 -561 -205 -82 -423 -174 -483 -204
-215 -109 -193 -102 -1099 -295 -184 -39 -378 -82 -430 -96 -52 -14 -154 -36
-225 -49 -120 -22 -144 -23 -290 -15 -218 12 -856 -5 -958 -24 -148 -29 -232
-57 -353 -121 -116 -61 -322 -184 -451 -269 -70 -46 -277 -269 -376 -406 -63
-86 -110 -137 -164 -177 -44 -33 -57 -92 -58 -263 0 -156 7 -182 61 -241 l24
-25 -60 -128 c-34 -71 -70 -150 -80 -176 -10 -26 -37 -78 -60 -115 -30 -48
-53 -110 -86 -223 -57 -198 -94 -353 -94 -393 0 -36 80 -212 112 -246 12 -13
49 -40 82 -62 51 -32 78 -42 161 -56 55 -9 123 -23 150 -31 84 -22 237 -34
362 -28 82 5 141 2 193 -7 41 -8 122 -13 180 -13 93 1 120 6 238 43 204 64
407 85 538 57 73 -15 50 -2 255 -152 338 -249 658 -453 793 -505 46 -17 125
-35 221 -48 193 -27 577 -68 725 -77 96 -5 137 -13 250 -49 154 -49 282 -76
490 -104 80 -11 195 -31 255 -45 61 -14 117 -26 125 -26 9 0 44 -58 90 -147
126 -247 146 -274 362 -491 184 -185 204 -202 305 -259 153 -86 471 -235 592
-277 93 -33 318 -76 390 -76 39 0 120 41 174 88 27 23 66 46 90 52 68 18 66
16 58 47 -5 18 -15 29 -30 31 -38 6 -17 27 30 30 69 5 97 60 39 81 -22 7 -30
16 -30 33 0 13 -7 34 -16 46 -15 22 -14 23 20 37 19 8 40 15 45 15 12 0 31 33
31 53 0 10 -20 18 -61 26 -65 13 -66 20 -15 62 17 15 18 20 7 47 -7 16 -30 44
-52 62 -37 29 -38 33 -25 52 20 28 6 53 -39 68 -23 8 -76 51 -148 122 -168
165 -184 177 -285 205 -105 30 -180 74 -187 112 -3 14 -20 54 -38 88 -17 34
-29 64 -27 66 3 2 73 35 155 72 83 37 245 110 360 162 116 52 248 110 296 128
109 43 493 158 769 230 272 72 839 259 947 313 45 23 175 80 290 126 114 46
354 155 533 241 179 86 478 228 665 316 454 212 526 249 830 423 488 278 827
488 925 571 30 26 176 140 325 253 148 113 287 219 309 236 21 17 75 81 121
141 96 127 135 165 227 224 l66 42 94 -7 c51 -3 179 -1 283 5 105 6 282 13
395 15 225 5 200 0 385 86 73 34 110 44 200 56 60 8 126 19 145 24 46 13 177
127 264 229 38 45 87 95 110 110 104 72 143 140 176 311 12 59 11 70 -5 103
-23 49 -46 60 -120 59 -81 -2 -117 -14 -170 -58 -35 -28 -49 -34 -57 -26 -9 9
-9 12 0 12 22 0 62 48 62 74 0 54 -125 146 -198 146 -43 0 -242 -43 -398 -85
-70 -20 -158 -42 -195 -49 -100 -21 -203 -77 -280 -153 -72 -70 -110 -90 -286
-149 -64 -21 -122 -34 -155 -34 l-52 0 44 46 c53 53 153 115 246 150 36 13 82
33 102 43 53 28 211 169 252 225 19 27 52 66 74 88 38 39 38 41 33 95 -3 31
-12 63 -20 70 -26 26 -89 25 -239 -6 -121 -24 -162 -37 -235 -75 -49 -25 -93
-46 -99 -46 -5 0 41 33 101 73 61 40 209 151 330 247 121 95 249 196 285 224
36 27 94 78 130 111 92 87 105 89 550 90 196 1 361 5 368 9 16 10 15 41 -3 76
-20 38 -187 151 -324 219 -112 55 -119 57 -183 40 -35 -10 -59 -9 -128 5 -125
26 -144 48 -161 191 -5 44 -11 98 -14 120 -6 38 -4 41 27 55 89 40 15 201
-118 256 -31 13 -62 14 -228 4 -297 -16 -276 -9 -434 -163 -123 -121 -140
-143 -223 -282 -50 -82 -95 -170 -101 -195 -6 -25 -15 -63 -20 -84 -10 -42
-28 -62 -243 -286 -66 -69 -151 -165 -189 -215 -93 -121 -156 -172 -232 -186
-130 -25 -668 8 -934 56 -329 61 -359 64 -783 95 -230 16 -556 46 -725 65
-338 38 -593 49 -1372 61 -480 8 -632 -2 -904 -57 -81 -17 -150 -28 -153 -26
-2 3 12 31 31 63 l35 58 -19 34 -20 33 25 33 c26 35 31 78 19 169 -7 46 -7 46
-63 62 -31 9 -64 19 -74 21 -14 5 -4 14 43 42 60 36 180 160 180 187 0 7 -29
39 -65 70 -64 57 -64 57 -50 85 17 33 20 76 5 85 -17 10 -11 40 21 109 34 72
35 122 4 156 -8 9 -15 23 -15 31 0 21 -21 39 -44 39 -12 -1 -62 -22 -111 -48z"/>
</g>
</svg>
