<?xml version="1.0" standalone="no"?>
<!DOCTYPE svg PUBLIC "-//W3C//DTD SVG 20010904//EN"
 "http://www.w3.org/TR/2001/REC-SVG-20010904/DTD/svg10.dtd">
<svg version="1.0" xmlns="http://www.w3.org/2000/svg"
 width="1299.000000pt" height="1536.000000pt" viewBox="0 0 1299.000000 1536.000000"
 preserveAspectRatio="xMidYMid meet">
<metadata>
Created by potrace 1.16, written by Peter Selinger 2001-2019
</metadata>
<g transform="translate(0.000000,1536.000000) scale(0.100000,-0.100000)"
fill="#000000" stroke="none">
<path d="M5026 15318 c-112 -192 -127 -304 -79 -596 24 -146 28 -194 28 -382
0 -238 -11 -309 -66 -468 -78 -220 -197 -405 -473 -732 -122 -145 -157 -180
-184 -180 -76 0 -158 97 -321 380 -76 132 -136 216 -158 225 -11 4 -13 -5 -8
-43 13 -98 50 -194 156 -407 123 -248 145 -315 155 -488 12 -198 -21 -319
-108 -404 -52 -50 -351 -256 -428 -294 -30 -16 -82 -32 -115 -38 -75 -11 -83
-5 -135 104 -46 96 -75 198 -90 320 -12 97 -38 202 -51 211 -12 7 -29 -61 -35
-141 -5 -51 1 -113 20 -226 31 -186 33 -287 7 -345 -40 -87 -202 -189 -300
-189 -53 0 -64 5 -191 84 -197 123 -349 240 -488 375 -219 213 -273 302 -298
488 -16 126 -31 188 -43 188 -21 0 -36 -100 -35 -225 2 -198 45 -325 178 -520
149 -220 374 -397 646 -509 41 -17 76 -36 77 -41 3 -17 -156 -184 -200 -209
-31 -18 -73 -29 -160 -40 -183 -24 -237 -41 -567 -178 -268 -112 -351 -134
-623 -168 -290 -36 -332 -46 -521 -127 -85 -37 -183 -69 -288 -94 -181 -45
-238 -70 -291 -128 -51 -56 -51 -108 0 -234 35 -87 37 -98 37 -207 1 -146 12
-168 111 -222 103 -55 174 -76 330 -98 166 -22 199 -32 371 -115 146 -69 215
-113 354 -225 52 -42 151 -116 219 -165 332 -237 381 -300 411 -527 6 -45 29
-182 51 -303 87 -473 105 -539 247 -871 171 -399 288 -604 437 -762 102 -108
197 -171 318 -211 140 -47 189 -90 347 -301 35 -47 100 -128 145 -180 121
-141 129 -154 206 -321 101 -221 149 -313 210 -404 30 -45 105 -180 167 -300
62 -121 134 -248 160 -282 26 -34 103 -112 171 -174 238 -216 241 -232 220
-1064 -19 -776 -18 -881 15 -1115 100 -714 -16 -1406 -309 -1845 -50 -76 -85
-114 -217 -234 -64 -60 -92 -108 -82 -146 11 -45 33 -49 269 -46 257 2 244 -2
319 112 55 83 140 169 202 205 26 15 63 26 105 30 35 3 85 10 110 15 45 10 46
11 67 72 58 168 71 293 82 807 11 503 20 580 125 1050 54 244 76 374 120 720
53 416 95 620 163 805 l30 80 16 -40 c50 -118 112 -377 197 -815 28 -146 66
-332 86 -415 67 -284 65 -263 70 -849 5 -575 -2 -736 -39 -906 -42 -196 -125
-399 -226 -554 -29 -43 -57 -97 -64 -119 -11 -37 -10 -41 12 -59 22 -18 38
-19 221 -16 226 3 224 3 252 92 24 74 48 101 127 141 98 49 100 57 111 375 12
393 17 441 74 745 44 236 53 325 65 665 6 157 14 322 20 368 5 45 14 189 20
320 6 130 17 285 25 344 20 139 84 369 145 523 57 143 85 248 135 510 20 105
46 229 57 277 l21 86 81 6 c45 3 164 8 266 11 405 12 1038 59 1305 96 214 30
320 24 442 -24 130 -52 166 -50 395 17 102 30 284 91 406 135 121 45 223 81
225 81 5 0 48 -131 299 -900 101 -309 147 -427 263 -670 159 -332 169 -368
169 -595 1 -193 -13 -270 -114 -637 -131 -479 -207 -658 -559 -1318 -198 -370
-255 -455 -401 -600 -107 -106 -153 -170 -136 -188 10 -9 478 -16 536 -7 60 9
110 62 174 185 94 181 134 219 219 204 69 -12 127 -7 147 11 31 28 48 93 54
205 6 127 39 265 99 420 96 247 270 624 485 1050 123 245 244 493 268 552 58
140 109 320 128 448 8 56 17 104 19 106 8 8 125 -96 169 -151 87 -107 169
-296 212 -485 57 -249 106 -700 106 -978 0 -438 -60 -769 -201 -1114 -65 -158
-96 -212 -184 -318 -116 -138 -175 -231 -175 -271 0 -13 163 -11 197 2 15 6
88 15 161 19 73 5 155 16 182 25 67 22 110 73 149 176 51 136 77 185 117 215
34 26 42 28 116 26 76 -2 81 -1 107 27 57 61 64 166 31 501 -43 431 -24 935
67 1740 33 292 36 557 9 693 -40 207 -99 347 -313 746 -216 402 -282 573 -318
829 -23 162 -17 410 13 523 47 175 176 490 368 897 74 157 165 357 201 443 59
139 71 159 99 172 83 40 162 143 209 272 l28 75 -6 232 c-5 265 -18 334 -84
461 -96 186 -395 395 -843 590 -121 53 -734 288 -835 321 -214 69 -388 80
-715 47 -247 -25 -440 -37 -830 -51 -162 -6 -468 -19 -680 -30 -720 -37 -805
-40 -1110 -40 -422 0 -617 14 -1265 91 -349 41 -426 55 -625 114 -303 89 -424
107 -695 104 -473 -6 -482 -5 -600 80 -35 25 -132 95 -215 156 -349 251 -518
428 -635 663 -56 112 -88 194 -179 454 -41 117 -95 261 -120 319 -53 123 -57
161 -31 289 20 96 16 151 -17 274 l-21 79 -58 -6 c-128 -11 -243 -99 -304
-230 -34 -74 -77 -127 -101 -127 -7 0 -23 14 -36 30 -12 17 -27 30 -34 30 -70
0 52 153 176 223 36 19 139 64 230 98 374 142 672 330 841 532 72 85 105 153
176 363 64 187 104 266 197 387 34 45 118 156 188 247 283 372 352 499 495
915 65 189 127 326 171 377 18 20 87 73 154 119 149 102 288 234 320 304 19
42 23 67 23 155 0 88 -4 113 -23 154 -15 34 -26 46 -33 39 -5 -5 -17 -55 -25
-109 -8 -54 -19 -117 -25 -139 -13 -49 -71 -107 -160 -160 -35 -21 -111 -71
-169 -110 -218 -149 -267 -152 -316 -20 -10 28 -37 84 -61 125 -55 97 -69 176
-53 316 6 54 14 145 17 202 5 89 4 102 -10 102 -9 0 -27 -19 -41 -42z"/>
</g>
</svg>
