<?xml version="1.0" standalone="no"?>
<!DOCTYPE svg PUBLIC "-//W3C//DTD SVG 20010904//EN"
 "http://www.w3.org/TR/2001/REC-SVG-20010904/DTD/svg10.dtd">
<svg version="1.0" xmlns="http://www.w3.org/2000/svg"
 width="1536.000000pt" height="817.000000pt" viewBox="0 0 1536.000000 817.000000"
 preserveAspectRatio="xMidYMid meet">
<metadata>
Created by potrace 1.16, written by Peter Selinger 2001-2019
</metadata>
<g transform="translate(0.000000,817.000000) scale(0.100000,-0.100000)"
fill="#000000" stroke="none">
<path d="M12861 8128 c-47 -24 -93 -54 -103 -68 -10 -14 -31 -78 -48 -143 -16
-66 -48 -162 -71 -215 l-41 -97 16 -81 c9 -45 34 -133 57 -196 49 -133 59
-240 40 -406 -61 -520 -292 -764 -685 -721 -101 11 -333 60 -686 144 -673 161
-1078 218 -1555 218 -385 1 -608 -26 -1034 -124 -855 -197 -1481 -411 -1921
-657 -231 -129 -341 -216 -677 -533 -434 -410 -727 -653 -926 -768 -45 -26
-145 -82 -222 -125 -286 -157 -390 -248 -744 -646 -409 -461 -527 -587 -840
-901 -599 -598 -1016 -921 -1484 -1150 -223 -109 -687 -251 -1286 -394 -173
-41 -338 -86 -367 -99 -68 -31 -126 -85 -184 -171 -137 -203 -133 -268 26
-422 152 -147 267 -211 420 -233 106 -15 741 3 864 25 582 105 1492 487 1980
833 98 69 366 335 956 947 502 520 715 753 848 925 154 200 206 245 506 447
75 51 156 110 181 132 l46 40 6 -83 c7 -105 34 -185 103 -308 87 -154 88 -214
6 -334 -22 -33 -81 -127 -132 -210 -149 -242 -234 -351 -340 -437 -30 -24
-131 -89 -225 -145 -204 -120 -273 -170 -312 -225 -56 -80 -56 -80 -50 -430 8
-446 33 -610 112 -717 18 -25 76 -131 128 -235 52 -105 105 -200 118 -212 20
-17 46 -24 139 -34 129 -14 253 -5 467 32 207 36 317 68 376 108 74 52 71 73
-13 129 -181 119 -299 138 -440 71 -71 -33 -106 -37 -114 -11 -12 38 -66 502
-66 570 0 86 18 135 57 155 15 8 79 22 141 31 262 39 503 132 797 309 221 132
324 220 430 364 71 97 96 115 124 89 56 -51 172 -431 223 -731 21 -126 21
-112 2 -586 -11 -265 16 -312 250 -427 110 -54 140 -74 216 -146 103 -98 196
-157 318 -199 l87 -31 352 -2 c317 -2 361 -5 459 -25 141 -28 215 -23 321 24
43 19 113 42 155 52 96 20 118 43 118 118 0 65 -34 123 -99 171 -74 54 -274
146 -318 146 -24 0 -84 -22 -177 -66 -160 -76 -205 -84 -348 -65 -112 15 -191
36 -256 67 -89 43 -113 75 -156 208 -35 106 -38 125 -32 183 8 74 45 222 139
545 112 385 127 480 197 1205 36 383 41 416 66 466 81 168 222 276 449 346
340 105 730 132 1245 86 91 -8 273 -22 405 -30 132 -9 268 -20 303 -26 206
-32 223 -66 387 -799 115 -516 118 -526 294 -942 81 -193 97 -248 111 -384 23
-225 127 -545 226 -694 48 -73 76 -97 182 -159 47 -27 83 -58 105 -87 17 -24
47 -64 65 -89 47 -64 108 -97 190 -103 75 -5 398 22 509 43 64 12 82 21 142
69 97 78 114 101 108 153 l-4 42 29 -22 c25 -19 46 -23 131 -25 106 -4 412 29
446 48 22 11 51 79 51 118 0 110 -63 175 -242 250 -197 83 -277 142 -319 236
-52 117 -43 174 146 922 198 782 257 1095 270 1429 l6 150 -69 -170 c-109
-270 -143 -335 -205 -391 -92 -85 -218 -135 -263 -106 -7 4 -33 63 -59 132
-53 139 -96 230 -118 248 -21 17 -125 -20 -175 -64 -48 -41 -94 -130 -118
-228 -13 -50 -26 -77 -49 -101 -41 -40 -74 -47 -139 -28 -69 21 -198 149 -244
243 -93 193 -136 296 -140 341 -7 72 35 146 179 319 250 300 369 498 400 667
13 69 9 93 -47 266 -24 77 -44 144 -44 151 0 6 -49 108 -108 226 -152 302
-189 433 -170 610 8 78 15 101 130 395 127 325 138 362 149 495 11 141 54 285
85 285 16 0 23 -18 45 -105 45 -178 118 -338 210 -463 35 -47 66 -72 155 -127
174 -108 264 -177 387 -294 128 -121 178 -157 255 -186 68 -26 97 -25 211 5
168 45 216 77 298 194 26 36 79 100 118 141 39 41 99 110 134 153 34 42 66 77
71 77 5 0 12 -11 16 -25 6 -23 9 -20 34 32 15 32 70 136 123 230 152 272 177
325 177 380 0 27 -7 89 -16 138 -26 147 -16 231 60 509 95 344 113 466 81 542
-15 37 -62 64 -109 64 -37 0 -83 -45 -101 -99 -22 -69 -66 -123 -124 -155 -58
-31 -48 -33 -276 40 -323 104 -480 128 -750 114 -250 -13 -370 -35 -487 -90
-75 -36 -118 -38 -144 -8 -35 39 -174 137 -240 169 -37 17 -88 33 -117 35 -46
4 -62 0 -136 -38z m-126 -5630 c15 -80 40 -339 50 -518 4 -65 20 -178 38 -260
27 -132 31 -168 37 -405 7 -276 15 -327 65 -442 14 -31 25 -57 25 -60 0 -9
-46 22 -87 60 -79 73 -91 103 -114 298 -18 142 -23 261 -29 639 -4 256 -13
517 -20 580 -13 120 -7 230 11 197 6 -9 16 -50 24 -89z"/>
<path d="M14806 6032 c-70 -141 -206 -396 -499 -932 -247 -452 -261 -480 -287
-585 -47 -183 -51 -237 -30 -430 10 -93 18 -161 19 -150 1 11 8 97 16 190 32
369 81 555 194 745 245 410 663 1232 639 1256 -2 2 -25 -40 -52 -94z"/>
</g>
</svg>
