<?xml version="1.0" standalone="no"?>
<!DOCTYPE svg PUBLIC "-//W3C//DTD SVG 20010904//EN"
 "http://www.w3.org/TR/2001/REC-SVG-20010904/DTD/svg10.dtd">
<svg version="1.0" xmlns="http://www.w3.org/2000/svg"
 width="1536.000000pt" height="457.000000pt" viewBox="0 0 1536.000000 457.000000"
 preserveAspectRatio="xMidYMid meet">
<metadata>
Created by potrace 1.16, written by Peter Selinger 2001-2019
</metadata>
<g transform="translate(0.000000,457.000000) scale(0.100000,-0.100000)"
fill="#000000" stroke="none">
<path d="M1415 4561 c-223 -8 -234 -9 -365 -45 -243 -66 -415 -125 -526 -180
-184 -90 -458 -286 -504 -361 -39 -63 -4 -112 61 -84 44 18 151 6 318 -36 274
-69 445 -141 577 -241 86 -66 127 -109 223 -237 41 -53 79 -97 87 -97 13 0 40
23 46 39 2 6 109 13 263 17 238 6 281 4 506 -20 452 -48 679 -101 919 -217
272 -131 379 -209 476 -345 61 -85 91 -155 124 -290 38 -153 55 -172 106 -117
24 26 25 26 124 19 219 -14 296 -31 597 -131 331 -110 506 -191 806 -372 327
-199 493 -325 737 -560 l132 -127 -29 -20 c-15 -11 -52 -43 -81 -70 -41 -39
-52 -55 -50 -75 2 -18 10 -27 26 -29 17 -3 22 -10 22 -33 0 -35 55 -109 81
-109 9 0 19 -9 22 -19 2 -10 13 -24 24 -29 31 -17 64 7 109 81 22 37 51 79 65
93 l25 24 33 -24 c96 -71 479 -442 623 -603 31 -35 92 -70 363 -205 l325 -162
333 166 c326 163 335 168 376 221 73 96 563 566 621 597 22 12 51 -18 105
-108 44 -73 77 -97 108 -80 11 5 22 19 24 29 3 10 13 19 22 19 26 0 81 74 81
109 0 23 5 30 23 33 15 2 23 11 25 29 2 20 -10 37 -55 80 -32 30 -69 61 -82
70 l-23 15 133 128 c285 273 524 446 932 672 210 116 320 163 631 266 281 93
362 110 576 124 99 7 100 7 124 -19 51 -55 66 -37 105 117 35 136 64 205 125
290 90 126 192 204 413 315 287 143 496 196 983 247 224 24 268 26 505 20 154
-4 261 -11 263 -17 6 -16 33 -39 46 -39 8 0 46 44 87 97 96 129 138 173 224
238 135 101 301 170 576 240 167 42 274 54 318 36 65 -28 100 21 61 84 -48 78
-326 275 -515 366 -66 31 -156 69 -200 84 -125 42 -413 117 -490 127 -38 6
-349 11 -690 11 -759 1 -1046 -12 -1585 -74 -96 -11 -312 -35 -480 -54 -168
-19 -334 -39 -369 -45 -35 -6 -65 -9 -68 -6 -3 2 7 22 21 43 51 75 24 101 -61
59 -30 -14 -120 -67 -201 -118 -652 -406 -1318 -780 -1733 -974 -165 -77 -369
-144 -438 -144 -59 0 -151 68 -196 145 -26 43 -65 181 -65 227 0 34 -24 95
-47 120 -26 29 -77 23 -106 -11 l-24 -30 -207 11 c-148 8 -264 8 -412 0 l-207
-11 -24 30 c-33 39 -83 40 -112 3 -23 -30 -34 -66 -51 -167 -23 -142 -70 -222
-167 -287 -60 -39 -92 -39 -243 5 -123 36 -267 99 -530 233 -266 136 -748 403
-925 511 -60 38 -171 104 -245 148 -74 45 -200 122 -280 172 -247 155 -320
186 -320 134 0 -10 12 -36 26 -56 14 -21 24 -41 21 -43 -3 -3 -31 -1 -63 5
-69 12 -952 112 -1194 135 -91 9 -257 21 -370 26 -279 13 -1093 20 -1375 11z"/>
</g>
</svg>
