<?xml version="1.0" standalone="no"?>
<!DOCTYPE svg PUBLIC "-//W3C//DTD SVG 20010904//EN"
 "http://www.w3.org/TR/2001/REC-SVG-20010904/DTD/svg10.dtd">
<svg version="1.0" xmlns="http://www.w3.org/2000/svg"
 width="1536.000000pt" height="941.000000pt" viewBox="0 0 1536.000000 941.000000"
 preserveAspectRatio="xMidYMid meet">
<metadata>
Created by potrace 1.16, written by Peter Selinger 2001-2019
</metadata>
<g transform="translate(0.000000,941.000000) scale(0.100000,-0.100000)"
fill="#000000" stroke="none">
<path d="M5645 9399 c-114 -26 -351 -117 -497 -190 -45 -23 -191 -99 -323
-169 -132 -70 -328 -173 -435 -230 -257 -136 -393 -218 -477 -285 -81 -66
-150 -101 -298 -150 -315 -105 -1037 -482 -1303 -680 -95 -71 -234 -207 -298
-291 -112 -149 -168 -280 -240 -556 -48 -183 -50 -188 -75 -188 -51 0 -466
-30 -554 -40 -135 -16 -250 -46 -326 -86 -102 -54 -186 -149 -354 -402 -79
-119 -178 -260 -219 -312 -150 -188 -225 -386 -242 -631 -13 -191 24 -280 121
-295 65 -9 128 -54 234 -165 191 -201 243 -226 1091 -536 626 -228 815 -293
998 -339 74 -18 154 -45 178 -59 37 -21 64 -28 157 -35 61 -5 151 -10 198 -10
91 0 240 -22 283 -41 64 -29 32 -59 -166 -152 -184 -88 -219 -121 -301 -286
-34 -69 -77 -145 -95 -169 -39 -51 -49 -96 -57 -262 -6 -138 -21 -218 -53
-298 l-22 -53 24 -22 c32 -30 44 -77 55 -227 16 -212 97 -439 242 -677 133
-220 220 -296 639 -564 47 -30 101 -69 121 -87 46 -41 118 -65 267 -92 203
-36 343 -80 558 -175 45 -19 139 -50 210 -69 153 -40 195 -56 239 -95 37 -33
125 -64 236 -85 148 -29 200 -52 300 -136 39 -33 76 -60 83 -60 6 0 27 18 46
39 60 66 144 75 217 23 110 -76 637 -231 860 -253 127 -13 452 -7 653 11 350
32 546 53 554 61 5 4 9 68 10 141 1 141 -6 170 -58 226 -11 13 -32 47 -46 75
-21 45 -33 56 -83 81 -44 22 -85 58 -170 148 -115 123 -159 158 -197 158 -37
0 -169 49 -295 110 -97 47 -128 67 -158 103 -28 34 -60 56 -129 90 -122 60
-275 112 -400 137 -121 24 -171 50 -215 110 -116 160 -202 238 -506 464 -197
146 -287 220 -287 238 0 14 65 38 105 38 20 0 61 -11 93 -24 82 -35 160 -46
376 -56 355 -17 786 -113 1006 -226 79 -40 264 -97 555 -169 262 -66 1492
-277 1610 -277 127 0 295 56 310 103 4 11 18 22 33 25 15 3 34 8 42 11 8 3
173 8 365 12 l350 8 88 30 c110 39 232 111 311 184 34 31 70 61 81 66 41 22
177 44 387 63 318 29 341 36 380 118 19 38 29 48 52 50 45 5 70 -5 157 -64 45
-31 105 -67 133 -79 57 -26 85 -53 143 -140 55 -82 81 -103 155 -129 35 -13
135 -57 223 -98 88 -42 180 -81 205 -88 25 -6 74 -31 110 -55 109 -73 275
-111 530 -122 183 -7 334 9 454 48 50 16 165 43 256 60 187 34 251 59 312 121
100 100 155 217 178 377 15 98 7 157 -24 185 -18 17 -24 40 -34 113 -18 154
-112 320 -225 399 -76 53 -89 79 -98 196 -13 171 -37 206 -144 219 -74 9 -127
34 -170 78 -41 44 -105 60 -285 71 -183 12 -261 23 -431 59 -170 36 -204 60
-179 121 24 57 213 215 291 242 21 7 33 7 43 -1 25 -21 78 -31 210 -41 156
-12 282 -35 576 -105 379 -90 588 -124 1180 -190 248 -27 278 -29 299 -16 12
8 12 13 3 24 -22 26 -240 132 -612 297 -438 195 -649 296 -790 377 -58 33
-178 97 -267 142 -89 44 -178 94 -197 112 -64 56 -66 113 -11 276 44 126 34
163 -72 270 -71 72 -170 151 -349 279 -75 53 -184 142 -243 198 -110 105 -270
234 -497 399 -201 146 -292 203 -374 230 -41 14 -171 69 -289 122 -117 53
-257 110 -310 126 -120 38 -206 79 -285 138 -138 102 -270 170 -481 247 -110
40 -247 105 -399 188 -54 29 -115 57 -136 60 -22 3 -57 21 -82 41 -166 134
-813 485 -1033 560 -44 16 -154 59 -245 98 -148 62 -209 84 -450 159 -36 11
-157 64 -270 118 -281 135 -438 193 -755 279 -166 45 -377 90 -572 122 -163
27 -567 37 -777 20 -309 -26 -652 -87 -960 -171 -82 -23 -155 -39 -163 -35
-21 7 -10 47 30 104 17 25 126 143 242 261 225 230 309 329 410 480 73 108
109 184 120 250 12 72 38 110 133 197 93 86 127 137 101 154 -17 11 -71 10
-124 -2z"/>
</g>
</svg>
