<?xml version="1.0" standalone="no"?>
<!DOCTYPE svg PUBLIC "-//W3C//DTD SVG 20010904//EN"
 "http://www.w3.org/TR/2001/REC-SVG-20010904/DTD/svg10.dtd">
<svg version="1.0" xmlns="http://www.w3.org/2000/svg"
 width="1536.000000pt" height="1381.000000pt" viewBox="0 0 1536.000000 1381.000000"
 preserveAspectRatio="xMidYMid meet">
<metadata>
Created by potrace 1.16, written by Peter Selinger 2001-2019
</metadata>
<g transform="translate(0.000000,1381.000000) scale(0.100000,-0.100000)"
fill="#000000" stroke="none">
<path d="M13508 13801 c-51 -17 -97 -52 -127 -98 -34 -51 -38 -79 -17 -108 13
-18 14 -18 42 2 51 36 153 83 179 83 54 0 123 -57 144 -119 6 -19 11 -79 11
-135 0 -56 7 -141 15 -191 18 -110 19 -192 2 -225 -11 -23 -19 -25 -74 -25
-78 0 -90 -11 -152 -134 -53 -107 -132 -237 -185 -306 -32 -42 -36 -45 -45
-27 -27 51 -35 126 -36 337 l0 220 -25 -3 c-63 -7 -208 -136 -345 -307 -104
-129 -130 -174 -171 -299 -31 -93 -51 -130 -123 -236 -65 -96 -96 -153 -131
-245 -59 -153 -63 -160 -154 -280 -86 -114 -136 -203 -161 -290 -33 -114 -58
-148 -296 -396 -359 -372 -491 -488 -737 -650 -400 -263 -781 -370 -1210 -339
-179 13 -296 35 -509 99 -317 95 -436 104 -644 47 -242 -67 -380 -124 -659
-272 -278 -148 -442 -215 -603 -250 -90 -19 -306 -34 -489 -34 -81 0 -288 -9
-460 -21 -496 -32 -664 -30 -1018 14 -162 20 -351 44 -420 53 -217 27 -398 62
-610 118 -343 90 -347 91 -600 91 -333 0 -443 -29 -647 -172 -201 -141 -357
-241 -477 -304 -103 -54 -127 -62 -186 -67 -91 -6 -278 34 -485 104 -285 97
-458 131 -800 158 -93 7 -171 12 -173 10 -2 -1 2 -31 8 -65 23 -135 48 -170
182 -259 37 -24 66 -45 65 -47 -2 -1 -35 1 -73 6 -38 5 -70 7 -72 6 -7 -6 120
-155 169 -198 30 -27 89 -65 132 -86 l78 -39 -50 -18 c-28 -10 -51 -21 -51
-25 0 -4 25 -17 55 -29 30 -12 74 -39 96 -59 38 -33 42 -41 48 -101 11 -101
34 -133 214 -294 98 -88 129 -137 147 -236 20 -112 -1 -225 -108 -575 l-67
-220 0 -155 c1 -136 6 -180 38 -355 39 -204 47 -240 137 -590 49 -190 51 -204
45 -285 -18 -224 -63 -398 -131 -497 -77 -112 -253 -221 -620 -383 -258 -115
-344 -165 -453 -266 -109 -100 -105 -87 -112 -404 -8 -317 -10 -329 -98 -519
-248 -531 -437 -1083 -550 -1610 -36 -166 -46 -194 -101 -303 -41 -83 -60
-132 -60 -157 0 -52 22 -121 81 -252 94 -212 106 -287 75 -464 -37 -207 -29
-365 21 -457 36 -66 99 -122 159 -141 27 -8 81 -25 121 -37 99 -31 140 -68
153 -140 17 -92 21 -94 245 -87 168 5 203 9 305 36 63 16 125 33 138 38 22 9
20 14 -97 248 -66 132 -149 283 -184 336 -94 138 -124 205 -157 342 -58 248
-83 447 -83 677 0 182 11 263 68 465 18 66 59 221 90 345 133 526 252 787 461
1010 176 186 516 396 809 499 152 54 298 112 331 132 17 11 34 19 37 19 7 0
38 -121 82 -314 19 -87 52 -208 72 -270 l36 -111 -6 -175 c-7 -215 -24 -358
-87 -750 -67 -413 -68 -427 -80 -740 -6 -151 -15 -390 -22 -531 -8 -197 -8
-275 1 -340 24 -167 59 -264 106 -295 20 -13 39 -15 99 -9 115 10 124 2 150
-151 17 -97 45 -154 172 -355 97 -153 167 -227 249 -260 59 -24 63 -24 407
-24 190 0 350 4 354 8 9 8 -65 164 -122 258 -18 31 -83 109 -144 175 -129 138
-263 311 -313 404 -80 147 -109 255 -176 663 -47 279 -51 318 -51 469 0 93 9
255 20 368 11 111 27 319 35 460 17 287 27 378 56 495 67 264 236 477 644 811
176 144 211 180 432 435 150 173 250 276 288 296 42 21 89 22 198 3 178 -31
202 -28 302 40 65 44 107 53 245 52 91 -1 163 -8 256 -27 71 -14 242 -36 379
-50 345 -35 474 -50 740 -87 194 -27 261 -32 430 -32 192 0 207 1 375 36 96
21 337 77 535 126 198 50 378 93 401 96 l41 7 7 -78 c17 -207 48 -615 71 -958
28 -423 39 -509 96 -805 25 -129 42 -249 46 -325 7 -144 -14 -699 -32 -846
-17 -136 -167 -647 -265 -904 -40 -103 -17 -131 139 -174 85 -24 87 -25 105
-59 26 -50 38 -145 45 -338 6 -177 9 -195 32 -240 15 -29 45 -64 75 -87 75
-58 218 -123 312 -143 75 -16 94 -16 175 -5 51 7 130 16 176 18 l84 5 121 -61
c136 -69 220 -90 367 -91 75 0 300 18 307 24 2 3 -114 309 -169 446 -17 41
-68 147 -114 235 -135 260 -149 331 -166 805 -17 460 -11 553 70 1142 46 331
51 415 56 848 2 223 9 470 15 550 5 80 15 246 20 370 6 124 15 250 21 280 20
102 101 241 227 389 64 75 178 163 264 204 40 19 126 60 190 91 184 88 474
290 525 365 31 45 38 73 78 310 50 291 80 370 364 961 310 645 317 658 545
999 280 418 374 577 491 831 204 442 297 594 419 687 120 91 268 146 539 202
170 35 278 47 537 61 258 15 438 35 504 59 149 52 315 219 377 379 16 41 23
80 23 137 1 71 -2 86 -27 128 -40 68 -106 115 -299 214 l-171 87 -206 185
c-474 426 -627 618 -716 891 -23 69 -29 109 -33 211 -8 217 22 311 223 704
162 316 215 470 215 628 0 173 -100 287 -266 304 -60 6 -129 -14 -158 -46 -17
-18 -19 -17 -65 29 -38 38 -63 53 -117 70 -78 24 -185 34 -226 21z m557 -241
c47 -22 65 -37 88 -70 38 -55 17 -141 -108 -430 l-76 -175 7 105 c13 219 7
377 -21 485 -14 55 -25 101 -25 102 0 12 103 -1 135 -17z"/>
</g>
</svg>
