<?xml version="1.0" standalone="no"?>
<!DOCTYPE svg PUBLIC "-//W3C//DTD SVG 20010904//EN"
 "http://www.w3.org/TR/2001/REC-SVG-20010904/DTD/svg10.dtd">
<svg version="1.0" xmlns="http://www.w3.org/2000/svg"
 width="790.000000pt" height="1024.000000pt" viewBox="0 0 790.000000 1024.000000"
 preserveAspectRatio="xMidYMid meet">
<metadata>
Created by potrace 1.16, written by Peter Selinger 2001-2019
</metadata>
<g transform="translate(0.000000,1024.000000) scale(0.100000,-0.100000)"
fill="#000000" stroke="none">
<path d="M1579 10197 c-15 -12 -30 -38 -34 -57 -4 -19 -15 -51 -25 -70 -56
-112 -91 -196 -107 -255 -3 -11 -18 -54 -34 -95 -16 -41 -33 -93 -39 -115 -14
-57 -47 -107 -67 -103 -10 2 -21 18 -25 38 -15 66 -29 145 -38 220 -28 232
-39 278 -82 333 -41 52 -81 52 -103 1 -17 -41 -21 -250 -6 -300 5 -16 14 -78
21 -139 15 -138 45 -315 64 -380 8 -27 25 -87 38 -131 l22 -81 -31 -69 c-106
-233 -119 -584 -37 -1009 49 -255 83 -374 135 -475 98 -187 171 -282 388 -505
113 -115 248 -254 300 -309 199 -206 522 -456 969 -752 155 -102 237 -159 252
-174 3 -3 42 -38 86 -77 91 -82 174 -194 174 -237 0 -16 8 -50 17 -77 22 -62
12 -82 -48 -91 -42 -6 -134 10 -187 32 -46 20 -218 44 -300 43 -69 -1 -145
-12 -277 -38 -32 -7 -105 -74 -105 -97 0 -12 12 -41 26 -66 33 -56 23 -69 -40
-53 -99 25 -207 8 -353 -53 -70 -30 -69 -30 -238 24 -212 67 -484 89 -702 56
-54 -8 -120 -18 -148 -21 -27 -4 -84 -16 -125 -27 -41 -11 -109 -29 -150 -40
-41 -11 -111 -36 -155 -57 -65 -31 -92 -51 -148 -111 -38 -41 -77 -90 -87
-110 -27 -53 -49 -143 -64 -260 -8 -58 -33 -193 -55 -300 -33 -157 -56 -237
-120 -411 -83 -225 -105 -309 -116 -444 -8 -100 9 -298 35 -390 10 -38 24 -98
31 -132 6 -35 16 -63 21 -63 5 0 7 -8 4 -17 -6 -20 7 -81 16 -73 11 10 49 -34
45 -52 -3 -10 -2 -20 3 -23 12 -8 38 -93 50 -170 6 -38 18 -108 26 -154 7 -46
12 -86 9 -90 -7 -12 14 -206 31 -284 30 -142 45 -233 49 -317 9 -154 25 -280
59 -460 10 -58 47 -236 60 -293 8 -34 22 -98 32 -142 21 -101 97 -336 135
-420 20 -45 29 -80 29 -118 0 -32 6 -61 16 -75 15 -22 17 -23 255 -20 144 2
239 7 239 13 0 5 -20 68 -44 140 -63 184 -76 271 -82 535 -4 208 -3 227 15
256 16 26 27 32 67 37 26 3 77 1 113 -5 36 -5 115 -11 174 -12 122 -3 130 -7
115 -65 -5 -20 -11 -88 -14 -151 -3 -63 -14 -186 -24 -273 -11 -87 -20 -215
-20 -285 0 -119 2 -130 28 -177 l27 -50 200 0 c184 0 203 2 235 21 35 20 35
20 47 125 6 57 25 156 42 219 16 63 37 157 46 209 22 130 66 211 80 148 2 -12
16 -69 29 -127 68 -291 82 -403 64 -507 -8 -40 -7 -42 21 -48 20 -4 39 0 62
14 29 18 51 21 142 21 107 0 109 0 139 30 24 25 29 36 24 58 -18 72 -25 147
-25 253 1 88 -3 123 -15 147 -18 34 -23 235 -7 261 15 23 57 4 82 -36 24 -38
24 -38 21 -326 -3 -255 -1 -292 13 -314 l17 -25 221 4 c122 2 230 8 240 12 10
5 26 36 39 80 12 39 44 129 71 201 141 371 155 421 167 630 13 222 49 383 112
508 100 194 149 261 263 352 28 22 121 111 208 199 134 134 174 182 252 301
52 78 99 155 105 171 11 29 107 232 137 289 78 149 83 165 113 311 16 83 30
167 30 185 0 19 7 59 15 89 8 30 19 136 25 235 8 153 15 201 44 315 54 210 60
252 60 450 1 165 3 188 21 218 10 17 23 32 28 32 5 0 29 17 53 39 24 21 63 46
88 55 l44 17 88 -37 c82 -35 97 -38 189 -38 123 -1 172 15 270 90 87 66 207
183 241 234 39 58 31 98 -24 128 -58 32 -222 70 -359 82 -109 10 -114 9 -230
-22 -166 -44 -181 -45 -242 -14 -28 15 -51 32 -51 39 0 8 13 41 30 75 49 102
145 183 355 300 127 71 216 121 325 182 52 29 150 91 218 138 68 46 149 98
180 114 94 50 274 173 447 306 64 49 245 214 370 337 77 76 190 181 295 274
181 160 276 274 353 426 60 118 78 165 147 381 59 183 75 251 106 449 21 136
15 354 -11 425 -22 60 -21 74 16 165 65 164 80 248 88 504 8 239 5 283 -23
326 -13 20 -25 25 -56 25 -36 0 -41 -4 -60 -39 -21 -42 -50 -197 -50 -271 0
-42 -31 -226 -52 -315 -16 -62 -25 -25 -31 125 -10 242 -54 410 -129 495 -47
53 -74 57 -130 19 -34 -24 -38 -31 -38 -70 0 -24 20 -110 44 -192 24 -81 51
-187 60 -237 10 -49 22 -112 27 -140 6 -27 13 -108 16 -180 4 -108 2 -133 -11
-150 -15 -19 -15 -18 -16 25 0 60 -25 225 -50 330 -11 47 -34 148 -50 225 -17
77 -42 181 -57 230 -14 50 -43 159 -64 244 -66 263 -117 341 -225 341 -30 0
-37 -5 -50 -35 -21 -50 -18 -102 15 -244 16 -69 32 -153 36 -186 3 -33 20
-112 36 -175 16 -63 38 -176 49 -250 11 -74 30 -200 42 -280 18 -119 22 -187
22 -385 0 -258 -9 -329 -61 -510 -69 -241 -257 -709 -345 -860 -159 -272 -328
-465 -556 -637 -132 -100 -141 -101 -98 -12 32 67 62 176 86 317 11 65 26 146
34 180 26 114 29 178 12 247 -23 88 -58 146 -93 153 -56 10 -63 -3 -63 -117 0
-95 -4 -118 -51 -277 -73 -254 -100 -324 -175 -466 -66 -125 -71 -132 -220
-280 -84 -83 -174 -166 -201 -184 -26 -17 -73 -53 -103 -79 -55 -46 -144 -110
-154 -110 -3 0 -30 -11 -60 -25 -68 -31 -74 -31 -86 1 -22 58 -11 174 39 414
52 252 61 372 41 549 -15 129 -43 172 -104 157 -29 -7 -46 -63 -86 -276 -31
-174 -46 -230 -104 -400 -54 -157 -65 -207 -75 -333 -8 -91 -15 -126 -35 -165
-25 -49 -67 -92 -91 -92 -6 0 -39 -18 -73 -39 -54 -36 -61 -44 -64 -77 -2 -27
-11 -43 -31 -58 -25 -19 -41 -21 -160 -20 -152 1 -210 19 -246 77 -32 51 -82
94 -142 120 -71 31 -114 63 -227 167 -87 79 -94 89 -112 150 -30 104 -58 236
-75 360 -23 168 -61 378 -94 518 -32 142 -52 174 -96 154 -14 -7 -30 -24 -36
-39 -10 -27 -6 -615 5 -858 7 -144 7 -145 -67 -82 -34 29 -78 63 -97 77 -96
66 -405 367 -484 470 -57 73 -98 149 -131 240 -15 41 -60 158 -101 260 -40
102 -88 228 -106 280 l-33 95 0 205 0 205 -35 16 c-44 21 -61 13 -88 -44 -56
-120 -88 -279 -77 -386 10 -103 43 -252 77 -348 87 -250 85 -243 64 -243 -8 0
-35 32 -61 70 -79 119 -139 248 -178 385 -20 72 -59 202 -86 290 -120 395
-205 838 -235 1230 -18 231 -11 389 28 595 37 195 52 247 106 370 57 129 65
167 40 207 -37 61 -141 83 -191 40z m-221 -2192 c6 -27 20 -77 32 -109 14 -40
18 -62 11 -69 -12 -12 -26 19 -37 79 -3 22 -14 63 -24 93 -10 30 -16 61 -13
69 8 20 19 0 31 -63z m2034 -3175 c46 -30 64 -63 52 -94 -3 -9 -9 -14 -13 -12
-3 2 -19 -1 -35 -8 -35 -14 -152 -1 -176 19 -8 7 -24 15 -35 17 -40 7 -27 34
27 59 124 59 120 59 180 19z"/>
</g>
</svg>
